STARTFONT 2.1
COMMENT
COMMENT Converted from OpenType font "NimbusSans-Regular.otf" by "otf2bdf 3.0".
COMMENT
FONT -FreeType-Nimbus Sans-Medium-R-Normal--33-240-100-100-P-175-ISO10646-1
SIZE 24 100 100
FONTBOUNDINGBOX 41 46 -7 -10
STARTPROPERTIES 19
FOUNDRY "FreeType"
FAMILY_NAME "Nimbus Sans"
WEIGHT_NAME "Medium"
SLANT "R"
SETWIDTH_NAME "Normal"
ADD_STYLE_NAME ""
PIXEL_SIZE 33
POINT_SIZE 240
RESOLUTION_X 100
RESOLUTION_Y 100
SPACING "P"
AVERAGE_WIDTH 175
CHARSET_REGISTRY "ISO10646"
CHARSET_ENCODING "1"
FONT_ASCENT 24
FONT_DESCENT 8
COPYRIGHT "(URW)++,Copyright 2014 by (URW)++ Design & Development"
_OTF_FONTFILE "NimbusSans-Regular.otf"
_OTF_PSNAME "NimbusSans-Regular"
ENDPROPERTIES
CHARS 854
STARTCHAR 0020
ENCODING 32
SWIDTH 270 0
DWIDTH 9 0
BBX 0 0 0 0
BITMAP
ENDCHAR
STARTCHAR 0021
ENCODING 33
SWIDTH 270 0
DWIDTH 9 0
BBX 3 24 4 0
BITMAP
E0
E0
E0
E0
E0
E0
E0
E0
E0
E0
E0
E0
E0
E0
E0
40
40
40
00
00
00
E0
E0
E0
ENDCHAR
STARTCHAR 0022
ENCODING 34
SWIDTH 360 0
DWIDTH 12 0
BBX 8 9 2 15
BITMAP
E7
E7
E7
E7
E7
E7
C3
C2
42
ENDCHAR
STARTCHAR 0023
ENCODING 35
SWIDTH 570 0
DWIDTH 19 0
BBX 18 24 0 0
BITMAP
018300
018700
038700
038700
038600
030600
030E00
3FFFC0
3FFFC0
070C00
070C00
060C00
061C00
0E1C00
0E1C00
FFFF80
FFFF80
0C3800
0C3800
1C3800
1C3000
1C3000
183000
187000
ENDCHAR
STARTCHAR 0024
ENCODING 36
SWIDTH 570 0
DWIDTH 19 0
BBX 16 30 1 -4
BITMAP
0180
0180
03E0
1FF8
3FFC
398E
7186
7187
6187
7180
7180
7980
3F80
1FF0
07FC
01FE
019F
0187
0183
E183
E183
E187
7187
798E
3FFE
1FFC
07E0
0180
0180
0180
ENDCHAR
STARTCHAR 0025
ENCODING 37
SWIDTH 900 0
DWIDTH 30 0
BBX 28 24 1 0
BITMAP
00001800
1F803800
7FC03000
71E07000
E0E06000
C060C000
C060C000
E0618000
E0E18000
79C30000
3F870000
1F060000
000E0000
000C1F80
001C3FC0
001870E0
00306060
0030E070
0060E070
0060E070
00C06060
01C079E0
01803FC0
03800F00
ENDCHAR
STARTCHAR 0026
ENCODING 38
SWIDTH 660 0
DWIDTH 22 0
BBX 19 24 2 0
BITMAP
03E000
0FF000
1E7800
1C3800
181C00
381C00
181800
1C3800
0E7000
0FE000
07C000
0F8000
3DC300
78E380
F07380
E07B80
E03F00
E01F00
E00E00
E01F00
F03F00
7FFB80
3FE1C0
0FC1E0
ENDCHAR
STARTCHAR 0027
ENCODING 39
SWIDTH 180 0
DWIDTH 6 0
BBX 3 9 2 15
BITMAP
E0
E0
E0
E0
E0
C0
C0
C0
C0
ENDCHAR
STARTCHAR 0028
ENCODING 40
SWIDTH 330 0
DWIDTH 11 0
BBX 7 31 2 -7
BITMAP
02
06
0C
0C
18
18
38
30
30
70
70
60
60
60
E0
E0
E0
60
60
60
70
70
70
30
38
18
18
1C
0C
06
06
ENDCHAR
STARTCHAR 0029
ENCODING 41
SWIDTH 330 0
DWIDTH 11 0
BBX 7 31 2 -7
BITMAP
C0
C0
60
60
30
30
38
18
18
1C
1C
0C
0C
0C
0E
0E
0E
0C
0C
0C
1C
1C
1C
18
38
30
30
70
60
C0
C0
ENDCHAR
STARTCHAR 002A
ENCODING 42
SWIDTH 390 0
DWIDTH 13 0
BBX 9 10 2 14
BITMAP
1800
1800
1800
FB80
FF80
1C00
3E00
7600
6300
0200
ENDCHAR
STARTCHAR 002B
ENCODING 43
SWIDTH 570 0
DWIDTH 19 0
BBX 16 16 2 0
BITMAP
0180
0180
0180
0180
0180
0180
0180
FFFF
FFFF
0180
0180
0180
0180
0180
0180
0180
ENDCHAR
STARTCHAR 002C
ENCODING 44
SWIDTH 270 0
DWIDTH 9 0
BBX 3 8 3 -5
BITMAP
E0
E0
E0
20
20
20
60
C0
ENDCHAR
STARTCHAR 002D
ENCODING 45
SWIDTH 330 0
DWIDTH 11 0
BBX 7 2 2 8
BITMAP
FE
FE
ENDCHAR
STARTCHAR 002E
ENCODING 46
SWIDTH 270 0
DWIDTH 9 0
BBX 3 3 3 0
BITMAP
E0
E0
E0
ENDCHAR
STARTCHAR 002F
ENCODING 47
SWIDTH 270 0
DWIDTH 9 0
BBX 9 24 0 0
BITMAP
0180
0180
0180
0300
0300
0300
0600
0600
0600
0C00
0C00
0C00
1800
1800
1800
1000
3000
3000
2000
6000
6000
4000
C000
C000
ENDCHAR
STARTCHAR 0030
ENCODING 48
SWIDTH 570 0
DWIDTH 19 0
BBX 16 24 1 0
BITMAP
03E0
0FF8
1FFC
3C1C
381E
700E
700E
7007
7007
7007
F007
E007
E007
F007
7007
7007
7007
700E
700E
380E
3C1C
1F7C
0FF8
07E0
ENDCHAR
STARTCHAR 0031
ENCODING 49
SWIDTH 570 0
DWIDTH 19 0
BBX 9 24 3 0
BITMAP
0380
0380
0380
0780
3F80
FF80
FF80
0380
0380
0380
0380
0380
0380
0380
0380
0380
0380
0380
0380
0380
0380
0380
0380
0380
ENDCHAR
STARTCHAR 0032
ENCODING 50
SWIDTH 570 0
DWIDTH 19 0
BBX 16 24 1 0
BITMAP
07F0
0FF8
3FFC
3C1E
780F
7007
7007
7007
0007
000F
000E
003C
0078
01F0
07E0
0F80
1E00
3C00
7800
7000
7000
FFFF
FFFF
FFFF
ENDCHAR
STARTCHAR 0033
ENCODING 51
SWIDTH 570 0
DWIDTH 19 0
BBX 16 24 1 0
BITMAP
07E0
1FF8
3FFC
781E
700E
700E
700E
600E
000E
001C
03F8
03F8
03FC
001E
000F
0007
E007
E007
E007
700E
781E
3FFC
1FF8
07E0
ENDCHAR
STARTCHAR 0034
ENCODING 52
SWIDTH 570 0
DWIDTH 19 0
BBX 16 24 1 0
BITMAP
0038
0078
0078
00F8
01F8
01B8
03B8
0738
0E38
0E38
1C38
3838
3038
7038
E038
FFFF
FFFF
FFFF
0038
0038
0038
0038
0038
0038
ENDCHAR
STARTCHAR 0035
ENCODING 53
SWIDTH 570 0
DWIDTH 19 0
BBX 16 24 1 0
BITMAP
1FFE
3FFE
3FFE
3800
3800
3800
3800
3000
73E0
7FF8
7FFC
781E
700F
0007
0007
0007
0007
0007
E007
700E
781E
3FFC
1FF8
07E0
ENDCHAR
STARTCHAR 0036
ENCODING 54
SWIDTH 570 0
DWIDTH 19 0
BBX 16 24 1 0
BITMAP
03F0
0FF8
1FFC
1C1E
380E
380F
7000
7000
7000
73F0
6FFC
EFFE
F81E
F00F
F007
7007
7007
7007
7007
380E
3C1E
1FFC
0FF8
07E0
ENDCHAR
STARTCHAR 0037
ENCODING 55
SWIDTH 570 0
DWIDTH 19 0
BBX 15 24 2 0
BITMAP
FFFE
FFFE
FFFE
000E
001C
0018
0038
0070
0060
00E0
00C0
01C0
0180
0380
0300
0700
0700
0E00
0E00
0E00
0C00
1C00
1C00
1C00
ENDCHAR
STARTCHAR 0038
ENCODING 56
SWIDTH 570 0
DWIDTH 19 0
BBX 16 24 1 0
BITMAP
07E0
1FF8
3FFC
381E
700E
700E
700E
700E
780E
3C3C
1FF8
0FF8
3FFC
781E
700F
E007
E007
E007
F007
700F
781E
3FFC
1FF8
07E0
ENDCHAR
STARTCHAR 0039
ENCODING 57
SWIDTH 570 0
DWIDTH 19 0
BBX 16 24 1 0
BITMAP
07E0
1FF8
3FFC
781C
700E
700E
E007
E007
E007
F00F
700F
781F
3FFF
1FF7
07C7
0007
0006
000E
700E
701C
383C
3FF8
1FF0
07C0
ENDCHAR
STARTCHAR 003A
ENCODING 58
SWIDTH 270 0
DWIDTH 9 0
BBX 3 18 4 0
BITMAP
E0
E0
E0
00
00
00
00
00
00
00
00
00
00
00
00
E0
E0
E0
ENDCHAR
STARTCHAR 003B
ENCODING 59
SWIDTH 270 0
DWIDTH 9 0
BBX 3 23 4 -5
BITMAP
E0
E0
E0
00
00
00
00
00
00
00
00
00
00
00
00
E0
E0
E0
20
20
60
40
80
ENDCHAR
STARTCHAR 003C
ENCODING 60
SWIDTH 570 0
DWIDTH 19 0
BBX 17 16 1 0
BITMAP
000180
000780
001F80
00FC00
03F000
0FC000
7E0000
F80000
F80000
7F0000
0FC000
03F000
00FE00
001F80
000780
000080
ENDCHAR
STARTCHAR 003D
ENCODING 61
SWIDTH 570 0
DWIDTH 19 0
BBX 16 8 2 4
BITMAP
FFFF
FFFF
0000
0000
0000
0000
FFFF
FFFF
ENDCHAR
STARTCHAR 003E
ENCODING 62
SWIDTH 570 0
DWIDTH 19 0
BBX 16 16 2 0
BITMAP
8000
E000
FC00
3F00
0FE0
01F8
007E
000F
000F
007E
01F8
0FC0
3F00
FC00
E000
8000
ENDCHAR
STARTCHAR 003F
ENCODING 63
SWIDTH 570 0
DWIDTH 19 0
BBX 14 24 3 0
BITMAP
0FC0
3FF0
7FF8
F038
E01C
E01C
C01C
C01C
003C
0038
00F0
01E0
03C0
0380
0700
0700
0700
0700
0000
0000
0000
0700
0700
0700
ENDCHAR
STARTCHAR 0040
ENCODING 64
SWIDTH 1020 0
DWIDTH 34 0
BBX 31 29 1 -5
BITMAP
0007F800
003FFE00
00FFFF80
03E007C0
078001F0
0F0000F0
1E000078
1C03C03C
380FF71C
301E361C
70381E0E
70701E0E
60701C0E
E0E01C0E
E0E01C0C
E0E0181C
E0E0381C
E0E03838
F0F07878
7078F8F0
703FBFE0
381E1F80
3C000000
1E000000
0F800000
07F00C00
01FFFE00
007FFC00
00030000
ENDCHAR
STARTCHAR 0041
ENCODING 65
SWIDTH 660 0
DWIDTH 22 0
BBX 21 24 1 0
BITMAP
00F000
00F800
01F800
01F800
01DC00
039C00
039E00
038E00
070E00
070F00
0F0700
0E0700
0E0780
1E0380
1FFF80
1FFFC0
3FFFC0
3801C0
3801E0
7800E0
7000F0
F000F0
E00070
E00078
ENDCHAR
STARTCHAR 0042
ENCODING 66
SWIDTH 660 0
DWIDTH 22 0
BBX 18 24 3 0
BITMAP
FFF800
FFFE00
FFFF00
E00F00
E00780
E00780
E00380
E00380
E00700
E00F00
FFFE00
FFFC00
FFFF00
E00780
E00380
E003C0
E001C0
E001C0
E001C0
E00380
E00780
FFFF00
FFFE00
FFFC00
ENDCHAR
STARTCHAR 0043
ENCODING 67
SWIDTH 720 0
DWIDTH 24 0
BBX 20 24 2 0
BITMAP
01FC00
07FF80
0FFFC0
1E03E0
3801E0
7800F0
700070
E00070
E00000
E00000
E00000
E00000
E00000
E00000
E00000
E00070
F00070
700070
7800F0
3C01E0
3E03E0
1FFFC0
07FF00
01FC00
ENDCHAR
STARTCHAR 0044
ENCODING 68
SWIDTH 720 0
DWIDTH 24 0
BBX 19 24 3 0
BITMAP
FFF800
FFFE00
FFFF00
E00F80
E003C0
E001C0
E001C0
E000E0
E000E0
E000E0
E000E0
E000E0
E000E0
E000E0
E000E0
E000E0
E000E0
E001C0
E001C0
E00380
E00F80
FFFF00
FFFE00
FFF000
ENDCHAR
STARTCHAR 0045
ENCODING 69
SWIDTH 660 0
DWIDTH 22 0
BBX 17 24 3 0
BITMAP
FFFF80
FFFF80
FFFF80
E00000
E00000
E00000
E00000
E00000
E00000
E00000
FFFF00
FFFF00
FFFF00
E00000
E00000
E00000
E00000
E00000
E00000
E00000
E00000
FFFF80
FFFF80
FFFF80
ENDCHAR
STARTCHAR 0046
ENCODING 70
SWIDTH 600 0
DWIDTH 20 0
BBX 16 24 3 0
BITMAP
FFFF
FFFF
FFFF
E000
E000
E000
E000
E000
E000
E000
FFFE
FFFE
FFFE
E000
E000
E000
E000
E000
E000
E000
E000
E000
E000
E000
ENDCHAR
STARTCHAR 0047
ENCODING 71
SWIDTH 780 0
DWIDTH 26 0
BBX 23 24 1 0
BITMAP
007F00
03FFC0
07FFF0
0F00F8
1E0078
3C003C
38001C
700000
700000
700000
700000
F00FFE
F00FFE
700FFE
70000E
70000E
78000E
38001E
3C001E
1E003E
1F00FE
0FFFEE
03FF8E
00FE00
ENDCHAR
STARTCHAR 0048
ENCODING 72
SWIDTH 720 0
DWIDTH 24 0
BBX 18 24 3 0
BITMAP
E001C0
E001C0
E001C0
E001C0
E001C0
E001C0
E001C0
E001C0
E001C0
E001C0
FFFFC0
FFFFC0
FFFFC0
E001C0
E001C0
E001C0
E001C0
E001C0
E001C0
E001C0
E001C0
E001C0
E001C0
E001C0
ENDCHAR
STARTCHAR 0049
ENCODING 73
SWIDTH 270 0
DWIDTH 9 0
BBX 3 24 3 0
BITMAP
E0
E0
E0
E0
E0
E0
E0
E0
E0
E0
E0
E0
E0
E0
E0
E0
E0
E0
E0
E0
E0
E0
E0
E0
ENDCHAR
STARTCHAR 004A
ENCODING 74
SWIDTH 510 0
DWIDTH 17 0
BBX 13 24 1 0
BITMAP
0038
0038
0038
0038
0038
0038
0038
0038
0038
0038
0038
0038
0038
0038
0038
0038
E038
E038
E038
E038
F078
7FF0
3FE0
1F80
ENDCHAR
STARTCHAR 004B
ENCODING 75
SWIDTH 660 0
DWIDTH 22 0
BBX 19 24 3 0
BITMAP
E003C0
E00780
E00F00
E01E00
E03C00
E07800
E0F000
E1E000
E3C000
E78000
EF8000
FFC000
FDE000
F8F000
F07000
E07800
E03C00
E01C00
E01E00
E00F00
E00700
E00380
E003C0
E001E0
ENDCHAR
STARTCHAR 004C
ENCODING 76
SWIDTH 570 0
DWIDTH 19 0
BBX 15 24 3 0
BITMAP
E000
E000
E000
E000
E000
E000
E000
E000
E000
E000
E000
E000
E000
E000
E000
E000
E000
E000
E000
E000
E000
FFFE
FFFE
FFFE
ENDCHAR
STARTCHAR 004D
ENCODING 77
SWIDTH 840 0
DWIDTH 28 0
BBX 23 24 2 0
BITMAP
F8001E
F8001E
FC003E
FC003E
EC003E
EE007E
EE007E
E6006E
E700EE
E700EE
E301CE
E381CE
E381CE
E1838E
E1C38E
E1C30E
E0C70E
E0E70E
E0E60E
E07E0E
E07E0E
E07C0E
E03C0E
E03C0E
ENDCHAR
STARTCHAR 004E
ENCODING 78
SWIDTH 720 0
DWIDTH 24 0
BBX 19 24 3 0
BITMAP
E000E0
F000E0
F800E0
F800E0
FC00E0
DC00E0
CE00E0
CF00E0
C700E0
C380E0
C3C0E0
C1C0E0
C0E0E0
C0F0E0
C070E0
C038E0
C03CE0
C01CE0
C01EE0
C00FE0
C007E0
C007E0
C003E0
C001E0
ENDCHAR
STARTCHAR 004F
ENCODING 79
SWIDTH 780 0
DWIDTH 26 0
BBX 24 24 1 0
BITMAP
00FF00
03FFC0
07FFF0
1F00F8
1E007C
3C003C
78001E
70000E
70000E
F0000F
E00007
E00007
E00007
F00007
F0000F
70000E
70000E
78001E
3C003C
1E0078
1F00F8
0FFFE0
03FFC0
00FE00
ENDCHAR
STARTCHAR 0050
ENCODING 80
SWIDTH 660 0
DWIDTH 22 0
BBX 18 24 3 0
BITMAP
FFF800
FFFE00
FFFF00
E00780
E00380
E00380
E003C0
E003C0
E00380
E00780
E00F80
FFFF00
FFFE00
FFF000
E00000
E00000
E00000
E00000
E00000
E00000
E00000
E00000
E00000
E00000
ENDCHAR
STARTCHAR 0051
ENCODING 81
SWIDTH 780 0
DWIDTH 26 0
BBX 24 25 1 -1
BITMAP
00FF00
03FFC0
0FFFF0
1F00F8
1E007C
3C003C
78001E
70000E
70000E
F0000F
E00007
E00007
E00007
F00007
F0000F
70000E
70000E
78031E
3C07BC
1E01F8
1F00F8
0FFFF8
03FFDC
00FF0E
000004
ENDCHAR
STARTCHAR 0052
ENCODING 82
SWIDTH 720 0
DWIDTH 24 0
BBX 20 24 3 0
BITMAP
FFFE00
FFFF80
FFFFC0
E003C0
E001E0
E001E0
E001E0
E001E0
E001C0
E001C0
E00380
FFFF00
FFFF00
FFFF80
E003C0
E001C0
E001C0
E001C0
E001C0
E001C0
E001C0
E001C0
E001E0
E000F0
ENDCHAR
STARTCHAR 0053
ENCODING 83
SWIDTH 660 0
DWIDTH 22 0
BBX 19 24 2 0
BITMAP
07F800
1FFE00
3FFF00
780780
700380
F001C0
E001C0
F00000
700000
7E0000
3FC000
1FFC00
01FF00
001FC0
0003C0
0001E0
E000E0
E000E0
E001C0
F001C0
7803C0
3FFF80
1FFE00
07F800
ENDCHAR
STARTCHAR 0054
ENCODING 84
SWIDTH 600 0
DWIDTH 20 0
BBX 19 24 1 0
BITMAP
FFFFE0
FFFFE0
FFFFE0
00E000
00E000
00E000
00E000
00E000
00E000
00E000
00E000
00E000
00E000
00E000
00E000
00E000
00E000
00E000
00E000
00E000
00E000
00E000
00E000
00E000
ENDCHAR
STARTCHAR 0055
ENCODING 85
SWIDTH 720 0
DWIDTH 24 0
BBX 18 24 3 0
BITMAP
E001C0
E001C0
E001C0
E001C0
E001C0
E001C0
E001C0
E001C0
E001C0
E001C0
E001C0
E001C0
E001C0
E001C0
E001C0
E001C0
E001C0
E001C0
E001C0
F003C0
7C0780
3FFF00
1FFE00
07F800
ENDCHAR
STARTCHAR 0056
ENCODING 86
SWIDTH 660 0
DWIDTH 22 0
BBX 20 24 1 0
BITMAP
F00070
700070
7000F0
7800E0
3800E0
3801E0
3C01C0
1C01C0
1C0380
1E0380
0E0380
0E0700
070700
070700
070E00
038E00
038E00
039C00
01DC00
01DC00
01F800
00F800
00F800
007000
ENDCHAR
STARTCHAR 0057
ENCODING 87
SWIDTH 930 0
DWIDTH 31 0
BBX 30 24 1 0
BITMAP
E007803C
F007803C
F00F8038
700F8038
700FC078
700DC078
781DC070
381CE070
381CE070
3818E0F0
3C3860E0
1C3870E0
1C3870E0
1C7071C0
1E7039C0
0E7039C0
0E6039C0
0EE01B80
07E01F80
07E01F80
07C01F80
07C00F00
03C00F00
03C00F00
ENDCHAR
STARTCHAR 0058
ENCODING 88
SWIDTH 660 0
DWIDTH 22 0
BBX 20 24 1 0
BITMAP
7000F0
7800E0
3C01C0
1C03C0
1E0380
0F0700
070F00
078E00
03DC00
01FC00
01F800
00F000
00F800
01F800
03FC00
039E00
070E00
0F0F00
0E0780
1C0380
3C03C0
7801E0
7000F0
F000F0
ENDCHAR
STARTCHAR 0059
ENCODING 89
SWIDTH 660 0
DWIDTH 22 0
BBX 21 24 1 0
BITMAP
F00078
F000F0
7800E0
3801E0
3C01C0
1E03C0
0E0780
0F0700
070F00
038E00
03DC00
01DC00
01F800
00F800
007000
007000
007000
007000
007000
007000
007000
007000
007000
007000
ENDCHAR
STARTCHAR 005A
ENCODING 90
SWIDTH 600 0
DWIDTH 20 0
BBX 18 24 1 0
BITMAP
7FFFC0
7FFFC0
7FFFC0
0003C0
000780
000F00
000E00
001E00
003C00
007800
00F000
00F000
01E000
03C000
078000
0F0000
0F0000
1E0000
3C0000
780000
700000
FFFFC0
FFFFC0
FFFFC0
ENDCHAR
STARTCHAR 005B
ENCODING 91
SWIDTH 270 0
DWIDTH 9 0
BBX 6 31 2 -7
BITMAP
FC
FC
E0
E0
E0
E0
E0
E0
E0
E0
E0
E0
E0
E0
E0
E0
E0
E0
E0
E0
E0
E0
E0
E0
E0
E0
E0
E0
E0
FC
FC
ENDCHAR
STARTCHAR 005C
ENCODING 92
SWIDTH 270 0
DWIDTH 9 0
BBX 9 24 0 0
BITMAP
C000
C000
4000
6000
6000
2000
3000
3000
1000
1800
1800
1800
0C00
0C00
0C00
0600
0600
0600
0300
0300
0300
0180
0180
0180
ENDCHAR
STARTCHAR 005D
ENCODING 93
SWIDTH 270 0
DWIDTH 9 0
BBX 6 31 1 -7
BITMAP
FC
FC
1C
1C
1C
1C
1C
1C
1C
1C
1C
1C
1C
1C
1C
1C
1C
1C
1C
1C
1C
1C
1C
1C
1C
1C
1C
1C
1C
FC
FC
ENDCHAR
STARTCHAR 005E
ENCODING 94
SWIDTH 480 0
DWIDTH 16 0
BBX 12 13 2 11
BITMAP
0600
0E00
0F00
1F00
1B80
3980
31C0
30C0
70C0
60E0
E060
C070
C030
ENDCHAR
STARTCHAR 005F
ENCODING 95
SWIDTH 570 0
DWIDTH 19 0
BBX 20 2 -1 -6
BITMAP
FFFFF0
FFFFF0
ENDCHAR
STARTCHAR 0060
ENCODING 96
SWIDTH 330 0
DWIDTH 11 0
BBX 6 5 1 19
BITMAP
F0
70
38
1C
0C
ENDCHAR
STARTCHAR 0061
ENCODING 97
SWIDTH 570 0
DWIDTH 19 0
BBX 17 18 1 0
BITMAP
07F000
1FF800
3FFC00
381E00
700E00
700E00
000E00
007E00
0FFE00
3FCE00
780E00
700E00
E00E00
E01E00
703E00
7DFF00
3FEF80
1F8780
ENDCHAR
STARTCHAR 0062
ENCODING 98
SWIDTH 570 0
DWIDTH 19 0
BBX 15 24 2 0
BITMAP
E000
E000
E000
E000
E000
E000
E7E0
EFF8
FFFC
F83C
F01E
E00E
E00E
E00E
E00E
E006
E00E
E00E
E00E
F01E
F83C
FFF8
DFF0
C7C0
ENDCHAR
STARTCHAR 0063
ENCODING 99
SWIDTH 510 0
DWIDTH 17 0
BBX 15 18 1 0
BITMAP
07E0
1FF8
3FF8
381C
701C
700E
E000
E000
E000
E000
E000
E00E
F00E
701E
781C
3FF8
1FF0
07E0
ENDCHAR
STARTCHAR 0064
ENCODING 100
SWIDTH 570 0
DWIDTH 19 0
BBX 15 24 1 0
BITMAP
0006
0006
0006
0006
0006
0006
07C6
1FF6
3FFE
783E
701E
F00E
E00E
E006
E006
E006
E006
E006
F00E
700E
781E
3FFE
1FF6
07C6
ENDCHAR
STARTCHAR 0065
ENCODING 101
SWIDTH 570 0
DWIDTH 19 0
BBX 16 18 1 0
BITMAP
03E0
0FF8
1FFC
381E
700E
7007
7007
E007
FFFF
FFFF
E000
6000
7007
700E
381E
3FFC
1FF8
07E0
ENDCHAR
STARTCHAR 0066
ENCODING 102
SWIDTH 270 0
DWIDTH 9 0
BBX 8 24 1 0
BITMAP
0F
1F
3C
38
38
38
FF
FF
38
38
38
38
38
38
38
38
38
38
38
38
38
38
38
38
ENDCHAR
STARTCHAR 0067
ENCODING 103
SWIDTH 570 0
DWIDTH 19 0
BBX 15 24 1 -6
BITMAP
07CE
1FEE
3FFE
383E
701E
700E
E00E
E00E
E00E
E00E
E00E
E00E
700E
701E
383E
3FFE
1FEE
078E
000E
700E
701C
783C
3FF8
0FE0
ENDCHAR
STARTCHAR 0068
ENCODING 104
SWIDTH 570 0
DWIDTH 19 0
BBX 14 24 2 0
BITMAP
E000
E000
E000
E000
E000
E000
E3E0
EFF8
FFFC
F81C
F01C
F01C
E01C
E01C
E01C
E01C
E01C
E01C
E01C
E01C
E01C
E01C
E01C
E01C
ENDCHAR
STARTCHAR 0069
ENCODING 105
SWIDTH 210 0
DWIDTH 7 0
BBX 3 24 2 0
BITMAP
E0
E0
E0
E0
00
00
E0
E0
E0
E0
E0
E0
E0
E0
E0
E0
E0
E0
E0
E0
E0
E0
E0
E0
ENDCHAR
STARTCHAR 006A
ENCODING 106
SWIDTH 210 0
DWIDTH 7 0
BBX 6 31 -1 -7
BITMAP
1C
1C
1C
1C
00
00
1C
1C
1C
1C
1C
1C
1C
1C
1C
1C
1C
1C
1C
1C
1C
1C
1C
1C
1C
1C
1C
1C
1C
FC
F8
ENDCHAR
STARTCHAR 006B
ENCODING 107
SWIDTH 510 0
DWIDTH 17 0
BBX 14 24 2 0
BITMAP
E000
E000
E000
E000
E000
E000
E038
E070
E0E0
E1C0
E380
E700
EF00
FF00
FB80
F3C0
E1C0
E1E0
E0E0
E070
E078
E038
E03C
E01C
ENDCHAR
STARTCHAR 006C
ENCODING 108
SWIDTH 210 0
DWIDTH 7 0
BBX 3 24 2 0
BITMAP
E0
E0
E0
E0
E0
E0
E0
E0
E0
E0
E0
E0
E0
E0
E0
E0
E0
E0
E0
E0
E0
E0
E0
E0
ENDCHAR
STARTCHAR 006D
ENCODING 109
SWIDTH 840 0
DWIDTH 28 0
BBX 23 18 2 0
BITMAP
E7E0F8
EFF3FC
FEFFBE
F83E0E
F03C0E
E03C06
E03806
E03806
E03806
E03806
E03806
E03806
E03806
E03806
E03806
E03806
E03806
E03806
ENDCHAR
STARTCHAR 006E
ENCODING 110
SWIDTH 570 0
DWIDTH 19 0
BBX 14 18 2 0
BITMAP
E7E0
EFF8
FFFC
F81C
F01C
F01C
E01C
E01C
E01C
E01C
E01C
E01C
E01C
E01C
E01C
E01C
E01C
E01C
ENDCHAR
STARTCHAR 006F
ENCODING 111
SWIDTH 570 0
DWIDTH 19 0
BBX 16 18 1 0
BITMAP
07E0
1FF8
3FFC
381E
700E
700F
E007
E007
E007
E007
E007
E007
7007
700E
781E
3FFC
1FF8
07E0
ENDCHAR
STARTCHAR 0070
ENCODING 112
SWIDTH 570 0
DWIDTH 19 0
BBX 15 24 2 -6
BITMAP
C7E0
DFF0
FFF8
F83C
F01E
E00E
E00E
E00E
E00E
E006
E00E
E00E
E00E
F01E
F83C
FFF8
EFF0
E7E0
E000
E000
E000
E000
E000
E000
ENDCHAR
STARTCHAR 0071
ENCODING 113
SWIDTH 570 0
DWIDTH 19 0
BBX 15 25 1 -7
BITMAP
07C6
1FF6
3FFE
781E
701E
F00E
E00E
E006
E006
E006
E006
E00E
F00E
700E
781E
3FFE
1FF6
07C6
0006
0006
0006
0006
0006
0006
0006
ENDCHAR
STARTCHAR 0072
ENCODING 114
SWIDTH 330 0
DWIDTH 11 0
BBX 9 18 2 0
BITMAP
E380
E780
EF00
F800
F000
F000
E000
E000
E000
E000
E000
E000
E000
E000
E000
E000
E000
E000
ENDCHAR
STARTCHAR 0073
ENCODING 115
SWIDTH 510 0
DWIDTH 17 0
BBX 14 18 1 0
BITMAP
0FC0
3FF0
7FF8
7038
701C
7000
7000
7E00
3FE0
0FF8
00FC
001C
E01C
E01C
701C
7FF8
3FF0
0FC0
ENDCHAR
STARTCHAR 0074
ENCODING 116
SWIDTH 270 0
DWIDTH 9 0
BBX 8 23 0 0
BITMAP
1C
1C
1C
1C
1C
FF
FF
1C
1C
1C
1C
1C
1C
1C
1C
1C
1C
1C
1C
1C
1E
1F
0F
ENDCHAR
STARTCHAR 0075
ENCODING 117
SWIDTH 570 0
DWIDTH 19 0
BBX 14 18 2 -1
BITMAP
E01C
E01C
E01C
E01C
E01C
E01C
E01C
E01C
E01C
E01C
E01C
E01C
E01C
E03C
F03C
7DFC
7FEC
1FCC
ENDCHAR
STARTCHAR 0076
ENCODING 118
SWIDTH 510 0
DWIDTH 17 0
BBX 16 18 0 0
BITMAP
F007
7007
700E
380E
380E
381C
1C1C
1C18
1C38
0C38
0E30
0E70
0670
0760
07E0
03C0
03C0
03C0
ENDCHAR
STARTCHAR 0077
ENCODING 119
SWIDTH 720 0
DWIDTH 24 0
BBX 23 18 0 0
BITMAP
E03C0E
703C0E
703C0E
707C0E
707E1C
386E1C
386E1C
38E618
18E738
1CC738
1CC738
1DC330
0DC3F0
0F83F0
0F83E0
0781E0
0781E0
0781E0
ENDCHAR
STARTCHAR 0078
ENCODING 120
SWIDTH 510 0
DWIDTH 17 0
BBX 14 18 1 0
BITMAP
E01C
703C
3838
3870
1C70
0EE0
0FC0
07C0
0780
0780
07C0
0FE0
1CE0
1C70
3870
7038
701C
E01C
ENDCHAR
STARTCHAR 0079
ENCODING 121
SWIDTH 510 0
DWIDTH 17 0
BBX 15 25 1 -7
BITMAP
E00E
E01C
E01C
701C
7038
7038
3838
3870
3870
1C60
1CE0
1CE0
0EC0
0FC0
0FC0
0780
0780
0780
0700
0700
0E00
0E00
7E00
7C00
7800
ENDCHAR
STARTCHAR 007A
ENCODING 122
SWIDTH 510 0
DWIDTH 17 0
BBX 14 18 1 0
BITMAP
7FFC
7FFC
003C
0038
0070
00E0
01E0
03C0
0380
0700
0E00
1E00
3C00
3800
7000
E000
FFFC
FFFC
ENDCHAR
STARTCHAR 007B
ENCODING 123
SWIDTH 330 0
DWIDTH 11 0
BBX 8 31 1 -7
BITMAP
07
0F
1E
1C
1C
1C
1C
1C
1C
1C
1C
1C
18
38
78
E0
F0
38
18
1C
1C
1C
1C
1C
1C
1C
1C
1C
1C
0F
0F
ENDCHAR
STARTCHAR 007C
ENCODING 124
SWIDTH 270 0
DWIDTH 9 0
BBX 2 31 3 -7
BITMAP
C0
C0
C0
C0
C0
C0
C0
C0
C0
C0
C0
C0
C0
C0
C0
C0
C0
C0
C0
C0
C0
C0
C0
C0
C0
C0
C0
C0
C0
C0
C0
ENDCHAR
STARTCHAR 007D
ENCODING 125
SWIDTH 330 0
DWIDTH 11 0
BBX 8 31 1 -7
BITMAP
E0
F8
38
18
18
18
18
18
18
18
18
18
1C
1C
0F
07
0F
1C
1C
18
18
18
18
18
18
18
18
18
38
F8
F0
ENDCHAR
STARTCHAR 007E
ENCODING 126
SWIDTH 570 0
DWIDTH 19 0
BBX 14 5 3 9
BITMAP
7800
FE0C
C79C
81F8
00F0
ENDCHAR
STARTCHAR 00A0
ENCODING 160
SWIDTH 270 0
DWIDTH 9 0
BBX 0 0 0 0
BITMAP
ENDCHAR
STARTCHAR 00A1
ENCODING 161
SWIDTH 330 0
DWIDTH 11 0
BBX 3 24 4 -6
BITMAP
E0
E0
E0
00
00
00
40
40
40
E0
E0
E0
E0
E0
E0
E0
E0
E0
E0
E0
E0
E0
E0
E0
ENDCHAR
STARTCHAR 00A2
ENCODING 162
SWIDTH 570 0
DWIDTH 19 0
BBX 15 25 2 -4
BITMAP
0100
0100
0100
07E0
1FF8
3FFC
791C
711E
E10E
E100
E100
E100
E100
E100
E100
E10E
E10E
711E
793C
3FF8
1FF0
03C0
0100
0100
0100
ENDCHAR
STARTCHAR 00A3
ENCODING 163
SWIDTH 570 0
DWIDTH 19 0
BBX 16 24 1 0
BITMAP
03F0
0FFC
1FFE
380E
700F
7007
7007
7000
7000
3800
3800
FFE0
FFE0
0E00
0E00
0E00
0E00
0C00
1C00
3800
77C3
FFFF
7FFF
007E
ENDCHAR
STARTCHAR 00A4
ENCODING 164
SWIDTH 570 0
DWIDTH 19 0
BBX 14 13 2 6
BITMAP
6118
FFFC
7FF8
3878
7038
7018
7018
7018
7038
3870
7FF8
FFFC
6318
ENDCHAR
STARTCHAR 00A5
ENCODING 165
SWIDTH 570 0
DWIDTH 19 0
BBX 18 24 0 0
BITMAP
E001C0
7001C0
300380
380300
1C0700
1C0600
0E0E00
0E1C00
071C00
033800
03B000
01F000
3FFF00
3FFF00
00E000
00E000
3FFF00
3FFF00
00E000
00E000
00E000
00E000
00E000
00E000
ENDCHAR
STARTCHAR 00A6
ENCODING 166
SWIDTH 270 0
DWIDTH 9 0
BBX 2 31 3 -7
BITMAP
C0
C0
C0
C0
C0
C0
C0
C0
C0
C0
C0
C0
C0
00
00
00
00
00
C0
C0
C0
C0
C0
C0
C0
C0
C0
C0
C0
C0
C0
ENDCHAR
STARTCHAR 00A7
ENCODING 167
SWIDTH 570 0
DWIDTH 19 0
BBX 16 31 1 -7
BITMAP
03E0
0FF8
1FFC
1C1C
1C0C
1C0C
1E00
1F00
1F80
3BE0
71F8
607C
603E
E00E
700F
7807
7C07
3E07
1F86
07CE
03FC
00F0
0078
003C
301C
381C
381C
383C
1FF8
1FF0
07C0
ENDCHAR
STARTCHAR 00A8
ENCODING 168
SWIDTH 330 0
DWIDTH 11 0
BBX 9 3 1 21
BITMAP
E780
E780
E780
ENDCHAR
STARTCHAR 00A9
ENCODING 169
SWIDTH 750 0
DWIDTH 25 0
BBX 25 24 0 0
BITMAP
007F0000
03FFC000
0781F000
1E003800
1C001C00
303E0E00
70FF8700
61E38300
E181C300
C380C380
C3800180
C3000180
C3000180
C380C180
C380C380
E181C300
61E38300
70FF0700
383E0E00
3C001C00
1E003800
0781F000
03FFC000
007F0000
ENDCHAR
STARTCHAR 00AA
ENCODING 170
SWIDTH 360 0
DWIDTH 12 0
BBX 10 14 1 10
BITMAP
3F00
7F80
6180
6180
0380
3F80
6180
C180
C380
7FC0
3CC0
0000
FFC0
FFC0
ENDCHAR
STARTCHAR 00AB
ENCODING 171
SWIDTH 570 0
DWIDTH 19 0
BBX 12 10 3 5
BITMAP
0810
1830
78F0
F1C0
C180
E180
F1E0
38F0
1830
0810
ENDCHAR
STARTCHAR 00AC
ENCODING 172
SWIDTH 570 0
DWIDTH 19 0
BBX 17 9 1 3
BITMAP
FFFF80
FFFF80
000180
000180
000180
000180
000180
000180
000180
ENDCHAR
STARTCHAR 00AD
ENCODING 173
SWIDTH 330 0
DWIDTH 11 0
BBX 7 2 2 8
BITMAP
FE
FE
ENDCHAR
STARTCHAR 00AE
ENCODING 174
SWIDTH 750 0
DWIDTH 25 0
BBX 25 24 0 0
BITMAP
007F0000
03FFE000
0781F000
1E003800
38001C00
31FF8E00
71FFC700
6181C300
E180C380
C180C380
C181C180
C1FF8180
C1FF8180
C181C180
C180C380
E180C300
6180C300
7180C700
3180EE00
3C001C00
1E003800
0781F000
03FFC000
007F0000
ENDCHAR
STARTCHAR 00AF
ENCODING 175
SWIDTH 330 0
DWIDTH 11 0
BBX 9 2 1 21
BITMAP
FF80
FF80
ENDCHAR
STARTCHAR 00B0
ENCODING 176
SWIDTH 390 0
DWIDTH 13 0
BBX 10 10 2 13
BITMAP
1E00
7F00
E380
C180
C0C0
C0C0
C180
E180
7F00
3E00
ENDCHAR
STARTCHAR 00B1
ENCODING 177
SWIDTH 570 0
DWIDTH 19 0
BBX 16 21 2 0
BITMAP
0180
0180
0180
0180
0180
0180
0180
FFFF
FFFF
0180
0180
0180
0180
0180
0180
0180
0000
0000
0000
FFFF
FFFF
ENDCHAR
STARTCHAR 00B2
ENCODING 178
SWIDTH 330 0
DWIDTH 11 0
BBX 11 14 0 10
BITMAP
1F00
3FC0
70C0
60E0
60E0
00C0
01C0
0780
1E00
3800
7000
6000
7FC0
FFC0
ENDCHAR
STARTCHAR 00B3
ENCODING 179
SWIDTH 330 0
DWIDTH 11 0
BBX 10 15 0 9
BITMAP
1F00
3F80
61C0
60C0
60C0
01C0
0F80
0F80
00C0
00C0
C0C0
E0C0
61C0
7F80
1E00
ENDCHAR
STARTCHAR 00B4
ENCODING 180
SWIDTH 330 0
DWIDTH 11 0
BBX 7 5 3 19
BITMAP
1E
3C
38
70
E0
ENDCHAR
STARTCHAR 00B5
ENCODING 181
SWIDTH 570 0
DWIDTH 19 0
BBX 16 25 2 -7
BITMAP
E01C
E01C
E01C
E01C
E01C
E01C
E01C
E01C
E01C
E01C
E01C
E01C
E01C
E03C
F03C
FDFE
FFCF
EF8F
E000
E000
E000
E000
E000
E000
E000
ENDCHAR
STARTCHAR 00B6
ENCODING 182
SWIDTH 540 0
DWIDTH 18 0
BBX 15 30 2 -6
BITMAP
07FE
1FFE
3F98
7F98
FF98
FF98
FF98
FF98
FF98
FF98
FF98
FF98
7F98
3F98
1F98
0798
0398
0398
0398
0398
0398
0398
0398
0398
0398
0398
0398
0398
0398
0398
ENDCHAR
STARTCHAR 00B7
ENCODING 183
SWIDTH 270 0
DWIDTH 9 0
BBX 3 3 4 8
BITMAP
E0
E0
E0
ENDCHAR
STARTCHAR 00B8
ENCODING 184
SWIDTH 330 0
DWIDTH 11 0
BBX 9 7 1 -7
BITMAP
0C00
0800
1F00
0380
0380
E700
3E00
ENDCHAR
STARTCHAR 00B9
ENCODING 185
SWIDTH 330 0
DWIDTH 11 0
BBX 5 15 2 9
BITMAP
08
18
18
F8
F8
18
18
18
18
18
18
18
18
18
18
ENDCHAR
STARTCHAR 00BA
ENCODING 186
SWIDTH 360 0
DWIDTH 12 0
BBX 10 14 1 10
BITMAP
1E00
3F80
6180
60C0
C0C0
C0C0
C0C0
60C0
6180
3F80
1E00
0000
7F80
7F80
ENDCHAR
STARTCHAR 00BB
ENCODING 187
SWIDTH 570 0
DWIDTH 19 0
BBX 12 10 3 5
BITMAP
C100
E1C0
71E0
3870
1830
1830
38F0
71E0
E180
8100
ENDCHAR
STARTCHAR 00BC
ENCODING 188
SWIDTH 840 0
DWIDTH 28 0
BBX 26 24 1 0
BITMAP
08001800
18003000
F8002000
F8006000
1800C000
1800C000
18018000
18030000
18030000
18060300
18060700
180C0700
18180F00
18181B00
00303300
00603300
00606300
00C0C300
00C0FFC0
0180FFC0
03000300
03000300
06000300
0C000000
ENDCHAR
STARTCHAR 00BD
ENCODING 189
SWIDTH 840 0
DWIDTH 28 0
BBX 26 24 1 0
BITMAP
08003000
18006000
F8006000
F800C000
18018000
18018000
18030000
18030000
18060000
180C1E00
180C7F80
181861C0
1810C0C0
1830C0C0
006000C0
00600180
00C00700
01801E00
01803800
03006000
0200E000
0600FFC0
0C00FFC0
0C000000
ENDCHAR
STARTCHAR 00BE
ENCODING 190
SWIDTH 840 0
DWIDTH 28 0
BBX 26 24 1 0
BITMAP
1E000C00
7F801800
61801800
C1C03000
C1C06000
01806000
0F00C000
0F818000
01C18000
00C30000
C0C30300
C0C60700
E18C0F00
7F8C1B00
1E183B00
00303300
00306300
0060C300
0061FFC0
00C1FFC0
01800300
01800300
03000300
06000000
ENDCHAR
STARTCHAR 00BF
ENCODING 191
SWIDTH 600 0
DWIDTH 20 0
BBX 15 25 3 -7
BITMAP
0380
0380
0380
0000
0000
0000
0000
0380
0380
0380
0780
0700
1E00
3C00
3800
7000
7000
E00E
E00E
E00C
F01C
783C
7FF8
3FF0
0FE0
ENDCHAR
STARTCHAR 00C0
ENCODING 192
SWIDTH 660 0
DWIDTH 22 0
BBX 21 31 1 0
BITMAP
038000
01C000
00E000
006000
003000
000000
000000
00F000
00F800
01F800
01F800
01DC00
039C00
039E00
038E00
070E00
070F00
0F0700
0E0700
0E0780
1E0380
1FFF80
1FFFC0
3FFFC0
3801C0
3801E0
7800E0
7000F0
F000F0
E00070
E00078
ENDCHAR
STARTCHAR 00C1
ENCODING 193
SWIDTH 660 0
DWIDTH 22 0
BBX 21 31 1 0
BITMAP
001E00
003C00
003800
007000
00E000
000000
000000
00F000
00F800
01F800
01F800
01DC00
039C00
039E00
038E00
070E00
070F00
0F0700
0E0700
0E0780
1E0380
1FFF80
1FFFC0
3FFFC0
3801C0
3801E0
7800E0
7000F0
F000F0
E00070
E00078
ENDCHAR
STARTCHAR 00C2
ENCODING 194
SWIDTH 660 0
DWIDTH 22 0
BBX 21 31 1 0
BITMAP
00F000
00F800
01D800
038C00
030E00
000000
000000
00F000
00F800
01F800
01F800
01DC00
039C00
039E00
038E00
070E00
070F00
0F0700
0E0700
0E0780
1E0380
1FFF80
1FFFC0
3FFFC0
3801C0
3801E0
7800E0
7000F0
F000F0
E00070
E00078
ENDCHAR
STARTCHAR 00C3
ENCODING 195
SWIDTH 660 0
DWIDTH 22 0
BBX 21 30 1 0
BITMAP
03C600
07FE00
063C00
000000
000000
000000
00F000
00F800
01F800
01F800
01DC00
039C00
039E00
038E00
070E00
070F00
0F0700
0E0700
0E0780
1E0380
1FFF80
1FFFC0
3FFFC0
3801C0
3801E0
7800E0
7000F0
F000F0
E00070
E00078
ENDCHAR
STARTCHAR 00C4
ENCODING 196
SWIDTH 660 0
DWIDTH 22 0
BBX 21 30 1 0
BITMAP
039E00
039E00
039E00
000000
000000
000000
00F000
00F800
01F800
01F800
01DC00
039C00
039E00
038E00
070E00
070F00
0F0700
0E0700
0E0780
1E0380
1FFF80
1FFFC0
3FFFC0
3801C0
3801E0
7800E0
7000F0
F000F0
E00070
E00078
ENDCHAR
STARTCHAR 00C5
ENCODING 197
SWIDTH 660 0
DWIDTH 22 0
BBX 21 31 1 0
BITMAP
00F000
019800
018800
019800
00F000
000000
000000
00F000
00F800
01F800
01F800
01DC00
039C00
039E00
038E00
070E00
070F00
0F0700
0E0700
0E0780
1E0380
1FFF80
1FFFC0
3FFFC0
3801C0
3801E0
7800E0
7000F0
F000F0
E00070
E00078
ENDCHAR
STARTCHAR 00C6
ENCODING 198
SWIDTH 990 0
DWIDTH 33 0
BBX 31 24 1 0
BITMAP
007FFFFC
007FFFFC
00FFFFFC
00E1C000
01E1C000
01C1C000
01C1C000
0381C000
0381C000
0781C000
0701FFF8
0701FFF8
0E01FFF8
0E01C000
1FFFC000
1FFFC000
3FFFC000
3801C000
3801C000
7801C000
7001C000
F001FFFE
E001FFFE
E001FFFE
ENDCHAR
STARTCHAR 00C7
ENCODING 199
SWIDTH 720 0
DWIDTH 24 0
BBX 21 31 2 -7
BITMAP
01FC00
07FF80
0FFFC0
1E03C0
3C01E0
7800E0
700070
F00070
E00000
E00000
E00000
E00000
E00000
E00000
E00000
E00078
E00070
F00070
700070
7800E0
3C01E0
1F03C0
0FFF80
07FF00
00F800
004000
007800
001C00
001C00
03B800
01F000
ENDCHAR
STARTCHAR 00C8
ENCODING 200
SWIDTH 660 0
DWIDTH 22 0
BBX 17 31 3 0
BITMAP
0F0000
078000
038000
01C000
00E000
000000
000000
FFFF80
FFFF80
FFFF80
E00000
E00000
E00000
E00000
E00000
E00000
E00000
FFFF00
FFFF00
FFFF00
E00000
E00000
E00000
E00000
E00000
E00000
E00000
E00000
FFFF80
FFFF80
FFFF80
ENDCHAR
STARTCHAR 00C9
ENCODING 201
SWIDTH 660 0
DWIDTH 22 0
BBX 17 31 3 0
BITMAP
007000
00E000
00C000
018000
030000
000000
000000
FFFF80
FFFF80
FFFF80
E00000
E00000
E00000
E00000
E00000
E00000
E00000
FFFF00
FFFF00
FFFF00
E00000
E00000
E00000
E00000
E00000
E00000
E00000
E00000
FFFF80
FFFF80
FFFF80
ENDCHAR
STARTCHAR 00CA
ENCODING 202
SWIDTH 660 0
DWIDTH 22 0
BBX 17 31 3 0
BITMAP
01C000
03E000
077000
063000
0C1800
000000
000000
FFFF80
FFFF80
FFFF80
E00000
E00000
E00000
E00000
E00000
E00000
E00000
FFFF00
FFFF00
FFFF00
E00000
E00000
E00000
E00000
E00000
E00000
E00000
E00000
FFFF80
FFFF80
FFFF80
ENDCHAR
STARTCHAR 00CB
ENCODING 203
SWIDTH 660 0
DWIDTH 22 0
BBX 17 30 3 0
BITMAP
0E7800
0E7800
0E7800
000000
000000
000000
FFFF80
FFFF80
FFFF80
E00000
E00000
E00000
E00000
E00000
E00000
E00000
FFFF00
FFFF00
FFFF00
E00000
E00000
E00000
E00000
E00000
E00000
E00000
E00000
FFFF80
FFFF80
FFFF80
ENDCHAR
STARTCHAR 00CC
ENCODING 204
SWIDTH 270 0
DWIDTH 9 0
BBX 6 31 1 0
BITMAP
E0
70
30
18
0C
00
00
38
38
38
38
38
38
38
38
38
38
38
38
38
38
38
38
38
38
38
38
38
38
38
38
ENDCHAR
STARTCHAR 00CD
ENCODING 205
SWIDTH 270 0
DWIDTH 9 0
BBX 6 31 3 0
BITMAP
3C
38
70
E0
C0
00
00
E0
E0
E0
E0
E0
E0
E0
E0
E0
E0
E0
E0
E0
E0
E0
E0
E0
E0
E0
E0
E0
E0
E0
E0
ENDCHAR
STARTCHAR 00CE
ENCODING 206
SWIDTH 270 0
DWIDTH 9 0
BBX 9 31 0 0
BITMAP
1E00
3E00
3700
6380
C180
0000
0000
1C00
1C00
1C00
1C00
1C00
1C00
1C00
1C00
1C00
1C00
1C00
1C00
1C00
1C00
1C00
1C00
1C00
1C00
1C00
1C00
1C00
1C00
1C00
1C00
ENDCHAR
STARTCHAR 00CF
ENCODING 207
SWIDTH 270 0
DWIDTH 9 0
BBX 9 30 0 0
BITMAP
F380
F380
F380
0000
0000
0000
1C00
1C00
1C00
1C00
1C00
1C00
1C00
1C00
1C00
1C00
1C00
1C00
1C00
1C00
1C00
1C00
1C00
1C00
1C00
1C00
1C00
1C00
1C00
1C00
ENDCHAR
STARTCHAR 00D0
ENCODING 208
SWIDTH 720 0
DWIDTH 24 0
BBX 21 24 1 0
BITMAP
3FFE00
3FFF80
3FFFC0
3803E0
3800F0
380070
380070
380038
380038
380038
380038
FFE038
FFE038
380038
380038
380038
380038
380070
380070
3800F0
3803E0
3FFFC0
3FFF80
3FFE00
ENDCHAR
STARTCHAR 00D1
ENCODING 209
SWIDTH 720 0
DWIDTH 24 0
BBX 19 30 3 0
BITMAP
078C00
07FC00
0C7800
000000
000000
000000
E000E0
F000E0
F800E0
F800E0
FC00E0
DC00E0
CE00E0
CF00E0
C700E0
C380E0
C3C0E0
C1C0E0
C0E0E0
C0F0E0
C070E0
C078E0
C03CE0
C01CE0
C01EE0
C00FE0
C007E0
C007E0
C003E0
C001E0
ENDCHAR
STARTCHAR 00D2
ENCODING 210
SWIDTH 780 0
DWIDTH 26 0
BBX 24 31 1 0
BITMAP
01E000
00F000
007000
003800
001C00
000000
000000
00FF00
03FFC0
07FFF0
1F00F8
1E007C
3C003C
78001E
70000E
70000E
F0000F
E00007
E00007
E00007
F00007
F0000F
70000E
70000E
78001E
3C003C
1E0078
1F00F8
0FFFE0
03FFC0
00FE00
ENDCHAR
STARTCHAR 00D3
ENCODING 211
SWIDTH 780 0
DWIDTH 26 0
BBX 24 31 1 0
BITMAP
000780
000F00
000E00
001C00
003800
000000
000000
00FF00
03FFC0
07FFF0
1F00F8
1E007C
3C003C
78001E
70000E
70000E
F0000F
E00007
E00007
E00007
F00007
F0000F
70000E
70000E
78001E
3C003C
1E0078
1F00F8
0FFFE0
03FFC0
00FE00
ENDCHAR
STARTCHAR 00D4
ENCODING 212
SWIDTH 780 0
DWIDTH 26 0
BBX 24 31 1 0
BITMAP
003C00
003C00
007E00
00E700
00C300
000000
000000
00FF00
03FFC0
07FFF0
1F00F8
1E007C
3C003C
78001E
70000E
70000E
F0000F
E00007
E00007
E00007
F00007
F0000F
70000E
70000E
78001E
3C003C
1E0078
1F00F8
0FFFE0
03FFC0
00FE00
ENDCHAR
STARTCHAR 00D5
ENCODING 213
SWIDTH 780 0
DWIDTH 26 0
BBX 24 30 1 0
BITMAP
00E180
00F980
019F00
000600
000000
000000
00FF00
03FFC0
07FFF0
1F00F8
1E007C
3C003C
78001E
70000E
70000E
F0000F
E00007
E00007
E00007
F00007
F0000F
70000E
70000E
78001E
3C003C
1E0078
1F00F8
0FFFE0
03FFC0
00FE00
ENDCHAR
STARTCHAR 00D6
ENCODING 214
SWIDTH 780 0
DWIDTH 26 0
BBX 24 30 1 0
BITMAP
00E700
00E700
00E700
000000
000000
000000
00FF00
03FFC0
07FFF0
1F00F8
1E007C
3C003C
78001E
70000E
70000E
F0000F
E00007
E00007
E00007
F00007
F0000F
70000E
70000E
78001E
3C003C
1E0078
1F00F8
0FFFE0
03FFC0
00FE00
ENDCHAR
STARTCHAR 00D7
ENCODING 215
SWIDTH 570 0
DWIDTH 19 0
BBX 13 13 3 1
BITMAP
6010
F038
7870
3CE0
1FC0
0F80
0780
0FC0
1DE0
38F0
7078
E038
4010
ENDCHAR
STARTCHAR 00D8
ENCODING 216
SWIDTH 780 0
DWIDTH 26 0
BBX 24 24 1 0
BITMAP
00FF03
03FFC6
0FFFEC
1F00F8
3C0078
38007C
7800DE
70018E
70030E
F0060E
E00C0F
E0180F
E03007
E0600F
F0C00E
71800E
73000E
7E001E
3C003C
3E0078
3F00F8
6FFFE0
C3FFC0
40FF00
ENDCHAR
STARTCHAR 00D9
ENCODING 217
SWIDTH 720 0
DWIDTH 24 0
BBX 18 31 3 0
BITMAP
070000
038000
01C000
00C000
006000
000000
000000
E001C0
E001C0
E001C0
E001C0
E001C0
E001C0
E001C0
E001C0
E001C0
E001C0
E001C0
E001C0
E001C0
E001C0
E001C0
E001C0
E001C0
E001C0
E001C0
7003C0
7C0780
3FFF00
1FFE00
03F800
ENDCHAR
STARTCHAR 00DA
ENCODING 218
SWIDTH 720 0
DWIDTH 24 0
BBX 18 31 3 0
BITMAP
003800
007000
00E000
00C000
018000
000000
000000
E001C0
E001C0
E001C0
E001C0
E001C0
E001C0
E001C0
E001C0
E001C0
E001C0
E001C0
E001C0
E001C0
E001C0
E001C0
E001C0
E001C0
E001C0
E001C0
7003C0
7C0780
3FFF00
1FFE00
03F800
ENDCHAR
STARTCHAR 00DB
ENCODING 219
SWIDTH 720 0
DWIDTH 24 0
BBX 18 31 3 0
BITMAP
01E000
01F000
03B000
071800
061C00
000000
000000
E001C0
E001C0
E001C0
E001C0
E001C0
E001C0
E001C0
E001C0
E001C0
E001C0
E001C0
E001C0
E001C0
E001C0
E001C0
E001C0
E001C0
E001C0
E001C0
7003C0
7C0780
3FFF00
1FFE00
03F800
ENDCHAR
STARTCHAR 00DC
ENCODING 220
SWIDTH 720 0
DWIDTH 24 0
BBX 18 30 3 0
BITMAP
073C00
073C00
073C00
000000
000000
000000
E001C0
E001C0
E001C0
E001C0
E001C0
E001C0
E001C0
E001C0
E001C0
E001C0
E001C0
E001C0
E001C0
E001C0
E001C0
E001C0
E001C0
E001C0
E001C0
7003C0
7C0780
3FFF00
1FFE00
03F800
ENDCHAR
STARTCHAR 00DD
ENCODING 221
SWIDTH 660 0
DWIDTH 22 0
BBX 21 31 1 0
BITMAP
001C00
003800
003000
006000
00C000
000000
000000
F00078
F000F0
7800E0
3801E0
3C01C0
1E03C0
0E0780
0F0700
070F00
078E00
03DC00
01FC00
01F800
00F800
007000
007000
007000
007000
007000
007000
007000
007000
007000
007000
ENDCHAR
STARTCHAR 00DE
ENCODING 222
SWIDTH 660 0
DWIDTH 22 0
BBX 18 24 3 0
BITMAP
E00000
E00000
E00000
E00000
FFF800
FFFE00
FFFF00
E00F80
E00380
E00380
E003C0
E003C0
E00380
E00780
E00F80
FFFF00
FFFE00
FFF800
E00000
E00000
E00000
E00000
E00000
E00000
ENDCHAR
STARTCHAR 00DF
ENCODING 223
SWIDTH 600 0
DWIDTH 20 0
BBX 16 24 2 0
BITMAP
07E0
1FF8
3FFC
781E
700E
E00E
E00E
E00E
E01E
E038
E1E0
E1FC
E03E
E00F
E007
E003
E003
E003
E007
E007
E01E
E1FE
E1F8
E1E0
ENDCHAR
STARTCHAR 00E0
ENCODING 224
SWIDTH 570 0
DWIDTH 19 0
BBX 17 24 1 0
BITMAP
0F0000
070000
038000
01C000
000000
000000
07F000
1FF800
3FFC00
381E00
700E00
700E00
000E00
007E00
0FFE00
3FCE00
780E00
700E00
E00E00
E01E00
703E00
7DFF00
3FEF80
1F8780
ENDCHAR
STARTCHAR 00E1
ENCODING 225
SWIDTH 570 0
DWIDTH 19 0
BBX 17 24 1 0
BITMAP
007000
00E000
01C000
018000
020000
000000
07F000
1FF800
3FFC00
381E00
700E00
700E00
000E00
007E00
0FFE00
3FCE00
780E00
700E00
E00E00
E01E00
703E00
7DFF00
3FEF80
1F8780
ENDCHAR
STARTCHAR 00E2
ENCODING 226
SWIDTH 570 0
DWIDTH 19 0
BBX 17 24 1 0
BITMAP
03C000
03E000
067000
0C3000
000000
000000
07F000
1FF800
3FFC00
381E00
700E00
700E00
000E00
007E00
0FFE00
3FCE00
780E00
700E00
E00E00
E01E00
703E00
7DFF00
3FEF80
1F8780
ENDCHAR
STARTCHAR 00E3
ENCODING 227
SWIDTH 570 0
DWIDTH 19 0
BBX 17 24 1 0
BITMAP
0F1800
0FF800
19F000
000000
000000
000000
07F000
1FF800
3FFC00
381E00
700E00
700E00
000E00
007E00
0FFE00
3FCE00
780E00
700E00
E00E00
E01E00
703E00
7DFF00
3FEF80
1F8780
ENDCHAR
STARTCHAR 00E4
ENCODING 228
SWIDTH 570 0
DWIDTH 19 0
BBX 17 24 1 0
BITMAP
0E7800
0E7800
0E7800
000000
000000
000000
07F000
1FF800
3FFC00
381E00
700E00
700E00
000E00
007E00
0FFE00
3FCE00
780E00
700E00
E00E00
E01E00
703E00
7DFF00
3FEF80
1F8780
ENDCHAR
STARTCHAR 00E5
ENCODING 229
SWIDTH 570 0
DWIDTH 19 0
BBX 17 25 1 0
BITMAP
01C000
03E000
062000
066000
03C000
000000
000000
07F000
1FF800
3FFC00
381E00
700E00
700E00
000E00
007E00
0FFE00
3FCE00
780E00
700E00
E00E00
E01E00
703E00
7DFF00
3FEF80
1F8780
ENDCHAR
STARTCHAR 00E6
ENCODING 230
SWIDTH 900 0
DWIDTH 30 0
BBX 27 18 1 0
BITMAP
07E07C00
1FF9FF00
3FFFFF80
781F03C0
700E01C0
700E00E0
000E00E0
003C00E0
0FFFFFE0
3FEFFFE0
780C0000
F00C0000
E00E00E0
E01E01C0
F03F03C0
7DF3FF80
3FC1FF00
1F80FC00
ENDCHAR
STARTCHAR 00E7
ENCODING 231
SWIDTH 510 0
DWIDTH 17 0
BBX 15 25 1 -7
BITMAP
07E0
1FF8
3FF8
383C
701C
700E
E000
E000
E000
E000
E000
E000
E00E
700E
701C
383C
3FF8
1FF0
0380
0300
03C0
00E0
00E0
1DC0
0F80
ENDCHAR
STARTCHAR 00E8
ENCODING 232
SWIDTH 570 0
DWIDTH 19 0
BBX 16 24 1 0
BITMAP
0F00
0700
0380
00C0
0000
0000
03E0
0FF8
1FFC
381E
700E
7007
7007
E007
FFFF
FFFF
E000
6000
7007
700E
381E
3FFC
1FF8
07E0
ENDCHAR
STARTCHAR 00E9
ENCODING 233
SWIDTH 570 0
DWIDTH 19 0
BBX 16 24 1 0
BITMAP
0070
00E0
01C0
0180
0000
0000
03E0
0FF8
1FFC
381E
700E
7007
7007
E007
FFFF
FFFF
E000
6000
7007
700E
381E
3FFC
1FF8
07E0
ENDCHAR
STARTCHAR 00EA
ENCODING 234
SWIDTH 570 0
DWIDTH 19 0
BBX 16 24 1 0
BITMAP
01C0
03E0
0770
0E38
0000
0000
03E0
0FF8
1FFC
381E
700E
7007
7007
E007
FFFF
FFFF
E000
6000
7007
700E
381E
3FFC
1FF8
07E0
ENDCHAR
STARTCHAR 00EB
ENCODING 235
SWIDTH 570 0
DWIDTH 19 0
BBX 16 24 1 0
BITMAP
0F78
0F78
0F78
0000
0000
0000
03E0
0FF8
1FFC
381E
700E
7007
7007
E007
FFFF
FFFF
E000
6000
7007
700E
381E
3FFC
1FF8
07E0
ENDCHAR
STARTCHAR 00EC
ENCODING 236
SWIDTH 270 0
DWIDTH 9 0
BBX 6 24 0 0
BITMAP
F0
38
1C
0C
00
00
1C
1C
1C
1C
1C
1C
1C
1C
1C
1C
1C
1C
1C
1C
1C
1C
1C
1C
ENDCHAR
STARTCHAR 00ED
ENCODING 237
SWIDTH 270 0
DWIDTH 9 0
BBX 6 24 3 0
BITMAP
3C
70
E0
C0
00
00
E0
E0
E0
E0
E0
E0
E0
E0
E0
E0
E0
E0
E0
E0
E0
E0
E0
E0
ENDCHAR
STARTCHAR 00EE
ENCODING 238
SWIDTH 270 0
DWIDTH 9 0
BBX 9 24 0 0
BITMAP
1E00
3E00
7700
E380
0000
0000
1C00
1C00
1C00
1C00
1C00
1C00
1C00
1C00
1C00
1C00
1C00
1C00
1C00
1C00
1C00
1C00
1C00
1C00
ENDCHAR
STARTCHAR 00EF
ENCODING 239
SWIDTH 270 0
DWIDTH 9 0
BBX 9 24 0 0
BITMAP
F780
F780
F780
0000
0000
0000
1C00
1C00
1C00
1C00
1C00
1C00
1C00
1C00
1C00
1C00
1C00
1C00
1C00
1C00
1C00
1C00
1C00
1C00
ENDCHAR
STARTCHAR 00F0
ENCODING 240
SWIDTH 570 0
DWIDTH 19 0
BBX 16 25 1 0
BITMAP
1800
3CE0
0FC0
0F80
3FC0
10E0
0070
07F8
1FFC
3FFC
781E
700E
700F
E007
E007
E007
E007
E007
E007
7007
700E
781E
3FFC
1FF8
07E0
ENDCHAR
STARTCHAR 00F1
ENCODING 241
SWIDTH 570 0
DWIDTH 19 0
BBX 14 24 2 0
BITMAP
0E30
1FF0
3BF0
0000
0000
0000
E7E0
EFF8
FFFC
F81C
F01C
F01C
E01C
E01C
E01C
E01C
E01C
E01C
E01C
E01C
E01C
E01C
E01C
E01C
ENDCHAR
STARTCHAR 00F2
ENCODING 242
SWIDTH 570 0
DWIDTH 19 0
BBX 16 24 1 0
BITMAP
0F00
0700
0380
01C0
0000
0000
07E0
1FF8
3FFC
381E
700E
700F
E007
E007
E007
E007
E007
E007
7007
700E
781E
3FFC
1FF8
07E0
ENDCHAR
STARTCHAR 00F3
ENCODING 243
SWIDTH 570 0
DWIDTH 19 0
BBX 16 24 1 0
BITMAP
0070
00E0
01C0
0380
0000
0000
07E0
1FF8
3FFC
381E
700E
700F
E007
E007
E007
E007
E007
E007
7007
700E
781E
3FFC
1FF8
07E0
ENDCHAR
STARTCHAR 00F4
ENCODING 244
SWIDTH 570 0
DWIDTH 19 0
BBX 16 24 1 0
BITMAP
03C0
07E0
0660
0C30
0000
0000
07E0
1FF8
3FFC
381E
700E
700F
E007
E007
E007
E007
E007
E007
7007
700E
781E
3FFC
1FF8
07E0
ENDCHAR
STARTCHAR 00F5
ENCODING 245
SWIDTH 570 0
DWIDTH 19 0
BBX 16 24 1 0
BITMAP
0F18
0FF8
19F8
0000
0000
0000
07E0
1FF8
3FFC
381E
700E
700F
E007
E007
E007
E007
E007
E007
7007
700E
781E
3FFC
1FF8
07E0
ENDCHAR
STARTCHAR 00F6
ENCODING 246
SWIDTH 570 0
DWIDTH 19 0
BBX 16 24 1 0
BITMAP
0E78
0E78
0E78
0000
0000
0000
07E0
1FF8
3FFC
381E
700E
700F
E007
E007
E007
E007
E007
E007
7007
700E
781E
3FFC
1FF8
07E0
ENDCHAR
STARTCHAR 00F7
ENCODING 247
SWIDTH 570 0
DWIDTH 19 0
BBX 16 15 2 0
BITMAP
0380
0380
0380
0000
0000
0000
FFFF
FFFF
0000
0000
0000
0000
0380
0380
0380
ENDCHAR
STARTCHAR 00F8
ENCODING 248
SWIDTH 600 0
DWIDTH 20 0
BBX 16 18 1 0
BITMAP
07E1
1FFB
3FFE
381E
701E
701F
E027
E067
E0C7
E187
E307
E607
7C07
780E
381E
7FFC
DFF8
87E0
ENDCHAR
STARTCHAR 00F9
ENCODING 249
SWIDTH 570 0
DWIDTH 19 0
BBX 14 24 2 -1
BITMAP
1C00
0E00
0700
0300
0180
0000
E01C
E01C
E01C
E01C
E01C
E01C
E01C
E01C
E01C
E01C
E01C
E01C
E01C
E03C
F03C
7DFC
7FEC
1FCC
ENDCHAR
STARTCHAR 00FA
ENCODING 250
SWIDTH 570 0
DWIDTH 19 0
BBX 14 24 2 -1
BITMAP
00E0
01C0
0380
0300
0600
0000
E01C
E01C
E01C
E01C
E01C
E01C
E01C
E01C
E01C
E01C
E01C
E01C
E01C
E03C
F03C
7DFC
7FEC
1FCC
ENDCHAR
STARTCHAR 00FB
ENCODING 251
SWIDTH 570 0
DWIDTH 19 0
BBX 14 24 2 -1
BITMAP
0780
07C0
0EC0
1C60
1870
0000
E01C
E01C
E01C
E01C
E01C
E01C
E01C
E01C
E01C
E01C
E01C
E01C
E01C
E03C
F03C
7DFC
7FEC
1FCC
ENDCHAR
STARTCHAR 00FC
ENCODING 252
SWIDTH 570 0
DWIDTH 19 0
BBX 14 24 2 -1
BITMAP
1CF0
1CF0
1CF0
0000
0000
0000
E01C
E01C
E01C
E01C
E01C
E01C
E01C
E01C
E01C
E01C
E01C
E01C
E01C
E03C
F03C
7DFC
7FEC
1FCC
ENDCHAR
STARTCHAR 00FD
ENCODING 253
SWIDTH 510 0
DWIDTH 17 0
BBX 15 31 1 -7
BITMAP
00E0
01C0
0380
0700
0000
0000
E00E
E01C
E01C
701C
7038
7038
3838
3870
3870
1C60
1CE0
1CE0
0EC0
0FC0
0FC0
0780
0780
0780
0700
0700
0E00
0E00
7E00
7C00
7800
ENDCHAR
STARTCHAR 00FE
ENCODING 254
SWIDTH 570 0
DWIDTH 19 0
BBX 15 30 2 -6
BITMAP
E000
E000
E000
E000
E000
E000
E7E0
EFF0
FFF8
F83C
F01E
E00E
E00E
E00E
E00E
E00E
E00E
E00E
E00E
F01E
F83C
FFF8
EFF0
E7E0
E000
E000
E000
E000
E000
E000
ENDCHAR
STARTCHAR 00FF
ENCODING 255
SWIDTH 510 0
DWIDTH 17 0
BBX 15 31 1 -7
BITMAP
1CF0
1CF0
1CF0
0000
0000
0000
E00E
E01C
E01C
701C
7038
7038
3838
3870
3870
1C60
1CE0
1CE0
0EC0
0FC0
0FC0
0780
0780
0780
0700
0700
0E00
0E00
7E00
7C00
7800
ENDCHAR
STARTCHAR 0100
ENCODING 256
SWIDTH 660 0
DWIDTH 22 0
BBX 21 30 1 0
BITMAP
03FE00
03FE00
000000
000000
000000
000000
00F000
00F800
01F800
01F800
01DC00
039C00
039E00
038E00
070E00
070F00
0F0700
0E0700
0E0780
1E0380
1FFF80
1FFFC0
3FFFC0
3801C0
3801E0
7800E0
7000F0
F000F0
E00070
E00078
ENDCHAR
STARTCHAR 0101
ENCODING 257
SWIDTH 570 0
DWIDTH 19 0
BBX 17 23 1 0
BITMAP
0FF800
0FF800
000000
000000
000000
07F000
1FF800
3FFC00
381E00
700E00
700E00
000E00
007E00
0FFE00
3FCE00
780E00
700E00
E00E00
E01E00
703E00
7DFF00
3FEF80
1F8780
ENDCHAR
STARTCHAR 0102
ENCODING 258
SWIDTH 660 0
DWIDTH 22 0
BBX 21 30 1 0
BITMAP
060600
078E00
03FC00
00F800
000000
000000
00F000
00F800
01F800
01F800
01DC00
039C00
039E00
038E00
070E00
070F00
0F0700
0E0700
0E0780
1E0380
1FFF80
1FFFC0
3FFFC0
3801C0
3801E0
7800E0
7000F0
F000F0
E00070
E00078
ENDCHAR
STARTCHAR 0103
ENCODING 259
SWIDTH 570 0
DWIDTH 19 0
BBX 17 24 1 0
BITMAP
181800
1C3800
0FF000
07E000
000000
000000
07F000
1FF800
3FFC00
381E00
700E00
700E00
000E00
007E00
0FFE00
3FCE00
780E00
700E00
E00E00
E01E00
703E00
7DFF00
3FEF80
1F8780
ENDCHAR
STARTCHAR 0104
ENCODING 260
SWIDTH 660 0
DWIDTH 22 0
BBX 22 31 1 -7
BITMAP
00F000
00F800
01F800
01F800
01DC00
039C00
039E00
038E00
070E00
070F00
0F0700
0E0700
0E0780
1E0380
1FFF80
1FFFC0
3FFFC0
3801C0
3801E0
7800E0
7000F0
F000F0
E00070
E00078
000030
0000E0
0001C0
0001C0
0001C0
0000FC
00007C
ENDCHAR
STARTCHAR 0105
ENCODING 261
SWIDTH 570 0
DWIDTH 19 0
BBX 19 24 1 -6
BITMAP
07F000
1FFC00
3FFC00
381E00
700E00
700E00
000E00
007E00
0FFE00
3FCE00
780E00
700E00
E00E00
E01E00
703E00
7DFF00
3FEF80
1F8780
000600
000E00
000C00
000E00
000FE0
0003E0
ENDCHAR
STARTCHAR 0106
ENCODING 262
SWIDTH 720 0
DWIDTH 24 0
BBX 20 31 2 0
BITMAP
001E00
001C00
003800
003000
006000
000000
000000
01FC00
07FF80
0FFFC0
1E03E0
3801E0
7800F0
700070
E00070
E00000
E00000
E00000
E00000
E00000
E00000
E00000
E00070
F00070
700070
7800F0
3C01E0
3E03E0
1FFFC0
07FF00
01FC00
ENDCHAR
STARTCHAR 0107
ENCODING 263
SWIDTH 510 0
DWIDTH 17 0
BBX 15 24 1 0
BITMAP
0070
00E0
01C0
0380
0000
0000
07E0
1FF8
3FF8
381C
701C
700E
E000
E000
E000
E000
E000
E00E
F00E
701E
781C
3FF8
1FF0
07E0
ENDCHAR
STARTCHAR 0108
ENCODING 264
SWIDTH 720 0
DWIDTH 24 0
BBX 20 31 2 0
BITMAP
007000
00F800
01D800
018C00
038E00
000000
000000
01FC00
07FF80
0FFFC0
1E03E0
3801E0
7800F0
700070
E00070
E00000
E00000
E00000
E00000
E00000
E00000
E00000
E00070
F00070
700070
7800F0
3C01E0
3E03E0
1FFFC0
07FF00
01FC00
ENDCHAR
STARTCHAR 0109
ENCODING 265
SWIDTH 510 0
DWIDTH 17 0
BBX 15 24 1 0
BITMAP
03C0
07E0
0660
0C30
0000
0000
07E0
1FF8
3FF8
381C
701C
700E
E000
E000
E000
E000
E000
E00E
F00E
701E
781C
3FF8
1FF0
07E0
ENDCHAR
STARTCHAR 010A
ENCODING 266
SWIDTH 720 0
DWIDTH 24 0
BBX 20 30 2 0
BITMAP
007000
007000
007000
000000
000000
000000
01FC00
07FF80
0FFFC0
1E03E0
3801E0
7800F0
700070
E00070
E00000
E00000
E00000
E00000
E00000
E00000
E00000
E00070
F00070
700070
7800F0
3C01E0
3E03E0
1FFFC0
07FF00
01FC00
ENDCHAR
STARTCHAR 010B
ENCODING 267
SWIDTH 510 0
DWIDTH 17 0
BBX 15 24 1 0
BITMAP
03C0
03C0
03C0
0000
0000
0000
07E0
1FF8
3FF8
381C
701C
700E
E000
E000
E000
E000
E000
E00E
F00E
701E
781C
3FF8
1FF0
07E0
ENDCHAR
STARTCHAR 010C
ENCODING 268
SWIDTH 720 0
DWIDTH 24 0
BBX 20 31 2 0
BITMAP
030600
018E00
01CC00
00F800
007800
000000
000000
01FC00
07FF80
0FFFC0
1E03E0
3801E0
7800F0
700070
E00070
E00000
E00000
E00000
E00000
E00000
E00000
E00000
E00070
F00070
700070
7800F0
3C01E0
3E03E0
1FFFC0
07FF00
01FC00
ENDCHAR
STARTCHAR 010D
ENCODING 269
SWIDTH 510 0
DWIDTH 17 0
BBX 15 24 1 0
BITMAP
1C30
0E70
06E0
03C0
0000
0000
07E0
1FF8
3FF8
381C
701C
700E
E000
E000
E000
E000
E000
E00E
F00E
701E
781C
3FF8
1FF0
07E0
ENDCHAR
STARTCHAR 010E
ENCODING 270
SWIDTH 720 0
DWIDTH 24 0
BBX 19 31 3 0
BITMAP
0C3800
0E3000
076000
03E000
03C000
000000
000000
FFF800
FFFE00
FFFF00
E00F80
E003C0
E001C0
E001C0
E000E0
E000E0
E000E0
E000E0
E000E0
E000E0
E000E0
E000E0
E000E0
E000E0
E001C0
E001C0
E00380
E00F80
FFFF00
FFFE00
FFF000
ENDCHAR
STARTCHAR 010F
ENCODING 271
SWIDTH 630 0
DWIDTH 21 0
BBX 21 24 1 0
BITMAP
000678
000678
000678
000618
000610
000630
07C660
1FF600
3FFE00
783E00
701E00
F00E00
E00E00
E00600
E00600
E00600
E00600
E00600
F00E00
700E00
781E00
3FFE00
1FF600
07C600
ENDCHAR
STARTCHAR 0110
ENCODING 272
SWIDTH 720 0
DWIDTH 24 0
BBX 21 24 1 0
BITMAP
3FFE00
3FFF80
3FFFC0
3803E0
3800F0
380070
380070
380038
380038
380038
380038
FFE038
FFE038
380038
380038
380038
380038
380070
380070
3800F0
3803E0
3FFFC0
3FFF80
3FFE00
ENDCHAR
STARTCHAR 0111
ENCODING 273
SWIDTH 570 0
DWIDTH 19 0
BBX 18 24 1 0
BITMAP
000600
000600
00FFC0
00FFC0
000600
000600
07C600
1FF600
3FFE00
783E00
701E00
F00E00
E00E00
E00600
E00600
E00600
E00600
E00E00
F00E00
701E00
783E00
3FFE00
1FF600
07C600
ENDCHAR
STARTCHAR 0112
ENCODING 274
SWIDTH 660 0
DWIDTH 22 0
BBX 17 30 3 0
BITMAP
0FF800
0FF800
000000
000000
000000
000000
FFFF80
FFFF80
FFFF80
E00000
E00000
E00000
E00000
E00000
E00000
E00000
FFFF00
FFFF00
FFFF00
E00000
E00000
E00000
E00000
E00000
E00000
E00000
E00000
FFFF80
FFFF80
FFFF80
ENDCHAR
STARTCHAR 0113
ENCODING 275
SWIDTH 570 0
DWIDTH 19 0
BBX 16 23 1 0
BITMAP
0FF8
0FF8
0000
0000
0000
03E0
0FF8
1FFC
381E
700E
7007
7007
E007
FFFF
FFFF
E000
6000
7007
700E
381E
3FFC
1FF8
07E0
ENDCHAR
STARTCHAR 0114
ENCODING 276
SWIDTH 660 0
DWIDTH 22 0
BBX 17 30 3 0
BITMAP
0C1800
0E3800
0FF000
03E000
000000
000000
FFFF80
FFFF80
FFFF80
E00000
E00000
E00000
E00000
E00000
E00000
E00000
FFFF00
FFFF00
FFFF00
E00000
E00000
E00000
E00000
E00000
E00000
E00000
E00000
FFFF80
FFFF80
FFFF80
ENDCHAR
STARTCHAR 0115
ENCODING 277
SWIDTH 570 0
DWIDTH 19 0
BBX 16 24 1 0
BITMAP
0C0C
0C18
0FF8
07F0
0000
0000
03E0
0FF8
1FFC
381E
700E
7007
7007
E007
FFFF
FFFF
E000
6000
7007
700E
381E
3FFC
1FF8
07E0
ENDCHAR
STARTCHAR 0116
ENCODING 278
SWIDTH 660 0
DWIDTH 22 0
BBX 17 30 3 0
BITMAP
01C000
01C000
01C000
000000
000000
000000
FFFF80
FFFF80
FFFF80
E00000
E00000
E00000
E00000
E00000
E00000
E00000
FFFF00
FFFF00
FFFF00
E00000
E00000
E00000
E00000
E00000
E00000
E00000
E00000
FFFF80
FFFF80
FFFF80
ENDCHAR
STARTCHAR 0117
ENCODING 279
SWIDTH 570 0
DWIDTH 19 0
BBX 16 24 1 0
BITMAP
01C0
01C0
01C0
0000
0000
0000
03E0
0FF8
1FFC
381E
700E
7007
7007
E007
FFFF
FFFF
E000
6000
7007
700E
381E
3FFC
1FF8
07E0
ENDCHAR
STARTCHAR 0118
ENCODING 280
SWIDTH 660 0
DWIDTH 22 0
BBX 19 31 3 -7
BITMAP
FFFF80
FFFF80
FFFF80
E00000
E00000
E00000
E00000
E00000
E00000
E00000
FFFF00
FFFF00
FFFF00
E00000
E00000
E00000
E00000
E00000
E00000
E00000
E00000
FFFF80
FFFF80
FFFF80
000300
000600
000E00
000C00
000C00
000FE0
0003E0
ENDCHAR
STARTCHAR 0119
ENCODING 281
SWIDTH 570 0
DWIDTH 19 0
BBX 16 24 1 -6
BITMAP
03E0
0FF8
1FFC
381E
700E
7007
7007
E007
FFFF
FFFF
E000
6000
7007
700E
381E
3FFC
1FF8
07F0
0030
0060
00E0
00E0
007E
003E
ENDCHAR
STARTCHAR 011A
ENCODING 282
SWIDTH 660 0
DWIDTH 22 0
BBX 17 31 3 0
BITMAP
0C1800
063000
077000
03E000
01C000
000000
000000
FFFF80
FFFF80
FFFF80
E00000
E00000
E00000
E00000
E00000
E00000
E00000
FFFF00
FFFF00
FFFF00
E00000
E00000
E00000
E00000
E00000
E00000
E00000
E00000
FFFF80
FFFF80
FFFF80
ENDCHAR
STARTCHAR 011B
ENCODING 283
SWIDTH 570 0
DWIDTH 19 0
BBX 16 24 1 0
BITMAP
0C18
0630
0370
03E0
0000
0000
03E0
0FF8
1FFC
381E
700E
7007
7007
E007
FFFF
FFFF
E000
6000
7007
700E
381E
3FFC
1FF8
07E0
ENDCHAR
STARTCHAR 011C
ENCODING 284
SWIDTH 780 0
DWIDTH 26 0
BBX 23 31 1 0
BITMAP
003C00
003C00
007E00
00E600
00C300
000000
000000
007F00
03FFC0
07FFF0
0F00F8
1E0078
3C003C
38001C
700000
700000
700000
700000
F00FFE
F00FFE
700FFE
70000E
70000E
78000E
38001E
3C001E
1E003E
1F00FE
0FFFEE
03FF8E
00FE00
ENDCHAR
STARTCHAR 011D
ENCODING 285
SWIDTH 570 0
DWIDTH 19 0
BBX 15 30 1 -6
BITMAP
03C0
07E0
0670
0C30
0000
0000
07CE
1FEE
3FFE
383E
701E
700E
E00E
E00E
E00E
E00E
E00E
E00E
700E
701E
383E
3FFE
1FEE
078E
000E
700E
701C
783C
3FF8
0FE0
ENDCHAR
STARTCHAR 011E
ENCODING 286
SWIDTH 780 0
DWIDTH 26 0
BBX 23 30 1 0
BITMAP
018180
00C380
00FF00
007E00
000000
000000
007F00
03FFC0
07FFF0
0F00F8
1E0078
3C003C
38001C
700000
700000
700000
700000
F00FFE
F00FFE
700FFE
70000E
70000E
78000E
38001E
3C001E
1E003E
1F00FE
0FFFEE
03FF8E
00FE00
ENDCHAR
STARTCHAR 011F
ENCODING 287
SWIDTH 570 0
DWIDTH 19 0
BBX 15 30 1 -6
BITMAP
1818
1C38
0FF0
07E0
0000
0000
07CE
1FEE
3FFE
383E
701E
700E
E00E
E00E
E00E
E00E
E00E
E00E
700E
701E
383E
3FFE
1FEE
078E
000E
700E
701C
783C
3FF8
0FE0
ENDCHAR
STARTCHAR 0120
ENCODING 288
SWIDTH 780 0
DWIDTH 26 0
BBX 23 30 1 0
BITMAP
003C00
003C00
003C00
000000
000000
000000
007F00
03FFC0
07FFF0
0F00F8
1E0078
3C003C
38001C
700000
700000
700000
700000
F00FFE
F00FFE
700FFE
70000E
70000E
78000E
38001E
3C001E
1E003E
1F00FE
0FFFEE
03FF8E
00FE00
ENDCHAR
STARTCHAR 0121
ENCODING 289
SWIDTH 570 0
DWIDTH 19 0
BBX 15 30 1 -6
BITMAP
03C0
03C0
03C0
0000
0000
0000
07CE
1FEE
3FFE
383E
701E
700E
E00E
E00E
E00E
E00E
E00E
E00E
700E
701E
383E
3FFE
1FEE
078E
000E
700E
701C
783C
3FF8
0FE0
ENDCHAR
STARTCHAR 0122
ENCODING 290
SWIDTH 780 0
DWIDTH 26 0
BBX 23 32 1 -9
BITMAP
007F00
03FFC0
07FFF0
0F00F8
1E0078
3C003C
38001C
700000
700000
700000
700000
F00FFE
F00FFE
700FFE
70000E
70000E
78000E
38001E
3C001E
1E003E
1F00FE
0FFFEE
03FF8E
00FE00
000000
003C00
003C00
003C00
000C00
000800
000800
003800
ENDCHAR
STARTCHAR 0123
ENCODING 291
SWIDTH 570 0
DWIDTH 19 0
BBX 15 33 1 -6
BITMAP
0080
0100
0300
0300
0380
0380
0380
0000
0000
07CE
1FEE
3FFE
383E
701E
700E
E00E
E00E
E00E
E00E
E00E
E00E
700E
701E
383E
3FFE
1FEE
078E
000E
700E
701C
783C
3FF8
0FE0
ENDCHAR
STARTCHAR 0124
ENCODING 292
SWIDTH 720 0
DWIDTH 24 0
BBX 18 31 3 0
BITMAP
01E000
01F000
03B800
031800
060C00
000000
000000
E001C0
E001C0
E001C0
E001C0
E001C0
E001C0
E001C0
E001C0
E001C0
E001C0
FFFFC0
FFFFC0
FFFFC0
E001C0
E001C0
E001C0
E001C0
E001C0
E001C0
E001C0
E001C0
E001C0
E001C0
E001C0
ENDCHAR
STARTCHAR 0125
ENCODING 293
SWIDTH 570 0
DWIDTH 19 0
BBX 17 31 -1 0
BITMAP
1E0000
3E0000
370000
638000
E18000
000000
000000
1C0000
1C0000
1C0000
1C0000
1C0000
1C0000
1C7C00
1DFF00
1FFF80
1F0380
1E0380
1E0380
1C0380
1C0380
1C0380
1C0380
1C0380
1C0380
1C0380
1C0380
1C0380
1C0380
1C0380
1C0380
ENDCHAR
STARTCHAR 0126
ENCODING 294
SWIDTH 720 0
DWIDTH 24 0
BBX 24 24 0 0
BITMAP
1C0038
1C0038
1C0038
1C0038
1C0038
FFFFFF
FFFFFF
1C0038
1C0038
1C0038
1FFFF8
1FFFF8
1FFFF8
1C0038
1C0038
1C0038
1C0038
1C0038
1C0038
1C0038
1C0038
1C0038
1C0038
1C0038
ENDCHAR
STARTCHAR 0127
ENCODING 295
SWIDTH 570 0
DWIDTH 19 0
BBX 16 24 0 0
BITMAP
3800
3800
FFF0
FFF0
3800
3800
38F8
3BFE
3FFF
3E07
3C07
3C07
3807
3807
3807
3807
3807
3807
3807
3807
3807
3807
3807
3807
ENDCHAR
STARTCHAR 0128
ENCODING 296
SWIDTH 270 0
DWIDTH 9 0
BBX 11 30 -1 0
BITMAP
7CE0
7FC0
C7C0
0000
0000
0000
0E00
0E00
0E00
0E00
0E00
0E00
0E00
0E00
0E00
0E00
0E00
0E00
0E00
0E00
0E00
0E00
0E00
0E00
0E00
0E00
0E00
0E00
0E00
0E00
ENDCHAR
STARTCHAR 0129
ENCODING 297
SWIDTH 270 0
DWIDTH 9 0
BBX 11 24 -1 0
BITMAP
3CE0
7FC0
EFC0
0000
0000
0000
0E00
0E00
0E00
0E00
0E00
0E00
0E00
0E00
0E00
0E00
0E00
0E00
0E00
0E00
0E00
0E00
0E00
0E00
ENDCHAR
STARTCHAR 012A
ENCODING 298
SWIDTH 270 0
DWIDTH 9 0
BBX 8 30 1 0
BITMAP
FF
FF
00
00
00
00
38
38
38
38
38
38
38
38
38
38
38
38
38
38
38
38
38
38
38
38
38
38
38
38
ENDCHAR
STARTCHAR 012B
ENCODING 299
SWIDTH 270 0
DWIDTH 9 0
BBX 9 24 0 0
BITMAP
FF80
FF80
0000
0000
0000
0000
1C00
1C00
1C00
1C00
1C00
1C00
1C00
1C00
1C00
1C00
1C00
1C00
1C00
1C00
1C00
1C00
1C00
1C00
ENDCHAR
STARTCHAR 012C
ENCODING 300
SWIDTH 270 0
DWIDTH 9 0
BBX 10 30 0 0
BITMAP
C1C0
E380
7F80
3E00
0000
0000
1C00
1C00
1C00
1C00
1C00
1C00
1C00
1C00
1C00
1C00
1C00
1C00
1C00
1C00
1C00
1C00
1C00
1C00
1C00
1C00
1C00
1C00
1C00
1C00
ENDCHAR
STARTCHAR 012D
ENCODING 301
SWIDTH 270 0
DWIDTH 9 0
BBX 10 24 0 0
BITMAP
C0C0
F380
7F80
3E00
0000
0000
1C00
1C00
1C00
1C00
1C00
1C00
1C00
1C00
1C00
1C00
1C00
1C00
1C00
1C00
1C00
1C00
1C00
1C00
ENDCHAR
STARTCHAR 012E
ENCODING 302
SWIDTH 270 0
DWIDTH 9 0
BBX 6 31 2 -7
BITMAP
70
70
70
70
70
70
70
70
70
70
70
70
70
70
70
70
70
70
70
70
70
70
70
70
30
60
60
E0
E0
7C
3C
ENDCHAR
STARTCHAR 012F
ENCODING 303
SWIDTH 210 0
DWIDTH 7 0
BBX 5 31 1 -7
BITMAP
70
70
70
70
00
00
70
70
70
70
70
70
70
70
70
70
70
70
70
70
70
70
70
70
30
60
C0
C0
C0
F8
78
ENDCHAR
STARTCHAR 0130
ENCODING 304
SWIDTH 270 0
DWIDTH 9 0
BBX 4 30 3 0
BITMAP
F0
F0
F0
00
00
00
E0
E0
E0
E0
E0
E0
E0
E0
E0
E0
E0
E0
E0
E0
E0
E0
E0
E0
E0
E0
E0
E0
E0
E0
ENDCHAR
STARTCHAR 0131
ENCODING 305
SWIDTH 270 0
DWIDTH 9 0
BBX 3 18 3 0
BITMAP
E0
E0
E0
E0
E0
E0
E0
E0
E0
E0
E0
E0
E0
E0
E0
E0
E0
E0
ENDCHAR
STARTCHAR 0132
ENCODING 306
SWIDTH 750 0
DWIDTH 25 0
BBX 19 24 3 0
BITMAP
F000E0
F000E0
F000E0
F000E0
F000E0
F000E0
F000E0
F000E0
F000E0
F000E0
F000E0
F000E0
F000E0
F000E0
F000E0
F000E0
F700E0
F700E0
F780E0
F780E0
F3C1C0
F3FFC0
F1FF80
F07E00
ENDCHAR
STARTCHAR 0133
ENCODING 307
SWIDTH 450 0
DWIDTH 15 0
BBX 9 31 3 -7
BITMAP
E380
E380
E380
E380
0000
0000
E380
E380
E380
E380
E380
E380
E380
E380
E380
E380
E380
E380
E380
E380
E380
E380
E380
E380
0380
0380
0380
0380
0380
1F80
1F00
ENDCHAR
STARTCHAR 0134
ENCODING 308
SWIDTH 510 0
DWIDTH 17 0
BBX 16 31 1 0
BITMAP
0078
007C
00EC
01C6
0187
0000
0000
0038
0038
0038
0038
0038
0038
0038
0038
0038
0038
0038
0038
0038
0038
0038
0038
E038
E038
E038
E038
F078
7FF0
3FE0
1F80
ENDCHAR
STARTCHAR 0135
ENCODING 309
SWIDTH 210 0
DWIDTH 7 0
BBX 9 31 -1 -7
BITMAP
1E00
3E00
7700
E180
0000
0000
1C00
1C00
1C00
1C00
1C00
1C00
1C00
1C00
1C00
1C00
1C00
1C00
1C00
1C00
1C00
1C00
1C00
1C00
1C00
1C00
1C00
1C00
1C00
FC00
F800
ENDCHAR
STARTCHAR 0136
ENCODING 310
SWIDTH 660 0
DWIDTH 22 0
BBX 19 33 3 -10
BITMAP
E003C0
E00780
E00F00
E01E00
E03C00
E07800
E0F000
E1E000
E3C000
E78000
EF8000
FFC000
FDE000
F8F000
F07000
E07800
E03C00
E01C00
E01E00
E00F00
E00700
E00380
E003C0
E001E0
000000
000000
01C000
01C000
01C000
004000
004000
00C000
018000
ENDCHAR
STARTCHAR 0137
ENCODING 311
SWIDTH 510 0
DWIDTH 17 0
BBX 14 33 2 -10
BITMAP
E000
E000
E000
E000
E000
E000
E038
E070
E0E0
E1C0
E380
E700
EF00
FF00
FB80
F3C0
E1C0
E1E0
E0E0
E070
E078
E038
E03C
E01C
0000
0000
0780
0780
0780
0180
0100
0100
0700
ENDCHAR
STARTCHAR 0138
ENCODING 312
SWIDTH 510 0
DWIDTH 17 0
BBX 14 17 1 0
BITMAP
E018
E030
E060
E0C0
E180
E300
E600
EE00
FF00
F380
E180
E1C0
E0E0
E060
E030
E038
E01C
ENDCHAR
STARTCHAR 0139
ENCODING 313
SWIDTH 570 0
DWIDTH 19 0
BBX 15 31 3 0
BITMAP
3C00
3800
7000
E000
C000
0000
0000
E000
E000
E000
E000
E000
E000
E000
E000
E000
E000
E000
E000
E000
E000
E000
E000
E000
E000
E000
E000
E000
FFFE
FFFE
FFFE
ENDCHAR
STARTCHAR 013A
ENCODING 314
SWIDTH 210 0
DWIDTH 7 0
BBX 7 31 2 0
BITMAP
1E
3C
38
70
E0
00
00
E0
E0
E0
E0
E0
E0
E0
E0
E0
E0
E0
E0
E0
E0
E0
E0
E0
E0
E0
E0
E0
E0
E0
E0
ENDCHAR
STARTCHAR 013B
ENCODING 315
SWIDTH 570 0
DWIDTH 19 0
BBX 15 33 3 -10
BITMAP
E000
E000
E000
E000
E000
E000
E000
E000
E000
E000
E000
E000
E000
E000
E000
E000
E000
E000
E000
E000
E000
FFFE
FFFE
FFFE
0000
0000
0380
0380
0380
0180
0180
0180
0300
ENDCHAR
STARTCHAR 013C
ENCODING 316
SWIDTH 210 0
DWIDTH 7 0
BBX 3 33 2 -10
BITMAP
E0
E0
E0
E0
E0
E0
E0
E0
E0
E0
E0
E0
E0
E0
E0
E0
E0
E0
E0
E0
E0
E0
E0
E0
00
00
E0
E0
E0
20
20
60
C0
ENDCHAR
STARTCHAR 013D
ENCODING 317
SWIDTH 570 0
DWIDTH 19 0
BBX 15 24 3 0
BITMAP
E380
E380
E380
E080
E080
E180
E300
E000
E000
E000
E000
E000
E000
E000
E000
E000
E000
E000
E000
E000
E000
FFFE
FFFE
FFFE
ENDCHAR
STARTCHAR 013E
ENCODING 318
SWIDTH 300 0
DWIDTH 10 0
BBX 8 24 2 0
BITMAP
E7
E7
E7
E1
E1
E3
E6
E0
E0
E0
E0
E0
E0
E0
E0
E0
E0
E0
E0
E0
E0
E0
E0
E0
ENDCHAR
STARTCHAR 013F
ENCODING 319
SWIDTH 570 0
DWIDTH 19 0
BBX 15 24 3 0
BITMAP
E000
E000
E000
E000
E000
E000
E000
E000
E000
E000
E000
E0F0
E0F0
E0F0
E000
E000
E000
E000
E000
E000
E000
FFFE
FFFE
FFFE
ENDCHAR
STARTCHAR 0140
ENCODING 320
SWIDTH 330 0
DWIDTH 11 0
BBX 9 24 2 0
BITMAP
E000
E000
E000
E000
E000
E000
E000
E000
E000
E000
E000
E780
E780
E780
E000
E000
E000
E000
E000
E000
E000
E000
E000
E000
ENDCHAR
STARTCHAR 0141
ENCODING 321
SWIDTH 570 0
DWIDTH 19 0
BBX 18 24 0 0
BITMAP
1C0000
1C0000
1C0000
1C0000
1C0000
1C0000
1C0000
1C2000
1C6000
1DE000
1FC000
1F0000
3E0000
7C0000
FC0000
DC0000
1C0000
1C0000
1C0000
1C0000
1C0000
1FFFC0
1FFFC0
1FFFC0
ENDCHAR
STARTCHAR 0142
ENCODING 322
SWIDTH 210 0
DWIDTH 7 0
BBX 7 24 0 0
BITMAP
38
38
38
38
38
38
38
38
38
3A
3E
3C
78
F8
B8
38
38
38
38
38
38
38
38
38
ENDCHAR
STARTCHAR 0143
ENCODING 323
SWIDTH 720 0
DWIDTH 24 0
BBX 19 31 3 0
BITMAP
003800
007000
00E000
00C000
018000
000000
000000
E000E0
F000E0
F800E0
F800E0
FC00E0
DC00E0
CE00E0
CF00E0
C700E0
C380E0
C3C0E0
C1C0E0
C0E0E0
C0F0E0
C070E0
C038E0
C03CE0
C01CE0
C01EE0
C00FE0
C007E0
C007E0
C003E0
C001E0
ENDCHAR
STARTCHAR 0144
ENCODING 324
SWIDTH 570 0
DWIDTH 19 0
BBX 14 24 2 0
BITMAP
00F0
01C0
0380
0300
0000
0000
E7E0
EFF8
FFFC
F81C
F01C
F01C
E01C
E01C
E01C
E01C
E01C
E01C
E01C
E01C
E01C
E01C
E01C
E01C
ENDCHAR
STARTCHAR 0145
ENCODING 325
SWIDTH 720 0
DWIDTH 24 0
BBX 19 33 3 -10
BITMAP
E000E0
F000E0
F800E0
F800E0
FC00E0
DC00E0
CE00E0
CF00E0
C700E0
C380E0
C3C0E0
C1C0E0
C0E0E0
C0F0E0
C070E0
C038E0
C03CE0
C01CE0
C01EE0
C00FE0
C007E0
C007E0
C003E0
C001E0
000000
000000
01C000
01C000
01C000
004000
004000
00C000
018000
ENDCHAR
STARTCHAR 0146
ENCODING 326
SWIDTH 570 0
DWIDTH 19 0
BBX 14 27 2 -10
BITMAP
E7E0
EFF8
FFFC
F81C
F01C
F01C
E01C
E01C
E01C
E01C
E01C
E01C
E01C
E01C
E01C
E01C
E01C
E01C
0000
0000
0380
0380
0380
0180
0180
0180
0300
ENDCHAR
STARTCHAR 0147
ENCODING 327
SWIDTH 720 0
DWIDTH 24 0
BBX 19 31 3 0
BITMAP
061C00
073800
033000
01F000
01E000
000000
000000
E000E0
F000E0
F800E0
F800E0
FC00E0
DC00E0
CE00E0
CF00E0
C700E0
C380E0
C3C0E0
C1C0E0
C0E0E0
C0F0E0
C070E0
C038E0
C03CE0
C01CE0
C01EE0
C00FE0
C007E0
C007E0
C003E0
C001E0
ENDCHAR
STARTCHAR 0148
ENCODING 328
SWIDTH 570 0
DWIDTH 19 0
BBX 14 24 2 0
BITMAP
1870
0CE0
0EC0
0780
0000
0000
E7E0
EFF8
FFFC
F81C
F01C
F01C
E01C
E01C
E01C
E01C
E01C
E01C
E01C
E01C
E01C
E01C
E01C
E01C
ENDCHAR
STARTCHAR 0149
ENCODING 329
SWIDTH 600 0
DWIDTH 20 0
BBX 18 25 0 0
BITMAP
F00000
F00000
F00000
300000
200000
E00000
C00000
0C7E00
0CFF80
0DEF80
0F83C0
0F01C0
0E01C0
0E01C0
0E01C0
0E01C0
0E01C0
0E01C0
0E01C0
0E01C0
0E01C0
0E01C0
0E01C0
0E01C0
0E01C0
ENDCHAR
STARTCHAR 014A
ENCODING 330
SWIDTH 720 0
DWIDTH 24 0
BBX 18 34 3 -10
BITMAP
00FC00
E3FF00
E7FF80
EE0780
F803C0
F801C0
F001C0
F001C0
E001C0
E001C0
E001C0
E001C0
E001C0
E001C0
E001C0
E001C0
E001C0
E001C0
E001C0
E001C0
E001C0
E001C0
E001C0
E001C0
0001C0
0001C0
0001C0
0001C0
0001C0
0001C0
0003C0
001FC0
001F80
001E00
ENDCHAR
STARTCHAR 014B
ENCODING 331
SWIDTH 570 0
DWIDTH 19 0
BBX 14 25 2 -7
BITMAP
E3E0
E7F8
EFFC
F81C
F01C
F01C
E01C
E01C
E01C
E01C
E01C
E01C
E01C
E01C
E01C
E01C
E01C
E01C
001C
001C
001C
001C
001C
007C
0078
ENDCHAR
STARTCHAR 014C
ENCODING 332
SWIDTH 780 0
DWIDTH 26 0
BBX 24 29 1 0
BITMAP
01FF80
01FF80
000000
000000
000000
00FF00
03FFC0
07FFF0
1F00F8
1E007C
3C003C
78001E
70000E
70000E
F0000F
E00007
E00007
E00007
F00007
F0000F
70000E
70000E
78001E
3C003C
1E0078
1F00F8
0FFFE0
03FFC0
00FE00
ENDCHAR
STARTCHAR 014D
ENCODING 333
SWIDTH 570 0
DWIDTH 19 0
BBX 16 23 1 0
BITMAP
0FF8
0FF8
0000
0000
0000
07E0
1FF8
3FFC
381E
700E
700F
E007
E007
E007
E007
E007
E007
7007
700E
781E
3FFC
1FF8
07E0
ENDCHAR
STARTCHAR 014E
ENCODING 334
SWIDTH 780 0
DWIDTH 26 0
BBX 24 30 1 0
BITMAP
018180
01C380
00FF00
007E00
000000
000000
00FF00
03FFC0
07FFF0
1F00F8
1E007C
3C003C
78001E
70000E
70000E
F0000F
E00007
E00007
E00007
F00007
F0000F
70000E
70000E
78001E
3C003C
1E0078
1F00F8
0FFFE0
03FFC0
00FE00
ENDCHAR
STARTCHAR 014F
ENCODING 335
SWIDTH 570 0
DWIDTH 19 0
BBX 16 24 1 0
BITMAP
1818
1C38
0FF0
07E0
0000
0000
07E0
1FF8
3FFC
381E
700E
700F
E007
E007
E007
E007
E007
E007
7007
700E
781E
3FFC
1FF8
07E0
ENDCHAR
STARTCHAR 0150
ENCODING 336
SWIDTH 780 0
DWIDTH 26 0
BBX 24 31 1 0
BITMAP
001E78
003CF0
0038E0
0071C0
00E380
000000
000000
00FF00
03FFC0
07FFF0
1F00F8
1E007C
3C003C
78001E
70000E
70000E
F0000F
E00007
E00007
E00007
F00007
F0000F
70000E
70000E
78001E
3C003C
1E0078
1F00F8
0FFFE0
03FFC0
00FE00
ENDCHAR
STARTCHAR 0151
ENCODING 337
SWIDTH 570 0
DWIDTH 19 0
BBX 16 24 1 0
BITMAP
01CF
038E
071C
0E38
0C30
0000
07E0
1FF8
3FFC
381E
700E
700F
E007
E007
E007
E007
E007
E007
7007
700E
781E
3FFC
1FF8
07E0
ENDCHAR
STARTCHAR 0152
ENCODING 338
SWIDTH 990 0
DWIDTH 33 0
BBX 31 24 1 0
BITMAP
01FCFFFE
07FEFFFE
0FFFFFFE
1E03F000
3C01F000
3800F000
7000F000
7000F000
7000F000
7000F000
7000FFFE
F000FFFE
F000FFFE
F000F000
7000F000
7000F000
7000F000
7000F000
3800F000
3C01F000
1E03F000
0FFFFFFE
07FEFFFE
01F8FFFE
ENDCHAR
STARTCHAR 0153
ENCODING 339
SWIDTH 930 0
DWIDTH 31 0
BBX 29 18 1 0
BITMAP
07E01F00
1FF87FC0
3FFCFFE0
381FC0F0
700F8070
70078038
70070038
E0070038
E007FFF8
E007FFF8
E0070000
70070000
70078038
700F8070
381FC0F0
3FFDFFE0
1FF8FFC0
07E03F00
ENDCHAR
STARTCHAR 0154
ENCODING 340
SWIDTH 720 0
DWIDTH 24 0
BBX 20 31 3 0
BITMAP
007800
007000
00E000
01C000
018000
000000
000000
FFFE00
FFFF80
FFFFC0
E003C0
E001E0
E001E0
E001E0
E001E0
E001C0
E001C0
E00380
FFFF00
FFFF00
FFFF80
E003C0
E001C0
E001C0
E001C0
E001C0
E001C0
E001C0
E001C0
E001E0
E000F0
ENDCHAR
STARTCHAR 0155
ENCODING 341
SWIDTH 330 0
DWIDTH 11 0
BBX 9 24 2 0
BITMAP
0700
0E00
1C00
1800
0000
0000
E380
E780
EF00
F800
F000
F000
E000
E000
E000
E000
E000
E000
E000
E000
E000
E000
E000
E000
ENDCHAR
STARTCHAR 0156
ENCODING 342
SWIDTH 720 0
DWIDTH 24 0
BBX 20 33 3 -10
BITMAP
FFFE00
FFFF80
FFFFC0
E003C0
E001E0
E001E0
E001E0
E001E0
E001C0
E001C0
E00380
FFFF00
FFFF00
FFFF80
E003C0
E001C0
E001C0
E001C0
E001C0
E001C0
E001C0
E001C0
E001E0
E000F0
000000
000000
00E000
00E000
00E000
006000
006000
006000
00C000
ENDCHAR
STARTCHAR 0157
ENCODING 343
SWIDTH 330 0
DWIDTH 11 0
BBX 9 27 2 -10
BITMAP
E380
E780
EF00
F800
F000
F000
E000
E000
E000
E000
E000
E000
E000
E000
E000
E000
E000
E000
0000
0000
E000
E000
E000
2000
2000
2000
C000
ENDCHAR
STARTCHAR 0158
ENCODING 344
SWIDTH 720 0
DWIDTH 24 0
BBX 20 31 3 0
BITMAP
0E1800
063800
037000
03E000
01E000
000000
000000
FFFE00
FFFF80
FFFFC0
E003C0
E001E0
E001E0
E001E0
E001E0
E001C0
E001C0
E00380
FFFF00
FFFF00
FFFF80
E003C0
E001C0
E001C0
E001C0
E001C0
E001C0
E001C0
E001C0
E001E0
E000F0
ENDCHAR
STARTCHAR 0159
ENCODING 345
SWIDTH 330 0
DWIDTH 11 0
BBX 9 24 2 0
BITMAP
C180
6300
7600
3C00
0000
0000
E380
E780
EF00
F800
F000
F000
E000
E000
E000
E000
E000
E000
E000
E000
E000
E000
E000
E000
ENDCHAR
STARTCHAR 015A
ENCODING 346
SWIDTH 660 0
DWIDTH 22 0
BBX 19 31 2 0
BITMAP
003C00
007800
007000
00E000
01C000
000000
000000
07F800
1FFE00
3FFF00
780780
700380
F001C0
E001C0
F00000
700000
7E0000
3FC000
1FFC00
01FF00
001FC0
0003C0
0001E0
E000E0
E000E0
E001C0
F001C0
7803C0
3FFF80
1FFE00
07F800
ENDCHAR
STARTCHAR 015B
ENCODING 347
SWIDTH 510 0
DWIDTH 17 0
BBX 14 24 1 0
BITMAP
00E0
01C0
0380
0300
0400
0000
0FC0
3FF0
7FF8
7038
701C
7000
7000
7E00
3FE0
0FF8
00FC
001C
E01C
E01C
701C
7FF8
3FF0
0FC0
ENDCHAR
STARTCHAR 015C
ENCODING 348
SWIDTH 660 0
DWIDTH 22 0
BBX 19 31 2 0
BITMAP
01E000
01E000
03F000
073800
061800
000000
000000
07F800
1FFE00
3FFF00
780780
700380
F001C0
E001C0
F00000
700000
7E0000
3FC000
1FFC00
01FF00
001FC0
0003C0
0001E0
E000E0
E000E0
E001C0
F001C0
7803C0
3FFF80
1FFE00
07F800
ENDCHAR
STARTCHAR 015D
ENCODING 349
SWIDTH 510 0
DWIDTH 17 0
BBX 14 24 1 0
BITMAP
0780
07C0
0EE0
1C60
0010
0000
0FC0
3FF0
7FF8
7038
701C
7000
7000
7E00
3FE0
0FF8
00FC
001C
E01C
E01C
701C
7FF8
3FF0
0FC0
ENDCHAR
STARTCHAR 015E
ENCODING 350
SWIDTH 660 0
DWIDTH 22 0
BBX 19 31 2 -7
BITMAP
07F800
1FFE00
3FFF00
780780
7003C0
7001C0
F001C0
F00000
700000
7C0000
3F8000
1FF800
07FF00
007F80
0007C0
0001C0
E001E0
E000E0
E000E0
F001C0
7001C0
7C0780
3FFF80
0FFE00
01F000
008000
01F000
003000
003000
0EF000
03E000
ENDCHAR
STARTCHAR 015F
ENCODING 351
SWIDTH 510 0
DWIDTH 17 0
BBX 14 25 1 -7
BITMAP
0FC0
3FF0
7FF8
7038
701C
7000
7000
7C00
3FC0
1FF0
01FC
003C
001C
E01C
F01C
783C
7FF8
3FF0
0780
0600
07C0
01C0
00C0
3BC0
1F80
ENDCHAR
STARTCHAR 0160
ENCODING 352
SWIDTH 660 0
DWIDTH 22 0
BBX 19 31 2 0
BITMAP
0E0C00
061800
033800
03F000
01E000
000000
000000
07F800
1FFE00
3FFF00
780780
700380
F001C0
E001C0
F00000
700000
7E0000
3FC000
1FFC00
01FF00
001FC0
0003C0
0001E0
E000E0
E000E0
E001C0
F001C0
7803C0
3FFF80
1FFE00
07F800
ENDCHAR
STARTCHAR 0161
ENCODING 353
SWIDTH 510 0
DWIDTH 17 0
BBX 14 24 1 0
BITMAP
1870
1CE0
0EC0
07C0
0000
0000
0FC0
3FF0
7FF8
7038
701C
7000
7000
7E00
3FE0
0FF8
00FC
001C
E01C
E01C
701C
7FF8
3FF0
0FC0
ENDCHAR
STARTCHAR 0162
ENCODING 354
SWIDTH 600 0
DWIDTH 20 0
BBX 19 31 1 -7
BITMAP
FFFFE0
FFFFE0
FFFFE0
00E000
00E000
00E000
00E000
00E000
00E000
00E000
00E000
00E000
00E000
00E000
00E000
00E000
00E000
00E000
00E000
00E000
00E000
00E000
00E000
00E000
004000
004000
00F800
001800
001800
073800
01F000
ENDCHAR
STARTCHAR 0163
ENCODING 355
SWIDTH 270 0
DWIDTH 9 0
BBX 9 29 0 -6
BITMAP
1C00
1C00
1C00
1C00
1C00
FF00
FF00
1C00
1C00
1C00
1C00
1C00
1C00
1C00
1C00
1C00
1C00
1C00
1C00
1C00
1E00
1F00
0F00
0800
1F00
0780
0380
4300
7F00
ENDCHAR
STARTCHAR 0164
ENCODING 356
SWIDTH 600 0
DWIDTH 20 0
BBX 19 31 1 0
BITMAP
061C00
071800
03B000
01F000
01E000
000000
000000
FFFFE0
FFFFE0
FFFFE0
00E000
00E000
00E000
00E000
00E000
00E000
00E000
00E000
00E000
00E000
00E000
00E000
00E000
00E000
00E000
00E000
00E000
00E000
00E000
00E000
00E000
ENDCHAR
STARTCHAR 0165
ENCODING 357
SWIDTH 330 0
DWIDTH 11 0
BBX 11 27 0 0
BITMAP
01E0
01E0
01E0
0060
1C60
1C40
1D80
1C00
1C00
FF00
FF00
1C00
1C00
1C00
1C00
1C00
1C00
1C00
1C00
1C00
1C00
1C00
1C00
1C00
1E00
1F00
0F00
ENDCHAR
STARTCHAR 0166
ENCODING 358
SWIDTH 600 0
DWIDTH 20 0
BBX 19 24 1 0
BITMAP
FFFFE0
FFFFE0
FFFFE0
00E000
00E000
00E000
00E000
00E000
00E000
3FFF00
3FFF00
00E000
00E000
00E000
00E000
00E000
00E000
00E000
00E000
00E000
00E000
00E000
00E000
00E000
ENDCHAR
STARTCHAR 0167
ENCODING 359
SWIDTH 270 0
DWIDTH 9 0
BBX 8 23 0 0
BITMAP
1C
1C
1C
1C
1C
FF
FF
1C
1C
1C
7F
7F
1C
1C
1C
1C
1C
1C
1C
1C
1E
1F
0F
ENDCHAR
STARTCHAR 0168
ENCODING 360
SWIDTH 720 0
DWIDTH 24 0
BBX 18 30 3 0
BITMAP
078C00
0FFC00
0CF800
000000
000000
000000
E001C0
E001C0
E001C0
E001C0
E001C0
E001C0
E001C0
E001C0
E001C0
E001C0
E001C0
E001C0
E001C0
E001C0
E001C0
E001C0
E001C0
E001C0
E001C0
F003C0
7C0780
3FFF00
1FFE00
07F800
ENDCHAR
STARTCHAR 0169
ENCODING 361
SWIDTH 570 0
DWIDTH 19 0
BBX 14 24 2 -1
BITMAP
1E30
1FF0
33E0
0000
0000
0000
E01C
E01C
E01C
E01C
E01C
E01C
E01C
E01C
E01C
E01C
E01C
E01C
E01C
E03C
F03C
7DFC
7FEC
1FCC
ENDCHAR
STARTCHAR 016A
ENCODING 362
SWIDTH 720 0
DWIDTH 24 0
BBX 18 30 3 0
BITMAP
07FC00
07FC00
000000
000000
000000
000000
E001C0
E001C0
E001C0
E001C0
E001C0
E001C0
E001C0
E001C0
E001C0
E001C0
E001C0
E001C0
E001C0
E001C0
E001C0
E001C0
E001C0
E001C0
E001C0
F003C0
7C0780
3FFF00
1FFE00
07F800
ENDCHAR
STARTCHAR 016B
ENCODING 363
SWIDTH 570 0
DWIDTH 19 0
BBX 14 24 2 -1
BITMAP
1FF0
1FF0
0000
0000
0000
0000
E01C
E01C
E01C
E01C
E01C
E01C
E01C
E01C
E01C
E01C
E01C
E01C
E01C
E03C
F03C
7DFC
7FEC
1FCC
ENDCHAR
STARTCHAR 016C
ENCODING 364
SWIDTH 720 0
DWIDTH 24 0
BBX 18 30 3 0
BITMAP
0C0C00
0F3C00
07F800
03F000
000000
000000
E001C0
E001C0
E001C0
E001C0
E001C0
E001C0
E001C0
E001C0
E001C0
E001C0
E001C0
E001C0
E001C0
E001C0
E001C0
E001C0
E001C0
E001C0
E001C0
F003C0
7C0780
3FFF00
1FFE00
07F800
ENDCHAR
STARTCHAR 016D
ENCODING 365
SWIDTH 570 0
DWIDTH 19 0
BBX 14 24 2 -1
BITMAP
3030
1CF0
1FE0
07C0
0000
0000
E01C
E01C
E01C
E01C
E01C
E01C
E01C
E01C
E01C
E01C
E01C
E01C
E01C
E03C
F03C
7DFC
7FEC
1FCC
ENDCHAR
STARTCHAR 016E
ENCODING 366
SWIDTH 720 0
DWIDTH 24 0
BBX 18 31 3 0
BITMAP
01E000
033000
031000
033000
01E000
000000
000000
E001C0
E001C0
E001C0
E001C0
E001C0
E001C0
E001C0
E001C0
E001C0
E001C0
E001C0
E001C0
E001C0
E001C0
E001C0
E001C0
E001C0
E001C0
E001C0
F003C0
7C0780
3FFF00
1FFE00
07F800
ENDCHAR
STARTCHAR 016F
ENCODING 367
SWIDTH 570 0
DWIDTH 19 0
BBX 14 25 2 -1
BITMAP
0780
0CC0
0C40
07C0
0780
0000
0000
E01C
E01C
E01C
E01C
E01C
E01C
E01C
E01C
E01C
E01C
E01C
E01C
E01C
E03C
F03C
7DFC
7FEC
1FCC
ENDCHAR
STARTCHAR 0170
ENCODING 368
SWIDTH 720 0
DWIDTH 24 0
BBX 18 31 3 0
BITMAP
00E780
01C700
038E00
030C00
061800
000000
000000
E001C0
E001C0
E001C0
E001C0
E001C0
E001C0
E001C0
E001C0
E001C0
E001C0
E001C0
E001C0
E001C0
E001C0
E001C0
E001C0
E001C0
E001C0
E001C0
F003C0
7C0780
3FFF00
1FFE00
07F800
ENDCHAR
STARTCHAR 0171
ENCODING 369
SWIDTH 570 0
DWIDTH 19 0
BBX 15 24 2 -1
BITMAP
038E
071C
0E38
0C30
1860
0000
E01C
E01C
E01C
E01C
E01C
E01C
E01C
E01C
E01C
E01C
E01C
E01C
E01C
E03C
F03C
7DFC
7FEC
1FCC
ENDCHAR
STARTCHAR 0172
ENCODING 370
SWIDTH 720 0
DWIDTH 24 0
BBX 18 30 3 -6
BITMAP
E001C0
E001C0
E001C0
E001C0
E001C0
E001C0
E001C0
E001C0
E001C0
E001C0
E001C0
E001C0
E001C0
E001C0
E001C0
E001C0
E001C0
E001C0
E001C0
F003C0
7C07C0
3FFF80
1FFF00
07FE00
001C00
001800
003800
003800
001F80
000F80
ENDCHAR
STARTCHAR 0173
ENCODING 371
SWIDTH 570 0
DWIDTH 19 0
BBX 15 24 2 -6
BITMAP
E01C
E01C
E01C
E01C
E01C
E01C
E01C
E01C
E01C
E01C
E01C
E01C
E01C
E03C
F03C
7DEC
7FCC
1F0C
0018
0030
0070
0070
003E
001E
ENDCHAR
STARTCHAR 0174
ENCODING 372
SWIDTH 930 0
DWIDTH 31 0
BBX 30 31 1 0
BITMAP
00078000
000F8000
001DC000
0018C000
00306000
00000000
00000000
E007803C
F007803C
F00F8038
700F8038
700FC078
700DC078
781DC070
381CE070
381CE070
3818E0F0
3C3860E0
1C3870E0
1C3870E0
1C7071C0
1E7039C0
0E7039C0
0E6039C0
0EE01B80
07E01F80
07E01F80
07C01F80
07C00F00
03C00F00
03C00F00
ENDCHAR
STARTCHAR 0175
ENCODING 373
SWIDTH 720 0
DWIDTH 24 0
BBX 23 24 0 0
BITMAP
003C00
007E00
00E600
00C300
000000
000000
E03C0E
703C0E
703C0E
707C0E
707E1C
386E1C
386E1C
38E618
18E738
1CC738
1CC738
1DC330
0DC3F0
0F83F0
0F83E0
0781E0
0781E0
0781E0
ENDCHAR
STARTCHAR 0176
ENCODING 374
SWIDTH 660 0
DWIDTH 22 0
BBX 21 31 1 0
BITMAP
007000
00F800
01DC00
018C00
030600
000000
000000
F00078
F000F0
7800E0
3801E0
3C01C0
1E03C0
0E0780
0F0700
070F00
038E00
03DC00
01DC00
01F800
00F800
007000
007000
007000
007000
007000
007000
007000
007000
007000
007000
ENDCHAR
STARTCHAR 0177
ENCODING 375
SWIDTH 510 0
DWIDTH 17 0
BBX 15 31 1 -7
BITMAP
0780
07C0
0CE0
1870
0000
0000
E00E
E01C
E01C
701C
7038
7038
3838
3870
3870
1C60
1CE0
1CE0
0EC0
0FC0
0FC0
0780
0780
0780
0700
0700
0E00
0E00
7E00
7C00
7800
ENDCHAR
STARTCHAR 0178
ENCODING 376
SWIDTH 660 0
DWIDTH 22 0
BBX 21 30 1 0
BITMAP
039E00
039E00
039E00
000000
000000
000000
F00078
F000F0
7800E0
3801E0
3C01C0
1E03C0
0E0780
0F0700
070F00
038E00
03DC00
01DC00
01F800
00F800
007000
007000
007000
007000
007000
007000
007000
007000
007000
007000
ENDCHAR
STARTCHAR 0179
ENCODING 377
SWIDTH 600 0
DWIDTH 20 0
BBX 18 31 1 0
BITMAP
003C00
003800
007000
00E000
00C000
000000
000000
7FFFC0
7FFFC0
7FFFC0
0003C0
000780
000F00
000E00
001E00
003C00
007800
00F000
00F000
01E000
03C000
078000
0F0000
0F0000
1E0000
3C0000
780000
700000
FFFFC0
FFFFC0
FFFFC0
ENDCHAR
STARTCHAR 017A
ENCODING 378
SWIDTH 510 0
DWIDTH 17 0
BBX 14 24 1 0
BITMAP
00E0
01C0
0380
0300
0000
0000
7FFC
7FFC
003C
0038
0070
00E0
01E0
03C0
0380
0700
0E00
1E00
3C00
3800
7000
E000
FFFC
FFFC
ENDCHAR
STARTCHAR 017B
ENCODING 379
SWIDTH 600 0
DWIDTH 20 0
BBX 18 30 1 0
BITMAP
00E000
00E000
00E000
000000
000000
000000
7FFFC0
7FFFC0
7FFFC0
0003C0
000780
000F00
000E00
001E00
003C00
007800
00F000
00F000
01E000
03C000
078000
0F0000
0F0000
1E0000
3C0000
780000
700000
FFFFC0
FFFFC0
FFFFC0
ENDCHAR
STARTCHAR 017C
ENCODING 380
SWIDTH 510 0
DWIDTH 17 0
BBX 14 24 1 0
BITMAP
0380
0380
0380
0000
0000
0000
7FFC
7FFC
003C
0038
0070
00E0
01E0
03C0
0380
0700
0E00
1E00
3C00
3800
7000
E000
FFFC
FFFC
ENDCHAR
STARTCHAR 017D
ENCODING 381
SWIDTH 600 0
DWIDTH 20 0
BBX 18 31 1 0
BITMAP
060C00
031800
03B800
01F000
00E000
000000
000000
7FFFC0
7FFFC0
7FFFC0
0003C0
000780
000F00
000E00
001E00
003C00
007800
00F000
00F000
01E000
03C000
078000
0F0000
0F0000
1E0000
3C0000
780000
700000
FFFFC0
FFFFC0
FFFFC0
ENDCHAR
STARTCHAR 017E
ENCODING 382
SWIDTH 510 0
DWIDTH 17 0
BBX 14 24 1 0
BITMAP
1870
0C60
0EC0
0780
0000
0000
7FFC
7FFC
003C
0038
0070
00E0
01E0
03C0
0380
0700
0E00
1E00
3C00
3800
7000
E000
FFFC
FFFC
ENDCHAR
STARTCHAR 017F
ENCODING 383
SWIDTH 210 0
DWIDTH 7 0
BBX 8 24 0 0
BITMAP
0F
1F
3C
38
38
38
F8
F8
38
38
38
38
38
38
38
38
38
38
38
38
38
38
38
38
ENDCHAR
STARTCHAR 0192
ENCODING 402
SWIDTH 570 0
DWIDTH 19 0
BBX 18 31 0 -7
BITMAP
0007C0
000FC0
001F80
003C00
003800
003800
007000
007000
007000
07FF00
07FF00
00E000
00E000
00E000
00E000
00E000
01C000
01C000
01C000
01C000
01C000
038000
038000
038000
038000
038000
070000
070000
7E0000
7C0000
F80000
ENDCHAR
STARTCHAR 01FA
ENCODING 506
SWIDTH 660 0
DWIDTH 22 0
BBX 21 36 1 0
BITMAP
00F000
00E000
01C000
038000
030000
00F000
019800
018800
019800
00F000
000000
000000
00F000
00F800
01F800
01F800
01DC00
039C00
039E00
038E00
070E00
070F00
0F0700
0E0700
0E0780
1E0380
1FFF80
1FFFC0
3FFFC0
3801C0
3801E0
7800E0
7000F0
F000F0
E00070
E00078
ENDCHAR
STARTCHAR 01FB
ENCODING 507
SWIDTH 570 0
DWIDTH 19 0
BBX 17 30 1 0
BITMAP
01C000
038000
070000
060000
0C0000
01C000
03E000
062000
066000
03C000
000000
000000
07F000
1FF800
3FFC00
381E00
700E00
700E00
000E00
007E00
0FFE00
3FCE00
780E00
700E00
E00E00
E01E00
703E00
7DFF00
3FEF80
1F8780
ENDCHAR
STARTCHAR 01FC
ENCODING 508
SWIDTH 990 0
DWIDTH 33 0
BBX 31 31 1 0
BITMAP
00001E00
00003C00
00003800
00007000
0000E000
00000000
00000000
007FFFFC
007FFFFC
00FFFFFC
00E1C000
01E1C000
01C1C000
01C1C000
0381C000
0381C000
0781C000
0701FFF8
0701FFF8
0E01FFF8
0E01C000
1FFFC000
1FFFC000
3FFFC000
3801C000
3801C000
7801C000
7001C000
F001FFFE
E001FFFE
E001FFFE
ENDCHAR
STARTCHAR 01FD
ENCODING 509
SWIDTH 900 0
DWIDTH 30 0
BBX 27 24 1 0
BITMAP
0003C000
00078000
00070000
000C0000
00000000
00000000
07E07C00
1FF9FF00
3FFFFF80
781F03C0
700E01C0
700E00E0
000E00E0
003C00E0
0FFFFFE0
3FEFFFE0
780C0000
F00C0000
E00E00E0
E01E01C0
F03F03C0
7DF3FF80
3FC1FF00
1F80FC00
ENDCHAR
STARTCHAR 01FE
ENCODING 510
SWIDTH 780 0
DWIDTH 26 0
BBX 24 31 1 0
BITMAP
000F00
001E00
001C00
003800
007000
000000
000000
00FF03
03FFC6
0FFFEC
1F00F8
3C0078
38007C
7800DE
70018E
70030E
F0060E
E00C0F
E0180F
E03007
E0600F
F0C00E
71800E
73000E
7E001E
3C003C
3E0078
3F00F8
6FFFE0
C3FFC0
40FF00
ENDCHAR
STARTCHAR 01FF
ENCODING 511
SWIDTH 600 0
DWIDTH 20 0
BBX 16 25 1 0
BITMAP
00F0
00E0
01C0
0380
0300
0000
0000
07E1
1FFB
3FFE
381E
701E
701F
E027
E067
E0C7
E187
E307
E607
7C07
780E
381E
7FFC
DFF8
87E0
ENDCHAR
STARTCHAR 0218
ENCODING 536
SWIDTH 660 0
DWIDTH 22 0
BBX 19 32 2 -9
BITMAP
07F800
1FFE00
3FFF00
780780
700380
F001C0
E001C0
F00000
700000
7E0000
3FC000
1FFC00
01FF00
001FC0
0003C0
0001E0
E000E0
E000E0
E001C0
F001C0
7803C0
3FFF80
1FFE00
07F800
000000
00E000
00E000
00E000
002000
006000
006000
00C000
ENDCHAR
STARTCHAR 0219
ENCODING 537
SWIDTH 510 0
DWIDTH 17 0
BBX 14 26 1 -9
BITMAP
0FC0
3FF0
7FF8
7038
701C
7000
7000
7E00
3FE0
0FF8
00FC
001C
E01C
E01C
701C
7FF8
3FF0
0FC0
0000
0380
0380
0380
0180
0180
0180
0300
ENDCHAR
STARTCHAR 021A
ENCODING 538
SWIDTH 600 0
DWIDTH 20 0
BBX 19 33 1 -10
BITMAP
FFFFE0
FFFFE0
FFFFE0
00E000
00E000
00E000
00E000
00E000
00E000
00E000
00E000
00E000
00E000
00E000
00E000
00E000
00E000
00E000
00E000
00E000
00E000
00E000
00E000
00E000
000000
000000
00E000
00E000
00E000
006000
006000
006000
00C000
ENDCHAR
STARTCHAR 021B
ENCODING 539
SWIDTH 270 0
DWIDTH 9 0
BBX 8 31 0 -9
BITMAP
1C
1C
1C
1C
1C
FF
FF
1C
1C
1C
1C
1C
1C
1C
1C
1C
1C
1C
1C
1C
1E
1F
0F
00
0E
0E
0E
02
06
06
0C
ENDCHAR
STARTCHAR 02C6
ENCODING 710
SWIDTH 330 0
DWIDTH 11 0
BBX 9 5 1 19
BITMAP
1C00
3E00
7700
6300
C180
ENDCHAR
STARTCHAR 02C7
ENCODING 711
SWIDTH 330 0
DWIDTH 11 0
BBX 9 5 1 19
BITMAP
C180
6300
7700
3E00
1C00
ENDCHAR
STARTCHAR 02C9
ENCODING 713
SWIDTH 330 0
DWIDTH 11 0
BBX 9 2 1 21
BITMAP
FF80
FF80
ENDCHAR
STARTCHAR 02D8
ENCODING 728
SWIDTH 330 0
DWIDTH 11 0
BBX 9 4 1 20
BITMAP
C180
C180
FF80
7F00
ENDCHAR
STARTCHAR 02D9
ENCODING 729
SWIDTH 330 0
DWIDTH 11 0
BBX 3 3 4 21
BITMAP
E0
E0
E0
ENDCHAR
STARTCHAR 02DA
ENCODING 730
SWIDTH 330 0
DWIDTH 11 0
BBX 5 5 3 20
BITMAP
70
D8
88
88
F8
ENDCHAR
STARTCHAR 02DB
ENCODING 731
SWIDTH 330 0
DWIDTH 11 0
BBX 7 7 2 -7
BITMAP
38
60
E0
C0
E0
FE
3E
ENDCHAR
STARTCHAR 02DC
ENCODING 732
SWIDTH 330 0
DWIDTH 11 0
BBX 11 3 0 21
BITMAP
3CE0
7FC0
EFC0
ENDCHAR
STARTCHAR 02DD
ENCODING 733
SWIDTH 330 0
DWIDTH 11 0
BBX 12 5 -1 19
BITMAP
1CF0
38E0
71C0
6180
C300
ENDCHAR
STARTCHAR 0384
ENCODING 900
SWIDTH 330 0
DWIDTH 11 0
BBX 3 7 4 19
BITMAP
E0
E0
E0
E0
60
40
40
ENDCHAR
STARTCHAR 0385
ENCODING 901
SWIDTH 330 0
DWIDTH 11 0
BBX 9 8 1 21
BITMAP
1C00
1C00
1C00
1C00
0C00
EB80
E380
E380
ENDCHAR
STARTCHAR 0386
ENCODING 902
SWIDTH 660 0
DWIDTH 22 0
BBX 21 24 1 0
BITMAP
70F000
70F800
71F800
61F800
61DC00
639C00
239E00
038E00
070E00
070F00
0F0700
0E0700
0E0780
1E0380
1FFF80
1FFFC0
3FFFC0
3801C0
3801E0
7800E0
7000F0
F000F0
E00070
E00078
ENDCHAR
STARTCHAR 0387
ENCODING 903
SWIDTH 270 0
DWIDTH 9 0
BBX 3 3 4 8
BITMAP
E0
E0
E0
ENDCHAR
STARTCHAR 0388
ENCODING 904
SWIDTH 780 0
DWIDTH 26 0
BBX 22 24 1 0
BITMAP
EFFFF8
EFFFF8
EFFFF8
EF0000
CF0000
4F0000
0F0000
0F0000
0F0000
0F0000
0FFFF8
0FFFF8
0FFFF8
0F0000
0F0000
0F0000
0F0000
0F0000
0F0000
0F0000
0F0000
0FFFFC
0FFFFC
0FFFFC
ENDCHAR
STARTCHAR 0389
ENCODING 905
SWIDTH 840 0
DWIDTH 28 0
BBX 23 24 1 0
BITMAP
CE000E
CE000E
CE000E
CE000E
CE000E
CE000E
0E000E
0E000E
0E000E
0E000E
0FFFFE
0FFFFE
0FFFFE
0E000E
0E000E
0E000E
0E000E
0E000E
0E000E
0E000E
0E000E
0E000E
0E000E
0E000E
ENDCHAR
STARTCHAR 038A
ENCODING 906
SWIDTH 390 0
DWIDTH 13 0
BBX 8 24 1 0
BITMAP
EF
EF
EF
CF
CF
CF
0F
0F
0F
0F
0F
0F
0F
0F
0F
0F
0F
0F
0F
0F
0F
0F
0F
0F
ENDCHAR
STARTCHAR 038C
ENCODING 908
SWIDTH 780 0
DWIDTH 26 0
BBX 26 24 -1 0
BITMAP
E03FC000
E0FFF000
E3FFFC00
E7C03E00
67001E00
4E000F00
5E000780
1C000380
1C000380
3C000380
380003C0
380001C0
380001C0
380003C0
3C000380
1C000380
1C000380
1E000700
0E000F00
0F801E00
07C03C00
03FFF800
00FFF000
003F8000
ENDCHAR
STARTCHAR 038E
ENCODING 910
SWIDTH 870 0
DWIDTH 29 0
BBX 25 24 1 0
BITMAP
EF000780
E7800700
E7800F00
E3C00E00
C1C01E00
41E03C00
00F03800
00707800
00787000
0038E000
001DE000
001FC000
000FC000
000F8000
00070000
00070000
00070000
00070000
00070000
00070000
00070000
00070000
00070000
00070000
ENDCHAR
STARTCHAR 038F
ENCODING 911
SWIDTH 750 0
DWIDTH 25 0
BBX 25 24 -1 0
BITMAP
E03F8000
E0FFE000
E3FFF800
E7C07C00
6F001E00
4E000E00
5E000F00
1C000700
1C000700
1C000700
3C000780
3C000780
1C000780
1C000700
1C000700
1C000700
0E000E00
0E000E00
07001C00
03803800
01C07000
3FF1FF80
3FF1FF80
3FF1FF80
ENDCHAR
STARTCHAR 0390
ENCODING 912
SWIDTH 210 0
DWIDTH 7 0
BBX 9 29 -1 0
BITMAP
1C00
1C00
1C00
1C00
0C00
EB80
E380
E380
0000
0000
0000
1C00
1C00
1C00
1C00
1C00
1C00
1C00
1C00
1C00
1C00
1C00
1C00
1C00
1C00
1C00
1C00
1C00
1C00
ENDCHAR
STARTCHAR 0391
ENCODING 913
SWIDTH 660 0
DWIDTH 22 0
BBX 21 24 1 0
BITMAP
00F000
00F800
01F800
01F800
01DC00
039C00
039E00
038E00
070E00
070F00
0F0700
0E0700
0E0780
1E0380
1FFF80
1FFFC0
3FFFC0
3801C0
3801E0
7800E0
7000F0
F000F0
E00070
E00078
ENDCHAR
STARTCHAR 0392
ENCODING 914
SWIDTH 660 0
DWIDTH 22 0
BBX 18 24 3 0
BITMAP
FFF800
FFFE00
FFFF00
E00F00
E00780
E00780
E00380
E00380
E00700
E00F00
FFFE00
FFFC00
FFFF00
E00780
E00380
E003C0
E001C0
E001C0
E001C0
E00380
E00780
FFFF00
FFFE00
FFFC00
ENDCHAR
STARTCHAR 0393
ENCODING 915
SWIDTH 540 0
DWIDTH 18 0
BBX 15 24 3 0
BITMAP
FFFE
FFFE
FFFE
E000
E000
E000
E000
E000
E000
E000
E000
E000
E000
E000
E000
E000
E000
E000
E000
E000
E000
E000
E000
E000
ENDCHAR
STARTCHAR 0394
ENCODING 916
SWIDTH 660 0
DWIDTH 22 0
BBX 22 24 0 0
BITMAP
007800
007800
00FC00
00FC00
00FE00
01CE00
01CE00
03C700
038700
038780
070380
070380
0F01C0
0E01C0
1E01E0
1C00E0
1C00F0
3C0070
380070
780078
700038
7FFFFC
FFFFFC
FFFFFC
ENDCHAR
STARTCHAR 0395
ENCODING 917
SWIDTH 660 0
DWIDTH 22 0
BBX 17 24 3 0
BITMAP
FFFF80
FFFF80
FFFF80
E00000
E00000
E00000
E00000
E00000
E00000
E00000
FFFF00
FFFF00
FFFF00
E00000
E00000
E00000
E00000
E00000
E00000
E00000
E00000
FFFF80
FFFF80
FFFF80
ENDCHAR
STARTCHAR 0396
ENCODING 918
SWIDTH 600 0
DWIDTH 20 0
BBX 18 24 1 0
BITMAP
7FFFC0
7FFFC0
7FFFC0
0003C0
000780
000F00
000E00
001E00
003C00
007800
00F000
00F000
01E000
03C000
078000
0F0000
0F0000
1E0000
3C0000
780000
700000
FFFFC0
FFFFC0
FFFFC0
ENDCHAR
STARTCHAR 0397
ENCODING 919
SWIDTH 720 0
DWIDTH 24 0
BBX 18 24 3 0
BITMAP
E001C0
E001C0
E001C0
E001C0
E001C0
E001C0
E001C0
E001C0
E001C0
E001C0
FFFFC0
FFFFC0
FFFFC0
E001C0
E001C0
E001C0
E001C0
E001C0
E001C0
E001C0
E001C0
E001C0
E001C0
E001C0
ENDCHAR
STARTCHAR 0398
ENCODING 920
SWIDTH 780 0
DWIDTH 26 0
BBX 24 24 1 0
BITMAP
00FF00
03FFC0
0FFFF0
1F00F8
1C007C
38003C
78001E
70000E
70000E
F0000F
E00007
E1FF87
E1FF87
F00007
F0000E
70000E
70000E
78001E
3C003C
1E0078
1F00F0
0FFFE0
03FFC0
00FE00
ENDCHAR
STARTCHAR 0399
ENCODING 921
SWIDTH 270 0
DWIDTH 9 0
BBX 3 24 3 0
BITMAP
E0
E0
E0
E0
E0
E0
E0
E0
E0
E0
E0
E0
E0
E0
E0
E0
E0
E0
E0
E0
E0
E0
E0
E0
ENDCHAR
STARTCHAR 039A
ENCODING 922
SWIDTH 660 0
DWIDTH 22 0
BBX 19 24 3 0
BITMAP
E003C0
E00780
E00F00
E01E00
E03C00
E07800
E0F000
E1E000
E3C000
E78000
EF8000
FFC000
FDE000
F8F000
F07000
E07800
E03C00
E01C00
E01E00
E00F00
E00700
E00380
E003C0
E001E0
ENDCHAR
STARTCHAR 039B
ENCODING 923
SWIDTH 660 0
DWIDTH 22 0
BBX 21 24 1 0
BITMAP
00F000
00F800
01F800
01F800
03DC00
039C00
039E00
078E00
070E00
070F00
0F0700
0E0700
0E0780
1E0380
1C0380
1C03C0
3C01C0
3801C0
7801E0
7800E0
7000E0
F000F0
F00070
E00078
ENDCHAR
STARTCHAR 039C
ENCODING 924
SWIDTH 840 0
DWIDTH 28 0
BBX 23 24 2 0
BITMAP
F8001E
F8001E
FC003E
FC003E
EC003E
EE007E
EE007E
E6006E
E700EE
E700EE
E301CE
E381CE
E381CE
E1838E
E1C38E
E1C30E
E0C70E
E0E70E
E0E60E
E07E0E
E07E0E
E07C0E
E03C0E
E03C0E
ENDCHAR
STARTCHAR 039D
ENCODING 925
SWIDTH 720 0
DWIDTH 24 0
BBX 19 24 3 0
BITMAP
E000E0
F000E0
F800E0
F800E0
FC00E0
DC00E0
CE00E0
CF00E0
C700E0
C380E0
C3C0E0
C1C0E0
C0E0E0
C0F0E0
C070E0
C038E0
C03CE0
C01CE0
C01EE0
C00FE0
C007E0
C007E0
C003E0
C001E0
ENDCHAR
STARTCHAR 039E
ENCODING 926
SWIDTH 660 0
DWIDTH 22 0
BBX 18 24 2 0
BITMAP
FFFF80
FFFF80
FFFF80
000000
000000
000000
000000
000000
000000
000000
7FFF00
7FFF00
7FFF00
000000
000000
000000
000000
000000
000000
000000
000000
FFFFC0
FFFFC0
FFFFC0
ENDCHAR
STARTCHAR 039F
ENCODING 927
SWIDTH 780 0
DWIDTH 26 0
BBX 24 24 1 0
BITMAP
00FF00
03FFC0
07FFF0
1F00F8
1E007C
3C003C
78001E
70000E
70000E
F0000F
E00007
E00007
E00007
F00007
F0000F
70000E
70000E
78001E
3C003C
1E0078
1F00F8
0FFFE0
03FFC0
00FE00
ENDCHAR
STARTCHAR 03A0
ENCODING 928
SWIDTH 720 0
DWIDTH 24 0
BBX 18 24 3 0
BITMAP
FFFFC0
FFFFC0
FFFFC0
E001C0
E001C0
E001C0
E001C0
E001C0
E001C0
E001C0
E001C0
E001C0
E001C0
E001C0
E001C0
E001C0
E001C0
E001C0
E001C0
E001C0
E001C0
E001C0
E001C0
E001C0
ENDCHAR
STARTCHAR 03A1
ENCODING 929
SWIDTH 660 0
DWIDTH 22 0
BBX 18 24 3 0
BITMAP
FFF800
FFFE00
FFFF00
E00780
E00380
E00380
E003C0
E003C0
E00380
E00780
E00F80
FFFF00
FFFE00
FFF000
E00000
E00000
E00000
E00000
E00000
E00000
E00000
E00000
E00000
E00000
ENDCHAR
STARTCHAR 03A3
ENCODING 931
SWIDTH 630 0
DWIDTH 21 0
BBX 18 24 1 0
BITMAP
FFFFC0
FFFFC0
FFFFC0
780000
3C0000
1E0000
0F0000
078000
03C000
01E000
00F000
007800
007800
00F000
01E000
03C000
078000
0F0000
1E0000
3C0000
780000
FFFFC0
FFFFC0
FFFFC0
ENDCHAR
STARTCHAR 03A4
ENCODING 932
SWIDTH 600 0
DWIDTH 20 0
BBX 19 24 1 0
BITMAP
FFFFE0
FFFFE0
FFFFE0
00E000
00E000
00E000
00E000
00E000
00E000
00E000
00E000
00E000
00E000
00E000
00E000
00E000
00E000
00E000
00E000
00E000
00E000
00E000
00E000
00E000
ENDCHAR
STARTCHAR 03A5
ENCODING 933
SWIDTH 660 0
DWIDTH 22 0
BBX 21 24 1 0
BITMAP
F00078
F000F0
7800E0
3801E0
3C01C0
1E03C0
0E0780
0F0700
070F00
038E00
03DC00
01DC00
01F800
00F800
007000
007000
007000
007000
007000
007000
007000
007000
007000
007000
ENDCHAR
STARTCHAR 03A6
ENCODING 934
SWIDTH 810 0
DWIDTH 27 0
BBX 21 24 3 0
BITMAP
007000
007000
007000
03FE00
0FFF80
3FFFE0
7871E0
7070F0
E07070
E07038
E07038
E07038
E07038
E07038
E07038
F07070
7070F0
7C71E0
3FFFC0
1FFF80
03FE00
007000
007000
007000
ENDCHAR
STARTCHAR 03A7
ENCODING 935
SWIDTH 660 0
DWIDTH 22 0
BBX 20 24 1 0
BITMAP
7000F0
7800E0
3C01C0
1C03C0
1E0380
0F0700
070F00
078E00
03DC00
01FC00
01F800
00F000
00F800
01F800
03FC00
039E00
070E00
0F0F00
0E0780
1C0380
3C03C0
7801E0
7000F0
F000F0
ENDCHAR
STARTCHAR 03A8
ENCODING 936
SWIDTH 840 0
DWIDTH 28 0
BBX 24 24 2 0
BITMAP
E0380F
E0380F
E0380F
E0380F
E0380F
E0380F
E0380F
E0380F
E0380F
E0380F
E0380F
E0380E
70380E
70380E
78381E
3C383C
3FB9F8
0FFFF0
07FFC0
003800
003800
003800
003800
003800
ENDCHAR
STARTCHAR 03A9
ENCODING 937
SWIDTH 750 0
DWIDTH 25 0
BBX 23 24 1 0
BITMAP
00FE00
03FF80
0FFFE0
1F01F0
3C0078
380038
78003C
70001C
70001C
70001C
F0001E
F0001E
F0001C
70001C
70001C
70001C
380038
380038
1C0070
0E00E0
0701C0
FFC7FE
FFC7FE
FFC7FE
ENDCHAR
STARTCHAR 03AA
ENCODING 938
SWIDTH 270 0
DWIDTH 9 0
BBX 9 30 0 0
BITMAP
F380
F380
F380
0000
0000
0000
1C00
1C00
1C00
1C00
1C00
1C00
1C00
1C00
1C00
1C00
1C00
1C00
1C00
1C00
1C00
1C00
1C00
1C00
1C00
1C00
1C00
1C00
1C00
1C00
ENDCHAR
STARTCHAR 03AB
ENCODING 939
SWIDTH 660 0
DWIDTH 22 0
BBX 21 30 1 0
BITMAP
039E00
039E00
039E00
000000
000000
000000
F00078
F000F0
7800E0
3801E0
3C01C0
1E03C0
0E0780
0F0700
070F00
038E00
03DC00
01DC00
01F800
00F800
007000
007000
007000
007000
007000
007000
007000
007000
007000
007000
ENDCHAR
STARTCHAR 03AC
ENCODING 940
SWIDTH 570 0
DWIDTH 19 0
BBX 20 26 0 0
BITMAP
018000
018000
018000
018000
018000
018000
000000
000000
07E0E0
0FF8E0
3FF8E0
381DC0
701FC0
700FC0
600780
E00780
E00700
E00780
E00780
E00F80
700FC0
701DC0
383CC0
3FF8E0
1FF0E0
07C070
ENDCHAR
STARTCHAR 03AD
ENCODING 941
SWIDTH 450 0
DWIDTH 15 0
BBX 14 26 1 0
BITMAP
0700
0700
0700
0700
0600
0200
0200
0000
0F80
3FE0
7FF0
F038
E038
E018
7000
7F00
1F80
7F80
F000
E000
E01C
E018
F038
7FF0
3FE0
1F80
ENDCHAR
STARTCHAR 03AE
ENCODING 942
SWIDTH 570 0
DWIDTH 19 0
BBX 14 33 2 -7
BITMAP
0180
0180
0180
0180
0180
0180
0000
0000
E7E0
EFF8
FFFC
F81C
F01C
E01C
E01C
E01C
E01C
E01C
E01C
E01C
E01C
E01C
E01C
E01C
E01C
E01C
001C
001C
001C
001C
001C
001C
001C
ENDCHAR
STARTCHAR 03AF
ENCODING 943
SWIDTH 210 0
DWIDTH 7 0
BBX 3 26 2 0
BITMAP
E0
E0
E0
60
60
40
00
00
E0
E0
E0
E0
E0
E0
E0
E0
E0
E0
E0
E0
E0
E0
E0
E0
E0
E0
ENDCHAR
STARTCHAR 03B0
ENCODING 944
SWIDTH 540 0
DWIDTH 18 0
BBX 14 29 2 0
BITMAP
0300
0300
0300
0300
0300
1FF0
1CF0
1CF0
0000
0000
0000
E01C
E01C
E01C
E01C
E01C
E01C
E01C
E01C
E01C
E01C
E01C
E01C
E01C
E01C
703C
7FF8
3FF0
0FC0
ENDCHAR
STARTCHAR 03B1
ENCODING 945
SWIDTH 570 0
DWIDTH 19 0
BBX 19 18 1 0
BITMAP
07C1C0
1FF1C0
3FF9C0
783B80
701F80
701F80
E00F00
E00F00
E00600
E00F00
E00F00
E01F00
701F80
703B80
7879C0
3FF1C0
1FE1C0
0F80E0
ENDCHAR
STARTCHAR 03B2
ENCODING 946
SWIDTH 570 0
DWIDTH 19 0
BBX 14 30 3 -6
BITMAP
0F80
3FE0
7DF0
E078
E038
C038
C038
C038
C070
C3F0
C7E0
C7F0
C038
C01C
C01C
C01C
C00C
C00C
C01C
C01C
E038
FFF8
FFF0
CFC0
C000
C000
C000
C000
C000
C000
ENDCHAR
STARTCHAR 03B3
ENCODING 947
SWIDTH 510 0
DWIDTH 17 0
BBX 15 25 1 -7
BITMAP
E00E
E00E
F01C
701C
703C
3838
3838
3870
1C70
1C70
0EE0
0EE0
0EE0
07C0
07C0
0780
0380
0380
0380
0380
0380
0380
0380
0380
0380
ENDCHAR
STARTCHAR 03B4
ENCODING 948
SWIDTH 570 0
DWIDTH 19 0
BBX 16 24 1 0
BITMAP
3FFE
3FFE
3C00
0F00
0780
03C0
01F0
0FF8
1FFC
381E
700E
7007
7007
E007
E007
E007
E007
7007
7007
780E
3C1E
3FFC
1FF8
07E0
ENDCHAR
STARTCHAR 03B5
ENCODING 949
SWIDTH 450 0
DWIDTH 15 0
BBX 14 18 1 0
BITMAP
0F80
3FE0
7FF0
F038
E038
E018
7000
7F00
1F80
7F80
F000
E000
E01C
E018
F038
7FF0
3FE0
1F80
ENDCHAR
STARTCHAR 03B6
ENCODING 950
SWIDTH 450 0
DWIDTH 15 0
BBX 14 32 1 -8
BITMAP
3FF8
3FF8
0078
00F0
01C0
0380
0700
0E00
1C00
1C00
3800
3800
7000
7000
7000
E000
E000
E000
E000
7000
7000
7C00
3FF0
0FFC
003C
001C
001C
001C
001C
0038
0038
0030
ENDCHAR
STARTCHAR 03B7
ENCODING 951
SWIDTH 570 0
DWIDTH 19 0
BBX 14 25 2 -7
BITMAP
E7E0
EFF8
FFFC
F81C
F01C
E01C
E01C
E01C
E01C
E01C
E01C
E01C
E01C
E01C
E01C
E01C
E01C
E01C
001C
001C
001C
001C
001C
001C
001C
ENDCHAR
STARTCHAR 03B8
ENCODING 952
SWIDTH 570 0
DWIDTH 19 0
BBX 15 26 2 0
BITMAP
0100
1FE0
3FF0
7878
701C
601C
E00C
E00E
E00E
E00E
E00E
C00E
FFFE
FFFE
C00E
C00E
C00E
E00E
E00E
E00C
E01C
701C
7038
3FF8
1FF0
0FC0
ENDCHAR
STARTCHAR 03B9
ENCODING 953
SWIDTH 210 0
DWIDTH 7 0
BBX 3 18 2 0
BITMAP
E0
E0
E0
E0
E0
E0
E0
E0
E0
E0
E0
E0
E0
E0
E0
E0
E0
E0
ENDCHAR
STARTCHAR 03BA
ENCODING 954
SWIDTH 510 0
DWIDTH 17 0
BBX 14 18 2 0
BITMAP
E038
E070
E0E0
E1C0
E380
E700
EF00
FF00
FB80
F3C0
E1C0
E1E0
E0E0
E070
E078
E038
E03C
E01C
ENDCHAR
STARTCHAR 03BB
ENCODING 955
SWIDTH 510 0
DWIDTH 17 0
BBX 15 24 1 0
BITMAP
1C00
0E00
0E00
0E00
0700
0700
0700
0380
0780
07C0
07C0
0FC0
0EE0
1CE0
1CE0
1C70
3870
3838
3838
7038
701C
701C
E01C
E00E
ENDCHAR
STARTCHAR 03BC
ENCODING 956
SWIDTH 570 0
DWIDTH 19 0
BBX 14 24 3 -6
BITMAP
C01C
C01C
C01C
C01C
C01C
C01C
C01C
C01C
C01C
C01C
C01C
C01C
C03C
E03C
E07C
FFFC
FFDC
DF00
C000
C000
C000
C000
C000
C000
ENDCHAR
STARTCHAR 03BD
ENCODING 957
SWIDTH 510 0
DWIDTH 17 0
BBX 15 18 1 0
BITMAP
E00E
E00E
E01C
701C
701C
7038
3838
3830
3870
1C70
1CE0
1CE0
0EE0
0FC0
0FC0
0780
0780
0780
ENDCHAR
STARTCHAR 03BE
ENCODING 958
SWIDTH 450 0
DWIDTH 15 0
BBX 14 31 1 -7
BITMAP
7FF8
7FF8
0FC0
1C00
3800
3000
7000
7800
3800
3E00
0FF0
0FF0
3FC0
7800
7000
E000
E000
E000
E000
F000
7000
7FC0
3FF8
0FFC
001C
001C
001C
001C
001C
0018
0038
ENDCHAR
STARTCHAR 03BF
ENCODING 959
SWIDTH 570 0
DWIDTH 19 0
BBX 16 18 1 0
BITMAP
07E0
1FF8
3FFC
381E
700E
7007
7007
E007
E007
E007
E007
7007
7007
700E
381E
3FFC
1FF8
07E0
ENDCHAR
STARTCHAR 03C0
ENCODING 960
SWIDTH 690 0
DWIDTH 23 0
BBX 19 18 2 0
BITMAP
FFFFE0
FFFFE0
180700
180700
180700
180700
180700
180700
180700
180700
180700
180700
180700
180700
180700
180700
180700
180700
ENDCHAR
STARTCHAR 03C1
ENCODING 961
SWIDTH 570 0
DWIDTH 19 0
BBX 16 24 2 -6
BITMAP
07E0
1FF8
3FFC
781C
701E
E00E
E00E
E007
E007
E007
E007
E00E
E00E
F01E
F81C
FFFC
EFF8
E7E0
E000
E000
E000
E000
E000
E000
ENDCHAR
STARTCHAR 03C2
ENCODING 962
SWIDTH 480 0
DWIDTH 16 0
BBX 15 25 1 -7
BITMAP
07E0
1FF8
3FFC
781C
700E
E00E
E00E
E000
E000
E000
E000
E000
7000
7800
3E00
1F80
0FF0
01FC
003C
000E
000C
001C
001C
001C
0038
ENDCHAR
STARTCHAR 03C3
ENCODING 963
SWIDTH 630 0
DWIDTH 21 0
BBX 17 18 2 0
BITMAP
07FF80
1FFF80
3FFC00
781C00
700E00
F00E00
E00700
E00700
E00700
E00700
E00700
E00700
F00E00
700E00
781E00
3FFC00
1FF800
07E000
ENDCHAR
STARTCHAR 03C4
ENCODING 964
SWIDTH 390 0
DWIDTH 13 0
BBX 15 18 -1 0
BITMAP
FFFE
FFFE
0380
0380
0380
0380
0380
0380
0380
0380
0380
0380
0380
0380
0380
0380
0380
0380
ENDCHAR
STARTCHAR 03C5
ENCODING 965
SWIDTH 540 0
DWIDTH 18 0
BBX 14 18 2 0
BITMAP
E01C
E01C
E01C
E01C
E01C
E01C
E01C
E01C
E01C
E01C
E01C
E01C
E01C
E01C
703C
7FF8
3FF0
0FC0
ENDCHAR
STARTCHAR 03C6
ENCODING 966
SWIDTH 660 0
DWIDTH 22 0
BBX 19 25 1 -7
BITMAP
00F800
0CFE00
1CFF80
38E380
70E1C0
70E1E0
E0E0E0
E0E0E0
E0E0E0
E0E0E0
E0E0E0
E0E0E0
F0E0E0
70E1E0
78E1C0
3CE780
1FFF00
0FFE00
01F000
00E000
00E000
00E000
00E000
00E000
00E000
ENDCHAR
STARTCHAR 03C7
ENCODING 967
SWIDTH 540 0
DWIDTH 18 0
BBX 15 25 1 -7
BITMAP
700E
701C
781C
3838
3C38
1C70
1E70
0EE0
0FE0
07C0
07C0
0380
03C0
07C0
07E0
0EE0
0EF0
1C70
1C70
3838
3838
301C
701C
700E
E00E
ENDCHAR
STARTCHAR 03C8
ENCODING 968
SWIDTH 720 0
DWIDTH 24 0
BBX 18 25 3 -7
BITMAP
E0E1C0
E0E1C0
E0E1C0
E0E1C0
E0E1C0
E0E1C0
E0E1C0
E0E1C0
E0E1C0
E0E1C0
E0E0C0
E0E1C0
E0E1C0
E0E1C0
70E3C0
7CE780
3FFF00
1FFE00
01E000
00E000
00E000
00E000
00E000
00E000
00E000
ENDCHAR
STARTCHAR 03C9
ENCODING 969
SWIDTH 780 0
DWIDTH 26 0
BBX 20 18 3 0
BITMAP
1C0380
3803C0
3801C0
7000E0
7060E0
E06070
E06070
E06070
E06070
E06070
E06070
E06070
E06070
F0F070
70F0E0
7FFFE0
3F9FC0
1F0F00
ENDCHAR
STARTCHAR 03CA
ENCODING 970
SWIDTH 210 0
DWIDTH 7 0
BBX 9 24 -1 0
BITMAP
F380
F380
F380
0000
0000
0000
1C00
1C00
1C00
1C00
1C00
1C00
1C00
1C00
1C00
1C00
1C00
1C00
1C00
1C00
1C00
1C00
1C00
1C00
ENDCHAR
STARTCHAR 03CB
ENCODING 971
SWIDTH 540 0
DWIDTH 18 0
BBX 14 24 2 0
BITMAP
1CF0
1CF0
1CF0
0000
0000
0000
E01C
E01C
E01C
E01C
E01C
E01C
E01C
E01C
E01C
E01C
E01C
E01C
E01C
E01C
703C
7FF8
3FF0
0FC0
ENDCHAR
STARTCHAR 03CC
ENCODING 972
SWIDTH 570 0
DWIDTH 19 0
BBX 16 26 1 0
BITMAP
01C0
01C0
01C0
01C0
0180
0180
0080
0000
07E0
1FF8
3FFC
381E
700E
7007
7007
E007
E007
E007
E007
7007
7007
700E
381E
3FFC
1FF8
07E0
ENDCHAR
STARTCHAR 03CD
ENCODING 973
SWIDTH 540 0
DWIDTH 18 0
BBX 14 26 2 0
BITMAP
0300
0300
0300
0300
0300
0300
0000
0000
E01C
E01C
E01C
E01C
E01C
E01C
E01C
E01C
E01C
E01C
E01C
E01C
E01C
E01C
703C
7FF8
3FF0
0FC0
ENDCHAR
STARTCHAR 03CE
ENCODING 974
SWIDTH 780 0
DWIDTH 26 0
BBX 20 26 3 0
BITMAP
006000
006000
006000
006000
006000
006000
000000
000000
1C0380
3803C0
3801C0
7000E0
7060E0
E06070
E06070
E06070
E06070
E06070
E06070
E06070
E06070
F0F070
70F0E0
7FFFE0
3F9FC0
1F0F00
ENDCHAR
STARTCHAR 03D1
ENCODING 977
SWIDTH 540 0
DWIDTH 18 0
BBX 18 25 0 0
BITMAP
07F000
0FF800
1E3C00
1C0E00
180E00
180700
180700
1C0700
1C0700
0E0700
07C700
03FFC0
00FFC0
000700
000700
F00700
F00700
300700
300700
380700
380E00
1C1E00
1FFC00
0FF800
03E000
ENDCHAR
STARTCHAR 03D5
ENCODING 981
SWIDTH 570 0
DWIDTH 19 0
BBX 18 29 0 -7
BITMAP
00E000
00E000
00E000
00E000
03F800
0FFE00
1FFF00
38E780
78E380
70E1C0
70E1C0
60E1C0
E0E1C0
E0E1C0
E0E1C0
70E1C0
70E1C0
70E1C0
38E380
3CE780
1FFF00
0FFE00
03F000
00E000
00E000
00E000
00E000
00E000
00E000
ENDCHAR
STARTCHAR 03D6
ENCODING 982
SWIDTH 780 0
DWIDTH 26 0
BBX 21 18 2 0
BITMAP
FFFC00
FFFF80
1E0FC0
3C01E0
3800F0
700070
700078
707038
707038
707038
707038
707038
707838
707838
38F870
3FFFF0
1FCFE0
078780
ENDCHAR
STARTCHAR 0400
ENCODING 1024
SWIDTH 660 0
DWIDTH 22 0
BBX 17 31 3 0
BITMAP
070000
038000
01C000
00C000
006000
000000
000000
FFFF80
FFFF80
FFFF80
E00000
E00000
E00000
E00000
E00000
E00000
E00000
FFFF00
FFFF00
FFFF00
E00000
E00000
E00000
E00000
E00000
E00000
E00000
E00000
FFFF80
FFFF80
FFFF80
ENDCHAR
STARTCHAR 0401
ENCODING 1025
SWIDTH 660 0
DWIDTH 22 0
BBX 17 30 3 0
BITMAP
0E7800
0E7800
0E7800
000000
000000
000000
FFFF80
FFFF80
FFFF80
E00000
E00000
E00000
E00000
E00000
E00000
E00000
FFFF00
FFFF00
FFFF00
E00000
E00000
E00000
E00000
E00000
E00000
E00000
E00000
FFFF80
FFFF80
FFFF80
ENDCHAR
STARTCHAR 0402
ENCODING 1026
SWIDTH 870 0
DWIDTH 29 0
BBX 25 24 1 0
BITMAP
FFFF0000
FFFF0000
FFFF0000
00E00000
00E00000
00E00000
00E00000
00E00000
00E3F800
00EFFE00
00FFFF00
00F80700
00E00780
00E00380
00E00380
00E00380
00E00380
00E00380
00E00380
00E00380
00E00780
00E1FF00
00E1FE00
00E1FC00
ENDCHAR
STARTCHAR 0403
ENCODING 1027
SWIDTH 540 0
DWIDTH 18 0
BBX 15 31 3 0
BITMAP
01C0
0380
0700
0600
0C00
0000
0000
FFFE
FFFE
FFFE
E000
E000
E000
E000
E000
E000
E000
E000
E000
E000
E000
E000
E000
E000
E000
E000
E000
E000
E000
E000
E000
ENDCHAR
STARTCHAR 0404
ENCODING 1028
SWIDTH 720 0
DWIDTH 24 0
BBX 22 24 1 0
BITMAP
00FE00
07FF80
0FFFE0
1E01F0
3C0078
780038
70003C
E00000
E00000
E00000
FFF800
FFF800
FFF800
E00000
E00000
E0001C
F0001C
70003C
780038
3C0078
1F01F0
0FFFE0
07FF80
00FE00
ENDCHAR
STARTCHAR 0405
ENCODING 1029
SWIDTH 660 0
DWIDTH 22 0
BBX 19 24 2 0
BITMAP
07F800
1FFE00
3FFF00
780780
700380
F001C0
E001C0
F00000
700000
7E0000
3FC000
1FFC00
01FF00
001FC0
0003C0
0001E0
E000E0
E000E0
E001C0
F001C0
7803C0
3FFF80
1FFE00
07F800
ENDCHAR
STARTCHAR 0406
ENCODING 1030
SWIDTH 270 0
DWIDTH 9 0
BBX 3 24 3 0
BITMAP
E0
E0
E0
E0
E0
E0
E0
E0
E0
E0
E0
E0
E0
E0
E0
E0
E0
E0
E0
E0
E0
E0
E0
E0
ENDCHAR
STARTCHAR 0407
ENCODING 1031
SWIDTH 270 0
DWIDTH 9 0
BBX 9 30 0 0
BITMAP
F380
F380
F380
0000
0000
0000
1C00
1C00
1C00
1C00
1C00
1C00
1C00
1C00
1C00
1C00
1C00
1C00
1C00
1C00
1C00
1C00
1C00
1C00
1C00
1C00
1C00
1C00
1C00
1C00
ENDCHAR
STARTCHAR 0408
ENCODING 1032
SWIDTH 510 0
DWIDTH 17 0
BBX 14 24 0 0
BITMAP
001C
001C
001C
001C
001C
001C
001C
001C
001C
001C
001C
001C
001C
001C
001C
001C
F01C
F01C
701C
701C
7838
3FF8
1FF0
0FC0
ENDCHAR
STARTCHAR 0409
ENCODING 1033
SWIDTH 1050 0
DWIDTH 35 0
BBX 33 24 1 0
BITMAP
0FFFE00000
0FFFE00000
0FFFE00000
0E00E00000
0E00E00000
0E00E00000
0E00E00000
0E00E00000
0E00E00000
0E00E00000
0E00FFF000
0E00FFFE00
0E00FFFF00
0E00E00F80
0E00E00780
0E00E00380
0E00E00380
0E00E00380
1E00E00380
1C00E00380
3C00E00780
F800FFFF00
F000FFFE00
E000FFF800
ENDCHAR
STARTCHAR 040A
ENCODING 1034
SWIDTH 1020 0
DWIDTH 34 0
BBX 31 24 2 0
BITMAP
E0070000
E0070000
E0070000
E0070000
E0070000
E0070000
E0070000
E0070000
E0070000
E0070000
FFFFFF80
FFFFFFF0
FFFFFFF8
E007007C
E007001C
E007001E
E007000E
E007000E
E007000E
E007001E
E007003C
E007FFFC
E007FFF8
E007FFE0
ENDCHAR
STARTCHAR 040B
ENCODING 1035
SWIDTH 840 0
DWIDTH 28 0
BBX 24 24 1 0
BITMAP
FFFFC0
FFFFC0
FFFFC0
01E000
01E000
01E000
01E000
01E000
01E7F0
01EFFC
01FFFE
01F80F
01E007
01E007
01E007
01E007
01E007
01E007
01E007
01E007
01E007
01E007
01E007
01E007
ENDCHAR
STARTCHAR 040C
ENCODING 1036
SWIDTH 570 0
DWIDTH 19 0
BBX 16 31 2 0
BITMAP
00F0
01E0
01C0
0380
0700
0000
0000
E01C
E03C
E038
E078
E070
E0E0
E1E0
E1C0
E3C0
E380
FF00
FF00
FF80
E380
E3C0
E1E0
E0E0
E0F0
E078
E038
E03C
E01E
E00E
E00F
ENDCHAR
STARTCHAR 040D
ENCODING 1037
SWIDTH 720 0
DWIDTH 24 0
BBX 18 31 3 0
BITMAP
078000
03C000
01C000
00E000
007000
000000
000000
E001C0
E001C0
E001C0
E001C0
E003C0
E007C0
E00FC0
E01FC0
E03DC0
E079C0
E0F1C0
E1E1C0
E1C1C0
E3C1C0
E781C0
EF01C0
FE01C0
FC01C0
F801C0
F001C0
E001C0
E001C0
E001C0
E001C0
ENDCHAR
STARTCHAR 040E
ENCODING 1038
SWIDTH 630 0
DWIDTH 21 0
BBX 20 30 1 0
BITMAP
060C00
071C00
03FC00
01F000
000000
000000
F000F0
F000E0
7001E0
7801C0
3803C0
3C03C0
1C0380
1E0780
0E0700
0F0F00
070E00
070E00
079C00
039C00
03FC00
01F800
01F800
00F000
00F000
00E000
00E000
0FC000
0FC000
0F8000
ENDCHAR
STARTCHAR 040F
ENCODING 1039
SWIDTH 720 0
DWIDTH 24 0
BBX 18 30 3 -6
BITMAP
E001C0
E001C0
E001C0
E001C0
E001C0
E001C0
E001C0
E001C0
E001C0
E001C0
E001C0
E001C0
E001C0
E001C0
E001C0
E001C0
E001C0
E001C0
E001C0
E001C0
E001C0
FFFFC0
FFFFC0
FFFFC0
01E000
01E000
01E000
01E000
01E000
01E000
ENDCHAR
STARTCHAR 0410
ENCODING 1040
SWIDTH 660 0
DWIDTH 22 0
BBX 21 24 1 0
BITMAP
00F000
00F800
01F800
01F800
01DC00
039C00
039E00
078E00
070E00
070F00
0F0700
0E0700
0E0780
1C0380
1FFF80
1FFFC0
3FFFC0
3801C0
3801E0
7000E0
7000E0
F000F0
E00070
E00078
ENDCHAR
STARTCHAR 0411
ENCODING 1041
SWIDTH 660 0
DWIDTH 22 0
BBX 18 24 3 0
BITMAP
FFFE00
FFFE00
FFFE00
E00000
E00000
E00000
E00000
E00000
E00000
E00000
FFF000
FFFE00
FFFF00
E00F80
E00380
E003C0
E003C0
E001C0
E003C0
E00380
E00780
FFFF00
FFFE00
FFF800
ENDCHAR
STARTCHAR 0412
ENCODING 1042
SWIDTH 660 0
DWIDTH 22 0
BBX 18 24 3 0
BITMAP
FFF800
FFFE00
FFFF00
E00F00
E00780
E00380
E00380
E00380
E00700
E00F00
FFFE00
FFFC00
FFFF00
E00780
E00380
E003C0
E001C0
E001C0
E001C0
E00380
E00780
FFFF00
FFFE00
FFFC00
ENDCHAR
STARTCHAR 0413
ENCODING 1043
SWIDTH 540 0
DWIDTH 18 0
BBX 15 24 3 0
BITMAP
FFFE
FFFE
FFFE
E000
E000
E000
E000
E000
E000
E000
E000
E000
E000
E000
E000
E000
E000
E000
E000
E000
E000
E000
E000
E000
ENDCHAR
STARTCHAR 0414
ENCODING 1044
SWIDTH 690 0
DWIDTH 23 0
BBX 22 30 0 -6
BITMAP
03FFF0
03FFF0
03FFF0
038070
038070
038070
038070
038070
038070
038070
038070
038070
038070
038070
038070
038070
038070
070070
070070
0E0070
1E0070
FFFFFC
FFFFFC
FFFFFC
E0001C
E0001C
E0001C
E0001C
E0001C
E0001C
ENDCHAR
STARTCHAR 0415
ENCODING 1045
SWIDTH 660 0
DWIDTH 22 0
BBX 17 24 3 0
BITMAP
FFFF80
FFFF80
FFFF80
E00000
E00000
E00000
E00000
E00000
E00000
E00000
FFFF00
FFFF00
FFFF00
E00000
E00000
E00000
E00000
E00000
E00000
E00000
E00000
FFFF80
FFFF80
FFFF80
ENDCHAR
STARTCHAR 0416
ENCODING 1046
SWIDTH 930 0
DWIDTH 31 0
BBX 31 24 0 0
BITMAP
78038038
38038078
1C038070
1E0380F0
0E0381E0
0F0381C0
070383C0
03838380
03C38780
01C38F00
01FFFE00
00FFFE00
01FFFF00
01C38700
03838780
078383C0
070381C0
0E0381E0
1E0380F0
1C038070
38038078
7803803C
7003801C
E003801E
ENDCHAR
STARTCHAR 0417
ENCODING 1047
SWIDTH 600 0
DWIDTH 20 0
BBX 16 24 2 0
BITMAP
07E0
1FF8
3FFC
381E
700E
700E
700E
700E
000E
001C
01FC
01F0
01FC
001E
000F
0007
E007
E007
E007
F00F
781E
3FFC
1FF8
07E0
ENDCHAR
STARTCHAR 0418
ENCODING 1048
SWIDTH 720 0
DWIDTH 24 0
BBX 18 24 3 0
BITMAP
E001C0
E001C0
E001C0
E001C0
E003C0
E007C0
E00FC0
E01FC0
E03DC0
E079C0
E0F1C0
E1E1C0
E1C1C0
E3C1C0
E781C0
EF01C0
FE01C0
FC01C0
F801C0
F001C0
E001C0
E001C0
E001C0
E001C0
ENDCHAR
STARTCHAR 0419
ENCODING 1049
SWIDTH 720 0
DWIDTH 24 0
BBX 18 30 3 0
BITMAP
0C0C00
0F3C00
07F800
03E000
000000
000000
E001C0
E001C0
E001C0
E001C0
E003C0
E007C0
E00FC0
E01FC0
E03DC0
E079C0
E0F1C0
E1E1C0
E1C1C0
E3C1C0
E781C0
EF01C0
FE01C0
FC01C0
F801C0
F001C0
E001C0
E001C0
E001C0
E001C0
ENDCHAR
STARTCHAR 041A
ENCODING 1050
SWIDTH 570 0
DWIDTH 19 0
BBX 16 24 2 0
BITMAP
E01C
E03C
E038
E078
E070
E0E0
E1E0
E1C0
E3C0
E380
FF80
FF00
FF80
E380
E1C0
E1E0
E0E0
E070
E078
E038
E01C
E01E
E00E
E007
ENDCHAR
STARTCHAR 041B
ENCODING 1051
SWIDTH 660 0
DWIDTH 22 0
BBX 20 24 0 0
BITMAP
0FFFF0
0FFFF0
0FFFF0
0E0070
0E0070
0E0070
0E0070
0E0070
0E0070
0E0070
0E0070
0E0070
0E0070
0E0070
0E0070
0E0070
0E0070
0E0070
0E0070
1C0070
3C0070
F80070
F00070
E00070
ENDCHAR
STARTCHAR 041C
ENCODING 1052
SWIDTH 840 0
DWIDTH 28 0
BBX 23 24 2 0
BITMAP
F8001E
F8001E
FC003E
FC003E
EC007E
EE007E
EE007E
E600EE
E700EE
E700CE
E301CE
E381CE
E3818E
E1838E
E1C38E
E1C30E
E0C70E
E0E70E
E0E60E
E06E0E
E07E0E
E07C0E
E03C0E
E03C0E
ENDCHAR
STARTCHAR 041D
ENCODING 1053
SWIDTH 720 0
DWIDTH 24 0
BBX 18 24 3 0
BITMAP
E001C0
E001C0
E001C0
E001C0
E001C0
E001C0
E001C0
E001C0
E001C0
E001C0
FFFFC0
FFFFC0
FFFFC0
E001C0
E001C0
E001C0
E001C0
E001C0
E001C0
E001C0
E001C0
E001C0
E001C0
E001C0
ENDCHAR
STARTCHAR 041E
ENCODING 1054
SWIDTH 780 0
DWIDTH 26 0
BBX 24 24 1 0
BITMAP
00FF00
03FFC0
0FFFF0
1F00F8
1E0078
3C003C
78001E
70000E
70000E
F0000E
E0000F
E00007
E00007
E00007
F0000F
70000E
70000E
78001E
3C003C
3E0078
1F00F0
0FFFE0
03FFC0
00FE00
ENDCHAR
STARTCHAR 041F
ENCODING 1055
SWIDTH 720 0
DWIDTH 24 0
BBX 18 24 3 0
BITMAP
FFFFC0
FFFFC0
FFFFC0
E001C0
E001C0
E001C0
E001C0
E001C0
E001C0
E001C0
E001C0
E001C0
E001C0
E001C0
E001C0
E001C0
E001C0
E001C0
E001C0
E001C0
E001C0
E001C0
E001C0
E001C0
ENDCHAR
STARTCHAR 0420
ENCODING 1056
SWIDTH 660 0
DWIDTH 22 0
BBX 18 24 3 0
BITMAP
FFF800
FFFE00
FFFF00
E00780
E00380
E003C0
E003C0
E003C0
E00380
E00380
E00F80
FFFF00
FFFE00
FFF000
E00000
E00000
E00000
E00000
E00000
E00000
E00000
E00000
E00000
E00000
ENDCHAR
STARTCHAR 0421
ENCODING 1057
SWIDTH 720 0
DWIDTH 24 0
BBX 22 24 1 0
BITMAP
00FE00
03FFC0
0FFFE0
1F01F0
1C0078
380038
380038
700038
700000
700000
700000
F00000
F00000
F00000
700000
70003C
70003C
780038
3C0038
1E0070
1F01F0
0FFFE0
03FF80
00FE00
ENDCHAR
STARTCHAR 0422
ENCODING 1058
SWIDTH 600 0
DWIDTH 20 0
BBX 19 24 1 0
BITMAP
FFFFE0
FFFFE0
FFFFE0
00E000
00E000
00E000
00E000
00E000
00E000
00E000
00E000
00E000
00E000
00E000
00E000
00E000
00E000
00E000
00E000
00E000
00E000
00E000
00E000
00E000
ENDCHAR
STARTCHAR 0423
ENCODING 1059
SWIDTH 630 0
DWIDTH 21 0
BBX 20 24 1 0
BITMAP
F000F0
F000E0
7001E0
7801C0
3803C0
3C03C0
1C0380
1E0780
0E0700
0F0F00
070E00
070E00
079C00
039C00
03FC00
01F800
01F800
00F000
00F000
00E000
00E000
0FC000
0FC000
0F8000
ENDCHAR
STARTCHAR 0424
ENCODING 1060
SWIDTH 750 0
DWIDTH 25 0
BBX 23 24 1 0
BITMAP
003800
003800
003800
01FF80
0FFFE0
1FFFF8
3C387C
78383C
70381E
F0380E
E0380E
E0380E
E0380E
E0380E
F0380E
70381E
78383C
3C387C
1FFFF8
0FFFE0
01FF80
003800
003800
003800
ENDCHAR
STARTCHAR 0425
ENCODING 1061
SWIDTH 660 0
DWIDTH 22 0
BBX 20 24 1 0
BITMAP
7000F0
7801E0
3C01C0
1C03C0
1E0780
0F0700
070F00
079E00
03DC00
01F800
01F800
00F000
00F800
01F800
03FC00
039E00
070E00
0F0F00
1E0780
1C0380
3C03C0
7801E0
7000F0
F000F0
ENDCHAR
STARTCHAR 0426
ENCODING 1062
SWIDTH 750 0
DWIDTH 25 0
BBX 20 30 3 -6
BITMAP
E001C0
E001C0
E001C0
E001C0
E001C0
E001C0
E001C0
E001C0
E001C0
E001C0
E001C0
E001C0
E001C0
E001C0
E001C0
E001C0
E001C0
E001C0
E001C0
E001C0
E001C0
FFFFF0
FFFFF0
FFFFF0
000070
000070
000070
000070
000070
000070
ENDCHAR
STARTCHAR 0427
ENCODING 1063
SWIDTH 660 0
DWIDTH 22 0
BBX 18 24 2 0
BITMAP
E001C0
E001C0
E001C0
E001C0
E001C0
E001C0
E001C0
E001C0
E001C0
E001C0
E001C0
E001C0
F807C0
7FFFC0
3FFFC0
03E1C0
0001C0
0001C0
0001C0
0001C0
0001C0
0001C0
0001C0
0001C0
ENDCHAR
STARTCHAR 0428
ENCODING 1064
SWIDTH 930 0
DWIDTH 31 0
BBX 27 24 2 0
BITMAP
E00E00E0
E00E00E0
E00E00E0
E00E00E0
E00E00E0
E00E00E0
E00E00E0
E00E00E0
E00E00E0
E00E00E0
E00E00E0
E00E00E0
E00E00E0
E00E00E0
E00E00E0
E00E00E0
E00E00E0
E00E00E0
E00E00E0
E00E00E0
E00E00E0
FFFFFFE0
FFFFFFE0
FFFFFFE0
ENDCHAR
STARTCHAR 0429
ENCODING 1065
SWIDTH 930 0
DWIDTH 31 0
BBX 29 29 2 -5
BITMAP
E00E00E0
E00E00E0
E00E00E0
E00E00E0
E00E00E0
E00E00E0
E00E00E0
E00E00E0
E00E00E0
E00E00E0
E00E00E0
E00E00E0
E00E00E0
E00E00E0
E00E00E0
E00E00E0
E00E00E0
E00E00E0
E00E00E0
E00E00E0
E00E00E0
FFFFFFF8
FFFFFFF8
FFFFFFF8
00000038
00000038
00000038
00000038
00000038
ENDCHAR
STARTCHAR 042A
ENCODING 1066
SWIDTH 780 0
DWIDTH 26 0
BBX 26 24 -1 0
BITMAP
FFF00000
FFF00000
FFF00000
00700000
00700000
00700000
00700000
00700000
00700000
00700000
007FF800
007FFF00
007FFF80
007007C0
007003C0
007001C0
007001C0
007001C0
007001C0
007001C0
007003C0
007FFF80
007FFF00
007FFC00
ENDCHAR
STARTCHAR 042B
ENCODING 1067
SWIDTH 900 0
DWIDTH 30 0
BBX 24 24 3 0
BITMAP
E00007
E00007
E00007
E00007
E00007
E00007
E00007
E00007
E00007
E00007
FFF007
FFFE07
FFFF07
E00F87
E003C7
E001C7
E001C7
E001C7
E001C7
E003C7
E00787
FFFF87
FFFF07
FFFC07
ENDCHAR
STARTCHAR 042C
ENCODING 1068
SWIDTH 660 0
DWIDTH 22 0
BBX 18 24 3 0
BITMAP
E00000
E00000
E00000
E00000
E00000
E00000
E00000
E00000
E00000
E00000
FFF000
FFFE00
FFFF00
E00F80
E00380
E003C0
E001C0
E001C0
E003C0
E00380
E00780
FFFF00
FFFE00
FFF800
ENDCHAR
STARTCHAR 042D
ENCODING 1069
SWIDTH 720 0
DWIDTH 24 0
BBX 22 24 1 0
BITMAP
01FE00
07FF80
1FFFC0
3E01E0
7800F0
700078
E00038
00001C
00001C
00001C
007FFC
007FFC
007FFC
00001C
00001C
E0001C
E0003C
F00038
700078
7800F0
3E01E0
1FFFC0
07FF80
01FC00
ENDCHAR
STARTCHAR 042E
ENCODING 1070
SWIDTH 1020 0
DWIDTH 34 0
BBX 30 24 2 0
BITMAP
E000FE00
E003FF80
E007FFE0
E01F01F0
E01E00F0
E03C0078
E0380038
E070003C
E070001C
E070001C
FFF0001C
FFF0001C
FFF0001C
E070001C
E070001C
E070001C
E070003C
E0780038
E03C0078
E01E00F0
E01F01F0
E00FFFE0
E003FF80
E000FE00
ENDCHAR
STARTCHAR 042F
ENCODING 1071
SWIDTH 720 0
DWIDTH 24 0
BBX 19 24 2 0
BITMAP
07FFE0
1FFFE0
3FFFE0
7800E0
7000E0
7000E0
7000E0
7000E0
7000E0
7800E0
3C00E0
1FFFE0
0FFFE0
3FFFE0
3800E0
7800E0
7000E0
7000E0
7000E0
7000E0
7000E0
7000E0
7000E0
F000E0
ENDCHAR
STARTCHAR 0430
ENCODING 1072
SWIDTH 570 0
DWIDTH 19 0
BBX 17 18 1 0
BITMAP
07F000
1FF800
3FFC00
381E00
700E00
700E00
000E00
007E00
1FFE00
3FCE00
780E00
700E00
E00E00
E01E00
703E00
7DFF00
3FEF80
1F8780
ENDCHAR
STARTCHAR 0431
ENCODING 1073
SWIDTH 570 0
DWIDTH 19 0
BBX 15 26 2 0
BITMAP
0038
0030
0070
01F0
0FE0
1FC0
3C00
7000
67E0
6FF0
FFF8
F83C
F01E
E00E
E00E
E00E
E006
E006
E006
E00E
E00E
F01E
783C
3FF8
1FF0
07C0
ENDCHAR
STARTCHAR 0432
ENCODING 1074
SWIDTH 540 0
DWIDTH 18 0
BBX 15 18 2 0
BITMAP
FFE0
FFF8
E07C
E01C
E01C
E01C
E03C
FFF8
FFF8
E07C
E01C
E00E
E00E
E00E
E01E
E07C
FFFC
FFF0
ENDCHAR
STARTCHAR 0433
ENCODING 1075
SWIDTH 360 0
DWIDTH 12 0
BBX 11 18 2 0
BITMAP
FFE0
FFE0
E000
E000
E000
E000
E000
E000
E000
E000
E000
E000
E000
E000
E000
E000
E000
E000
ENDCHAR
STARTCHAR 0434
ENCODING 1076
SWIDTH 570 0
DWIDTH 19 0
BBX 17 21 1 -3
BITMAP
07FF00
07FF00
060700
060700
060700
060700
0E0700
0E0700
0E0700
0E0700
0C0700
1C0700
1C0700
380700
780700
F00700
FFFF80
FFFF80
C00380
C00380
C00380
ENDCHAR
STARTCHAR 0435
ENCODING 1077
SWIDTH 570 0
DWIDTH 19 0
BBX 16 18 1 0
BITMAP
03E0
0FF8
1FFC
381E
700E
7007
7007
6007
FFFF
FFFF
E000
6000
7007
7006
380E
3FFC
1FF8
07E0
ENDCHAR
STARTCHAR 0436
ENCODING 1078
SWIDTH 660 0
DWIDTH 22 0
BBX 23 18 0 0
BITMAP
703838
383878
383870
1C38F0
1C38E0
0E39E0
0E39C0
07FFC0
07FF80
0F39C0
0E39E0
1C38E0
1C38F0
383870
783838
703838
F0381C
E0381E
ENDCHAR
STARTCHAR 0437
ENCODING 1079
SWIDTH 450 0
DWIDTH 15 0
BBX 13 18 1 0
BITMAP
0F80
1FE0
3FF0
7070
7070
7030
0070
01E0
07C0
07E0
0070
0038
E038
E038
7070
7FF0
3FE0
0F80
ENDCHAR
STARTCHAR 0438
ENCODING 1080
SWIDTH 570 0
DWIDTH 19 0
BBX 13 18 3 0
BITMAP
C038
C038
C078
C078
C0F8
C1F8
C1F8
C3B8
C738
CE38
CE38
DC38
F838
F838
F038
E038
C038
C038
ENDCHAR
STARTCHAR 0439
ENCODING 1081
SWIDTH 570 0
DWIDTH 19 0
BBX 13 24 3 0
BITMAP
6060
39E0
3FC0
0F80
0000
0000
C038
C038
C078
C078
C0F8
C1F8
C1F8
C3B8
C738
CE38
CE38
DC38
F838
F838
F038
E038
C038
C038
ENDCHAR
STARTCHAR 043A
ENCODING 1082
SWIDTH 450 0
DWIDTH 15 0
BBX 14 18 1 0
BITMAP
E038
E070
E070
E0E0
E0E0
E1C0
E1C0
FF80
FF80
E3C0
E1C0
E0E0
E0F0
E070
E078
E038
E01C
E01C
ENDCHAR
STARTCHAR 043B
ENCODING 1083
SWIDTH 570 0
DWIDTH 19 0
BBX 16 18 1 0
BITMAP
1FFF
1FFF
1C07
1C07
1C07
1C07
1C07
1C07
1C07
1C07
1C07
1C07
1807
3807
3807
F007
F007
C007
ENDCHAR
STARTCHAR 043C
ENCODING 1084
SWIDTH 690 0
DWIDTH 23 0
BBX 20 18 1 0
BITMAP
F800F0
F800F0
FC01F0
EC01B0
EC03B0
EE03B0
E60330
E70730
E70630
E30630
E38E30
E18C30
E19C30
E1DC30
E0D830
E0F830
E0F030
E07030
ENDCHAR
STARTCHAR 043D
ENCODING 1085
SWIDTH 540 0
DWIDTH 18 0
BBX 14 18 2 0
BITMAP
E01C
E01C
E01C
E01C
E01C
E01C
E01C
E01C
FFFC
FFFC
E01C
E01C
E01C
E01C
E01C
E01C
E01C
E01C
ENDCHAR
STARTCHAR 043E
ENCODING 1086
SWIDTH 570 0
DWIDTH 19 0
BBX 16 18 1 0
BITMAP
07E0
1FF8
3FFC
381E
700E
7007
7007
E007
E007
E007
E007
7007
7007
700E
381E
3FFC
1FF8
07E0
ENDCHAR
STARTCHAR 043F
ENCODING 1087
SWIDTH 540 0
DWIDTH 18 0
BBX 14 18 2 0
BITMAP
FFFC
FFFC
E01C
E01C
E01C
E01C
E01C
E01C
E01C
E01C
E01C
E01C
E01C
E01C
E01C
E01C
E01C
E01C
ENDCHAR
STARTCHAR 0440
ENCODING 1088
SWIDTH 570 0
DWIDTH 19 0
BBX 16 24 2 -6
BITMAP
E3E0
EFF8
FFFC
F83C
F01E
E00E
E00E
E006
E007
E007
E007
E00E
E00E
F01E
F83C
FFFC
EFF8
E7E0
E000
E000
E000
E000
E000
E000
ENDCHAR
STARTCHAR 0441
ENCODING 1089
SWIDTH 510 0
DWIDTH 17 0
BBX 15 18 1 0
BITMAP
07E0
1FF8
3FF8
781C
701C
700E
E000
E000
E000
E000
E000
E00E
F00E
701C
781C
3FF8
1FF0
07E0
ENDCHAR
STARTCHAR 0442
ENCODING 1090
SWIDTH 450 0
DWIDTH 15 0
BBX 13 18 1 0
BITMAP
FFF8
FFF8
0700
0700
0700
0700
0700
0700
0700
0700
0700
0700
0700
0700
0700
0700
0700
0700
ENDCHAR
STARTCHAR 0443
ENCODING 1091
SWIDTH 510 0
DWIDTH 17 0
BBX 15 25 1 -7
BITMAP
E00E
E01C
701C
701C
7038
3038
3838
3870
1870
1C70
1CE0
1CE0
0EC0
0FC0
0FC0
0780
0780
0780
0700
0700
0700
0E00
7E00
7C00
7800
ENDCHAR
STARTCHAR 0444
ENCODING 1092
SWIDTH 810 0
DWIDTH 27 0
BBX 23 29 2 -7
BITMAP
003800
003800
003800
003800
01FF00
07FFE0
1FFFF0
3E3878
38383C
70381C
70380E
70380E
E0380E
E0380E
E0380E
70380E
70380E
78381C
38383C
1E38F8
0FFFF0
07FFC0
00FE00
003800
003800
003800
003800
003800
003800
ENDCHAR
STARTCHAR 0445
ENCODING 1093
SWIDTH 510 0
DWIDTH 17 0
BBX 15 18 1 0
BITMAP
F01C
701C
3838
3870
1C70
0EE0
0FC0
07C0
0380
0780
07C0
0EE0
1CE0
1C70
3878
7038
701C
E01E
ENDCHAR
STARTCHAR 0446
ENCODING 1094
SWIDTH 570 0
DWIDTH 19 0
BBX 14 23 3 -5
BITMAP
E038
E038
E038
E038
E038
E038
E038
E038
E038
E038
E038
E038
E038
E038
E038
E038
FFFC
FFFC
001C
001C
001C
001C
001C
ENDCHAR
STARTCHAR 0447
ENCODING 1095
SWIDTH 510 0
DWIDTH 17 0
BBX 13 18 2 0
BITMAP
E038
E038
E038
E038
E038
E038
E038
E038
E038
FFF8
7FF8
1FB8
0038
0038
0038
0038
0038
0038
ENDCHAR
STARTCHAR 0448
ENCODING 1096
SWIDTH 810 0
DWIDTH 27 0
BBX 23 18 2 0
BITMAP
E0380E
E0380E
E0380E
E0380E
E0380E
E0380E
E0380E
E0380E
E0380E
E0380E
E0380E
E0380E
E0380E
E0380E
E0380E
E0380E
FFFFFE
FFFFFE
ENDCHAR
STARTCHAR 0449
ENCODING 1097
SWIDTH 810 0
DWIDTH 27 0
BBX 24 23 2 -5
BITMAP
E0380E
E0380E
E0380E
E0380E
E0380E
E0380E
E0380E
E0380E
E0380E
E0380E
E0380E
E0380E
E0380E
E0380E
E0380E
E0380E
FFFFFF
FFFFFF
000007
000007
000007
000007
000007
ENDCHAR
STARTCHAR 044A
ENCODING 1098
SWIDTH 630 0
DWIDTH 21 0
BBX 21 18 -1 0
BITMAP
FFC000
FFC000
01C000
01C000
01C000
01C000
01C000
01FFC0
01FFF0
01C0F8
01C038
01C038
01C038
01C038
01C038
01C0F8
01FFF0
01FFC0
ENDCHAR
STARTCHAR 044B
ENCODING 1099
SWIDTH 720 0
DWIDTH 24 0
BBX 18 18 3 0
BITMAP
C001C0
C001C0
C001C0
C001C0
C001C0
C001C0
C001C0
C001C0
FFF1C0
FFF9C0
C039C0
C01DC0
C01DC0
C01DC0
C039C0
C0F9C0
FFF1C0
FFE1C0
ENDCHAR
STARTCHAR 044C
ENCODING 1100
SWIDTH 510 0
DWIDTH 17 0
BBX 14 18 2 0
BITMAP
E000
E000
E000
E000
E000
E000
E000
E000
FFF0
FFF8
E03C
E01C
E01C
E01C
E01C
E07C
FFF8
FFE0
ENDCHAR
STARTCHAR 044D
ENCODING 1101
SWIDTH 510 0
DWIDTH 17 0
BBX 15 18 1 0
BITMAP
0FC0
1FF0
3FF8
783C
F01C
E00E
000E
000E
03FE
03FE
000E
600E
E00E
F01C
703C
7FF8
3FF0
0FC0
ENDCHAR
STARTCHAR 044E
ENCODING 1102
SWIDTH 750 0
DWIDTH 25 0
BBX 22 18 2 0
BITMAP
C01F80
C03FE0
C0FFF0
C0E078
C1C03C
C1C01C
C1C01C
FF801C
FF801C
C3801C
C1801C
C1C01C
C1C01C
C1E038
C0F078
C0FFF0
C07FE0
C01F80
ENDCHAR
STARTCHAR 044F
ENCODING 1103
SWIDTH 540 0
DWIDTH 18 0
BBX 14 18 1 0
BITMAP
0FFC
3FFC
7C0C
700C
600C
E00C
700C
700C
3FFC
1FFC
1E0C
380C
380C
300C
300C
300C
300C
700C
ENDCHAR
STARTCHAR 0450
ENCODING 1104
SWIDTH 570 0
DWIDTH 19 0
BBX 16 24 1 0
BITMAP
0F00
0700
0380
00C0
0000
0000
03E0
0FF8
1FFC
381E
700E
7007
7007
E007
FFFF
FFFF
E000
6000
7007
700E
381E
3FFC
1FF8
07E0
ENDCHAR
STARTCHAR 0451
ENCODING 1105
SWIDTH 570 0
DWIDTH 19 0
BBX 16 24 1 0
BITMAP
0E78
0E78
0E78
0000
0000
0000
03E0
0FF8
1FFC
381E
780E
7007
7007
6007
FFFF
FFFF
E000
7000
7007
7006
380E
3FFC
1FF8
07E0
ENDCHAR
STARTCHAR 0452
ENCODING 1106
SWIDTH 570 0
DWIDTH 19 0
BBX 17 29 -1 -5
BITMAP
0C0000
0C0000
FFC000
FFC000
0C0000
0C0000
0C3C00
0CFF00
0DFF80
0F8380
0F0380
0E0180
0C0180
0C0180
0C0180
0C0180
0C0180
0C0180
0C0180
0C0180
0C0180
0C0180
0C0180
0C0380
000380
000780
01FF00
01FE00
01F000
ENDCHAR
STARTCHAR 0453
ENCODING 1107
SWIDTH 360 0
DWIDTH 12 0
BBX 11 24 2 0
BITMAP
0780
0700
0E00
1800
0000
0000
FFE0
FFE0
E000
E000
E000
E000
E000
E000
E000
E000
E000
E000
E000
E000
E000
E000
E000
E000
ENDCHAR
STARTCHAR 0454
ENCODING 1108
SWIDTH 510 0
DWIDTH 17 0
BBX 15 18 1 0
BITMAP
07E0
1FF0
3FFC
783C
701E
E00E
E000
E000
FF80
FF80
E000
E00C
E00E
700E
781C
3FFC
1FF0
07E0
ENDCHAR
STARTCHAR 0455
ENCODING 1109
SWIDTH 510 0
DWIDTH 17 0
BBX 14 18 1 0
BITMAP
0FC0
3FF0
7FF8
7038
701C
7000
7000
7E00
3FE0
0FF8
00FC
001C
E01C
E01C
701C
7FF8
3FF0
0FC0
ENDCHAR
STARTCHAR 0456
ENCODING 1110
SWIDTH 210 0
DWIDTH 7 0
BBX 3 24 2 0
BITMAP
E0
E0
E0
E0
00
00
E0
E0
E0
E0
E0
E0
E0
E0
E0
E0
E0
E0
E0
E0
E0
E0
E0
E0
ENDCHAR
STARTCHAR 0457
ENCODING 1111
SWIDTH 270 0
DWIDTH 9 0
BBX 9 24 0 0
BITMAP
F380
F380
F380
0000
0000
0000
1C00
1C00
1C00
1C00
1C00
1C00
1C00
1C00
1C00
1C00
1C00
1C00
1C00
1C00
1C00
1C00
1C00
1C00
ENDCHAR
STARTCHAR 0458
ENCODING 1112
SWIDTH 210 0
DWIDTH 7 0
BBX 6 31 -1 -7
BITMAP
1C
1C
1C
1C
00
00
1C
1C
1C
1C
1C
1C
1C
1C
1C
1C
1C
1C
1C
1C
1C
1C
1C
1C
1C
1C
1C
1C
FC
F8
E0
ENDCHAR
STARTCHAR 0459
ENCODING 1113
SWIDTH 900 0
DWIDTH 30 0
BBX 27 18 1 0
BITMAP
1FFF0000
1FFF0000
1C070000
1C070000
1C070000
1C070000
1C070000
1C07FF00
1C07FFC0
1C0703C0
1C0700E0
1C0700E0
180700E0
380700E0
380700E0
F00703E0
F007FFC0
C007FF00
ENDCHAR
STARTCHAR 045A
ENCODING 1114
SWIDTH 810 0
DWIDTH 27 0
BBX 25 18 2 0
BITMAP
E0180000
E0180000
E0180000
E0180000
E0180000
E0180000
E0180000
E0180000
FFFFFC00
FFFFFF00
E0180700
E0180700
E0180380
E0180300
E0180700
E0181F00
E01FFE00
E01FFC00
ENDCHAR
STARTCHAR 045B
ENCODING 1115
SWIDTH 570 0
DWIDTH 19 0
BBX 17 24 -1 0
BITMAP
0C0000
0C0000
FFC000
FFC000
0C0000
0C0000
0C3C00
0CFF00
0DFF80
0F8380
0F0380
0E0180
0C0180
0C0180
0C0180
0C0180
0C0180
0C0180
0C0180
0C0180
0C0180
0C0180
0C0180
0C0180
ENDCHAR
STARTCHAR 045C
ENCODING 1116
SWIDTH 450 0
DWIDTH 15 0
BBX 14 24 1 0
BITMAP
01C0
0380
0700
0E00
0000
0000
E038
E070
E070
E0E0
E0E0
E1C0
E1C0
FF80
FF80
E3C0
E1C0
E0E0
E0F0
E070
E078
E038
E01C
E01C
ENDCHAR
STARTCHAR 045D
ENCODING 1117
SWIDTH 570 0
DWIDTH 19 0
BBX 13 24 3 0
BITMAP
3800
1C00
0E00
0600
0000
0000
C038
C038
C078
C078
C0F8
C1F8
C1F8
C3B8
C738
CE38
CE38
DC38
F838
F838
F038
E038
C038
C038
ENDCHAR
STARTCHAR 045E
ENCODING 1118
SWIDTH 510 0
DWIDTH 17 0
BBX 15 31 1 -7
BITMAP
3030
1CF0
1FE0
07C0
0000
0000
E00E
E01C
701C
701C
7038
3038
3838
3870
1870
1C70
1CE0
1CE0
0EC0
0FC0
0FC0
0780
0780
0780
0700
0700
0700
0E00
7E00
7C00
7800
ENDCHAR
STARTCHAR 045F
ENCODING 1119
SWIDTH 540 0
DWIDTH 18 0
BBX 13 23 3 -5
BITMAP
E038
E038
E038
E038
E038
E038
E038
E038
E038
E038
E038
E038
E038
E038
E038
E038
FFF8
FFF8
0700
0700
0700
0700
0700
ENDCHAR
STARTCHAR 0462
ENCODING 1122
SWIDTH 780 0
DWIDTH 26 0
BBX 24 24 0 0
BITMAP
038000
038000
038000
FFFF00
FFFF00
FFFF00
038000
038000
038000
038000
03FFE0
03FFFC
03FFFE
03801F
03800F
038007
038007
038007
038007
038007
03800F
03FFFE
03FFFC
03FFF0
ENDCHAR
STARTCHAR 0463
ENCODING 1123
SWIDTH 600 0
DWIDTH 20 0
BBX 16 23 2 0
BITMAP
3800
3800
3800
3800
3800
FF00
FF00
3800
3800
3800
3800
3800
3FF8
3FFE
381E
3807
3807
3807
3807
3807
381E
3FFE
3FF8
ENDCHAR
STARTCHAR 0472
ENCODING 1138
SWIDTH 780 0
DWIDTH 26 0
BBX 24 24 1 0
BITMAP
00FF00
03FFC0
0FFFF0
1F00F8
1E0078
3C003C
78001E
70000E
70000E
F0000E
E3E00F
FFF81F
FFFFFF
F01FEF
F0020F
70000E
70000E
78001E
3C003C
3E0078
1F00F8
0FFFF0
03FFC0
00FF00
ENDCHAR
STARTCHAR 0473
ENCODING 1139
SWIDTH 570 0
DWIDTH 19 0
BBX 16 18 1 0
BITMAP
07E0
0FF8
3FFC
381E
780E
7007
7007
E707
FFDF
FFFF
E0F7
7007
7007
700E
381E
3FFC
1FF8
07E0
ENDCHAR
STARTCHAR 0474
ENCODING 1140
SWIDTH 810 0
DWIDTH 27 0
BBX 22 24 3 0
BITMAP
E0003C
F000FC
7000FC
7001E0
7801C0
3801C0
380380
1C0380
1C0380
1C0380
0E0700
0E0700
0E0700
070E00
070E00
070E00
038C00
039C00
019C00
01D800
01F800
00F800
00F000
00F000
ENDCHAR
STARTCHAR 0475
ENCODING 1141
SWIDTH 630 0
DWIDTH 21 0
BBX 16 18 3 0
BITMAP
E00F
E01F
F03D
7038
7038
7830
3870
3870
1C60
1C60
1CE0
0CE0
0EC0
0EC0
07C0
07C0
0780
0380
ENDCHAR
STARTCHAR 0490
ENCODING 1168
SWIDTH 480 0
DWIDTH 16 0
BBX 19 29 2 0
BITMAP
0001E0
0001C0
000380
000700
000600
FFFC00
FFFC00
FFFC00
E00000
E00000
E00000
E00000
E00000
E00000
E00000
E00000
E00000
E00000
E00000
E00000
E00000
E00000
E00000
E00000
E00000
E00000
E00000
E00000
E00000
ENDCHAR
STARTCHAR 0491
ENCODING 1169
SWIDTH 420 0
DWIDTH 14 0
BBX 15 23 3 0
BITMAP
001E
001C
0038
0070
0060
FFC0
FFC0
E000
E000
E000
E000
E000
E000
E000
E000
E000
E000
E000
E000
E000
E000
E000
E000
ENDCHAR
STARTCHAR 0492
ENCODING 1170
SWIDTH 540 0
DWIDTH 18 0
BBX 17 24 1 0
BITMAP
3FFF80
3FFF80
3FFF80
380000
380000
380000
380000
380000
380000
380000
FFF800
FFF800
FFF800
380000
380000
380000
380000
380000
380000
380000
380000
380000
380000
380000
ENDCHAR
STARTCHAR 0493
ENCODING 1171
SWIDTH 390 0
DWIDTH 13 0
BBX 12 18 1 0
BITMAP
7FF0
7FF0
7000
7000
7000
7000
7000
FF80
FF80
7000
7000
7000
7000
7000
7000
7000
7000
7000
ENDCHAR
STARTCHAR 0496
ENCODING 1174
SWIDTH 1020 0
DWIDTH 34 0
BBX 34 29 0 -5
BITMAP
3801C01E00
3C01C01C00
1E01C03800
0E01C07800
0F01C07000
0701C0F000
0781C0E000
03C1C1E000
01C1C3C000
01E1C38000
00FFFF8000
00FFFF0000
00FFFF8000
01C1C3C000
03C1C1C000
0381C1E000
0701C0F000
0F01C07000
0E01C07800
1E01C03C00
3C01C01C00
3801C01FC0
7801C00FC0
F001C007C0
00000001C0
00000001C0
00000001C0
00000001C0
00000001C0
ENDCHAR
STARTCHAR 0497
ENCODING 1175
SWIDTH 810 0
DWIDTH 27 0
BBX 27 23 0 -5
BITMAP
380C0700
380C0700
1C0C0E00
1E0C0E00
0E0C1C00
0F0C1C00
070C3800
07FFF800
07FFF800
070C3800
0F0C1C00
0E0C1C00
1C0C0E00
1C0C0F00
380C0700
780C07E0
700C03E0
F00C01E0
000000E0
000000E0
000000E0
000000E0
000000E0
ENDCHAR
STARTCHAR 0498
ENCODING 1176
SWIDTH 600 0
DWIDTH 20 0
BBX 16 31 2 -7
BITMAP
07E0
1FF8
3FFC
3C1E
780E
700E
700F
700E
000E
001E
00FC
01F0
01FC
003E
000F
0007
0007
E007
E007
F007
700F
7C1E
3FFC
1FF8
03C0
0100
03E0
0060
0060
1CE0
07C0
ENDCHAR
STARTCHAR 0499
ENCODING 1177
SWIDTH 450 0
DWIDTH 15 0
BBX 13 25 1 -7
BITMAP
0F80
1FE0
3FF0
7070
7070
7030
0070
00F0
07E0
07E0
01F0
0078
0038
E038
7038
7070
7FF0
3FE0
0F00
0600
07C0
01C0
00C0
3BC0
1F00
ENDCHAR
STARTCHAR 049A
ENCODING 1178
SWIDTH 660 0
DWIDTH 22 0
BBX 18 30 3 -6
BITMAP
E01C00
E03C00
E03800
E07800
E0F000
E0E000
E1E000
E1C000
E3C000
E78000
FF0000
FF0000
FF8000
E38000
E3C000
E1E000
E0E000
E0F000
E07800
E03800
E03C00
E01FC0
E00FC0
E00FC0
0001C0
0001C0
0001C0
0001C0
0001C0
0001C0
ENDCHAR
STARTCHAR 049B
ENCODING 1179
SWIDTH 540 0
DWIDTH 18 0
BBX 16 23 2 -5
BITMAP
E038
E078
E070
E0F0
E0E0
E1E0
E1C0
FFC0
FF80
E1C0
E1E0
E0E0
E0F0
E070
E078
E03F
E01F
E01F
0007
0007
0007
0007
0007
ENDCHAR
STARTCHAR 049C
ENCODING 1180
SWIDTH 630 0
DWIDTH 21 0
BBX 17 24 3 0
BITMAP
E00F00
E00E00
E01C00
E03C00
E63800
E67800
E67000
E6E000
E7E000
E7C000
FFC000
FF8000
FFC000
E7E000
E6E000
E6F000
E67800
E63800
E63C00
E01E00
E00E00
E00F00
E00780
E00380
ENDCHAR
STARTCHAR 049D
ENCODING 1181
SWIDTH 510 0
DWIDTH 17 0
BBX 15 18 2 0
BITMAP
E038
E078
E070
E6F0
E6E0
E7E0
E7C0
FFC0
FF80
E7C0
E7E0
E6E0
E6F0
E670
E078
E038
E01C
E01E
ENDCHAR
STARTCHAR 04A0
ENCODING 1184
SWIDTH 570 0
DWIDTH 19 0
BBX 25 24 -7 0
BITMAP
FFF00E00
FFF01E00
FFF01C00
00703C00
00703800
00707000
0070F000
0070E000
0071E000
0071C000
007FC000
007F8000
007FC000
0071C000
0070E000
0070F000
00707000
00703800
00703C00
00701C00
00700E00
00700F00
00700700
00700380
ENDCHAR
STARTCHAR 04A1
ENCODING 1185
SWIDTH 450 0
DWIDTH 15 0
BBX 21 18 -6 0
BITMAP
FFC070
FFC0E0
01C0E0
01C1C0
01C1C0
01C380
01C380
01FF00
01FF00
01C780
01C380
01C1C0
01C1E0
01C0E0
01C0F0
01C070
01C038
01C038
ENDCHAR
STARTCHAR 04A2
ENCODING 1186
SWIDTH 720 0
DWIDTH 24 0
BBX 20 29 3 -5
BITMAP
E001C0
E001C0
E001C0
E001C0
E001C0
E001C0
E001C0
E001C0
E001C0
E001C0
FFFFC0
FFFFC0
FFFFC0
E001C0
E001C0
E001C0
E001C0
E001C0
E001C0
E001C0
E001C0
E001F0
E001F0
E001F0
000070
000070
000070
000070
000070
ENDCHAR
STARTCHAR 04A3
ENCODING 1187
SWIDTH 540 0
DWIDTH 18 0
BBX 15 23 2 -5
BITMAP
E01C
E01C
E01C
E01C
E01C
E01C
E01C
E01C
FFFC
FFFC
E01C
E01C
E01C
E01C
E01C
E01C
E01E
E01E
000E
000E
000E
000E
000E
ENDCHAR
STARTCHAR 04AA
ENCODING 1194
SWIDTH 720 0
DWIDTH 24 0
BBX 21 31 2 -7
BITMAP
01FC00
07FF80
0FFFC0
1E03C0
3C01E0
7800E0
700070
F00070
E00000
E00000
E00000
E00000
E00000
E00000
E00000
E00078
E00070
F00070
700070
7800E0
3C01E0
1F07C0
0FFF80
07FF00
00F800
006000
007C00
001C00
000C00
03BC00
01F000
ENDCHAR
STARTCHAR 04AB
ENCODING 1195
SWIDTH 510 0
DWIDTH 17 0
BBX 15 25 1 -7
BITMAP
07E0
1FF8
3FF8
383C
701C
700E
E000
E000
E000
E000
E000
E000
E00E
700E
701C
383C
3FF8
1FF0
03C0
0100
03E0
0060
0060
1CE0
07C0
ENDCHAR
STARTCHAR 04AE
ENCODING 1198
SWIDTH 660 0
DWIDTH 22 0
BBX 21 24 1 0
BITMAP
F00078
F000F0
7800E0
3801E0
3C01C0
1E03C0
0E0780
0F0700
070F00
078E00
03DC00
01DC00
01F800
00F800
007000
007000
007000
007000
007000
007000
007000
007000
007000
007000
ENDCHAR
STARTCHAR 04AF
ENCODING 1199
SWIDTH 510 0
DWIDTH 17 0
BBX 15 25 1 -7
BITMAP
E00E
E00C
701C
701C
7018
3838
3838
3830
1C70
1C70
1C60
0EE0
0EE0
0EC0
07C0
07C0
0780
0380
0380
0380
0380
0380
0380
0380
0380
ENDCHAR
STARTCHAR 04B0
ENCODING 1200
SWIDTH 660 0
DWIDTH 22 0
BBX 21 24 1 0
BITMAP
F00078
F000F0
7800E0
3801E0
3C01C0
1E03C0
1E0380
0F0700
070F00
078E00
03DE00
01DC00
01F800
00F800
007000
007000
007000
0FFF80
0FFF80
0FFF80
007000
007000
007000
007000
ENDCHAR
STARTCHAR 04B1
ENCODING 1201
SWIDTH 510 0
DWIDTH 17 0
BBX 15 25 1 -7
BITMAP
E00E
E01C
701C
701C
7038
3838
3838
3830
1C70
1C70
1C60
0EE0
0EE0
0EC0
07C0
07C0
0780
0380
3FF8
3FF8
0380
0380
0380
0380
0380
ENDCHAR
STARTCHAR 04B2
ENCODING 1202
SWIDTH 720 0
DWIDTH 24 0
BBX 22 30 1 -6
BITMAP
7000F0
7801E0
3C01C0
1C03C0
1E0780
0F0700
070F00
079E00
03DC00
01F800
01F800
00F000
00F800
01F800
03FC00
039E00
070E00
0F0F00
1E0780
1C0380
3C03C0
7801FC
7000FC
F000FC
00001C
00001C
00001C
00001C
00001C
00001C
ENDCHAR
STARTCHAR 04B3
ENCODING 1203
SWIDTH 540 0
DWIDTH 18 0
BBX 16 23 1 -5
BITMAP
E01C
701C
7838
3870
1C70
1EE0
0FC0
07C0
0380
0780
07C0
0FE0
1CE0
1C70
3878
703F
701F
E01F
0007
0007
0007
0007
0007
ENDCHAR
STARTCHAR 04B6
ENCODING 1206
SWIDTH 690 0
DWIDTH 23 0
BBX 20 29 2 -5
BITMAP
E001C0
E001C0
E001C0
E001C0
E001C0
E001C0
E001C0
E001C0
E001C0
E001C0
E001C0
F001C0
7C03C0
3FFFC0
1FFFC0
03F1C0
0001C0
0001C0
0001C0
0001C0
0001C0
0001F0
0001F0
0001F0
000070
000070
000070
000070
000070
ENDCHAR
STARTCHAR 04B7
ENCODING 1207
SWIDTH 510 0
DWIDTH 17 0
BBX 14 23 2 -5
BITMAP
C038
C038
C038
C038
C038
C038
C038
E038
E038
FFF8
7FF8
3F38
0038
0038
0038
003C
003C
003C
001C
001C
001C
001C
001C
ENDCHAR
STARTCHAR 04B8
ENCODING 1208
SWIDTH 690 0
DWIDTH 23 0
BBX 18 24 2 0
BITMAP
E001C0
E001C0
E001C0
E001C0
E001C0
E001C0
E0C1C0
E0C1C0
E0C1C0
E0C1C0
E0C1C0
F0C1C0
78C3C0
7FFFC0
1FFFC0
03F1C0
00C1C0
00C1C0
00C1C0
00C1C0
0001C0
0001C0
0001C0
0001C0
ENDCHAR
STARTCHAR 04B9
ENCODING 1209
SWIDTH 510 0
DWIDTH 17 0
BBX 13 18 2 0
BITMAP
E038
E038
E038
E038
E038
E638
E638
E638
E638
FFF8
7FF8
3FB8
0638
0638
0638
0038
0038
0038
ENDCHAR
STARTCHAR 04BA
ENCODING 1210
SWIDTH 690 0
DWIDTH 23 0
BBX 18 24 2 0
BITMAP
E00000
E00000
E00000
E00000
E00000
E00000
E00000
E00000
E1F000
FFFF00
FFFF80
F807C0
E001C0
E001C0
E001C0
E001C0
E001C0
E001C0
E001C0
E001C0
E001C0
E001C0
E001C0
E001C0
ENDCHAR
STARTCHAR 04BB
ENCODING 1211
SWIDTH 570 0
DWIDTH 19 0
BBX 14 24 3 0
BITMAP
E000
E000
E000
E000
E000
E000
E3E0
EFF0
FFF8
F838
F01C
E01C
E01C
E01C
E01C
E01C
E01C
E01C
E01C
E01C
E01C
E01C
E01C
E01C
ENDCHAR
STARTCHAR 04C0
ENCODING 1216
SWIDTH 270 0
DWIDTH 9 0
BBX 3 24 3 0
BITMAP
E0
E0
E0
E0
E0
E0
E0
E0
E0
E0
E0
E0
E0
E0
E0
E0
E0
E0
E0
E0
E0
E0
E0
E0
ENDCHAR
STARTCHAR 04CB
ENCODING 1227
SWIDTH 660 0
DWIDTH 22 0
BBX 18 29 2 -5
BITMAP
E001C0
E001C0
E001C0
E001C0
E001C0
E001C0
E001C0
E001C0
E001C0
E001C0
E001C0
E001C0
F807C0
7FFFC0
3FFFC0
03E1C0
0001C0
0001C0
0001C0
0001C0
0001C0
0007C0
0007C0
0007C0
000700
000700
000700
000700
000700
ENDCHAR
STARTCHAR 04CC
ENCODING 1228
SWIDTH 510 0
DWIDTH 17 0
BBX 13 23 2 -5
BITMAP
E038
E038
E038
E038
E038
E038
E038
E038
E038
FFF8
7FF8
1FB8
0038
0038
0038
00F8
00F8
00F8
00E0
00E0
00E0
00E0
00E0
ENDCHAR
STARTCHAR 04CF
ENCODING 1231
SWIDTH 270 0
DWIDTH 9 0
BBX 3 24 3 0
BITMAP
E0
E0
E0
E0
E0
E0
E0
E0
E0
E0
E0
E0
E0
E0
E0
E0
E0
E0
E0
E0
E0
E0
E0
E0
ENDCHAR
STARTCHAR 04D8
ENCODING 1240
SWIDTH 780 0
DWIDTH 26 0
BBX 24 24 1 0
BITMAP
00FF00
03FFC0
07FFF0
1F00F8
1E0078
3C003C
78001E
10000E
00000E
00000E
00000F
FFFFFF
FFFFFF
FFFFFF
F0000F
70000E
70000E
78001E
38001C
3C003C
1F00F8
0FFFF0
03FFC0
00FF00
ENDCHAR
STARTCHAR 04D9
ENCODING 1241
SWIDTH 570 0
DWIDTH 19 0
BBX 16 18 1 0
BITMAP
07E0
1FF8
3FFC
381E
700E
6007
0007
0007
FFFF
FFFF
E007
7007
7007
700E
381E
3FFC
1FF8
07E0
ENDCHAR
STARTCHAR 04E2
ENCODING 1250
SWIDTH 720 0
DWIDTH 24 0
BBX 18 27 3 0
BITMAP
07FC00
07FC00
000000
E001C0
E001C0
E001C0
E001C0
E003C0
E007C0
E00FC0
E01FC0
E03DC0
E079C0
E0F1C0
E1E1C0
E1C1C0
E3C1C0
E781C0
EF01C0
FE01C0
FC01C0
F801C0
F001C0
E001C0
E001C0
E001C0
E001C0
ENDCHAR
STARTCHAR 04E3
ENCODING 1251
SWIDTH 570 0
DWIDTH 19 0
BBX 13 22 3 0
BITMAP
7FC0
7FC0
0000
0000
C038
C038
C078
C078
C0F8
C1F8
C1F8
C3B8
C738
CE38
CE38
DC38
F838
F838
F038
E038
C038
C038
ENDCHAR
STARTCHAR 04E8
ENCODING 1256
SWIDTH 780 0
DWIDTH 26 0
BBX 24 24 1 0
BITMAP
00FF00
03FFC0
07FFF0
1F00F8
1E0078
3C003C
78001E
70000E
70000E
70000E
E0000F
FFFFFF
FFFFFF
FFFFFF
F0000F
70000E
70000E
78001E
38001C
3C0038
1F00F8
0FFFE0
03FFC0
00FE00
ENDCHAR
STARTCHAR 04E9
ENCODING 1257
SWIDTH 570 0
DWIDTH 19 0
BBX 16 18 1 0
BITMAP
07E0
1FF8
3FFC
381E
700E
7007
7007
E007
FFFF
FFFF
E007
7007
7007
780E
381E
3FFC
1FF8
07E0
ENDCHAR
STARTCHAR 04EE
ENCODING 1262
SWIDTH 630 0
DWIDTH 21 0
BBX 20 29 1 0
BITMAP
07FE00
07FE00
000000
000000
000000
F000F0
F000E0
7001E0
7801C0
3803C0
3C03C0
1C0380
1E0780
0E0700
0F0F00
070E00
070E00
079C00
039C00
03FC00
01F800
01F800
00F000
00F000
00E000
00E000
0FC000
0FC000
0F8000
ENDCHAR
STARTCHAR 04EF
ENCODING 1263
SWIDTH 510 0
DWIDTH 17 0
BBX 15 29 1 -7
BITMAP
1FF0
1FF0
0000
0000
E00E
E01C
701C
701C
7038
3038
3838
3870
1870
1C70
1CE0
1CE0
0EC0
0FC0
0FC0
0780
0780
0780
0700
0700
0700
0E00
7E00
7C00
7800
ENDCHAR
STARTCHAR 1E80
ENCODING 7808
SWIDTH 930 0
DWIDTH 31 0
BBX 30 31 1 0
BITMAP
001E0000
000E0000
00070000
00038000
00018000
00000000
00000000
E007803C
F007803C
F00F8038
700F8038
700FC078
700DC078
781DC070
381CE070
381CE070
3818E0F0
3C3860E0
1C3870E0
1C3870E0
1C7071C0
1E7039C0
0E7039C0
0E6039C0
0EE01B80
07E01F80
07E01F80
07C01F80
07C00F00
03C00F00
03C00F00
ENDCHAR
STARTCHAR 1E81
ENCODING 7809
SWIDTH 720 0
DWIDTH 24 0
BBX 23 24 0 0
BITMAP
00E000
007000
003800
001C00
000000
000000
E03C0E
703C0E
703C0E
707C0E
707E1C
386E1C
386E1C
38E618
18E738
1CC738
1CC738
1DC330
0DC3F0
0F83F0
0F83E0
0781E0
0781E0
0781E0
ENDCHAR
STARTCHAR 1E82
ENCODING 7810
SWIDTH 930 0
DWIDTH 31 0
BBX 30 31 1 0
BITMAP
00007800
0000F000
0000E000
0001C000
00038000
00000000
00000000
E007803C
F007803C
F00F8038
700F8038
700FC078
700DC078
781DC070
381CE070
381CE070
3818E0F0
3C3860E0
1C3870E0
1C3870E0
1C7071C0
1E7039C0
0E7039C0
0E6039C0
0EE01B80
07E01F80
07E01F80
07C01F80
07C00F00
03C00F00
03C00F00
ENDCHAR
STARTCHAR 1E83
ENCODING 7811
SWIDTH 720 0
DWIDTH 24 0
BBX 23 24 0 0
BITMAP
000E00
001C00
003800
003000
000000
000000
E03C0E
703C0E
703C0E
707C0E
707E1C
386E1C
386E1C
38E618
18E738
1CC738
1CC738
1DC330
0DC3F0
0F83F0
0F83E0
0781E0
0781E0
0781E0
ENDCHAR
STARTCHAR 1E84
ENCODING 7812
SWIDTH 930 0
DWIDTH 31 0
BBX 30 30 1 0
BITMAP
003CE000
003CE000
003CE000
00000000
00000000
00000000
E007803C
F007803C
F00F8038
700F8038
700FC078
700DC078
781DC070
381CE070
381CE070
3818E0F0
3C3860E0
1C3870E0
1C3870E0
1C7071C0
1E7039C0
0E7039C0
0E6039C0
0EE01B80
07E01F80
07E01F80
07C01F80
07C00F00
03C00F00
03C00F00
ENDCHAR
STARTCHAR 1E85
ENCODING 7813
SWIDTH 720 0
DWIDTH 24 0
BBX 23 24 0 0
BITMAP
01E700
01E700
01E700
000000
000000
000000
E03C0E
703C0E
703C0E
707C0E
707E1C
386E1C
386E1C
38E618
18E738
1CC738
1CC738
1DC330
0DC3F0
0F83F0
0F83E0
0781E0
0781E0
0781E0
ENDCHAR
STARTCHAR 1EF2
ENCODING 7922
SWIDTH 660 0
DWIDTH 22 0
BBX 21 31 1 0
BITMAP
038000
01C000
00E000
006000
003000
000000
000000
F00078
F000F0
7800E0
3801E0
3C01C0
1E03C0
0E0780
0F0700
070F00
038E00
03DC00
01DC00
01F800
00F800
007000
007000
007000
007000
007000
007000
007000
007000
007000
007000
ENDCHAR
STARTCHAR 1EF3
ENCODING 7923
SWIDTH 510 0
DWIDTH 17 0
BBX 15 31 1 -7
BITMAP
1C00
0E00
0700
0380
0000
0000
E00E
E01C
E01C
701C
7038
7038
3838
3870
3870
1C60
1CE0
1CE0
0EC0
0FC0
0FC0
0780
0780
0780
0700
0700
0E00
0E00
7E00
7C00
7800
ENDCHAR
STARTCHAR 2002
ENCODING 8194
SWIDTH 510 0
DWIDTH 17 0
BBX 0 0 0 0
BITMAP
ENDCHAR
STARTCHAR 2013
ENCODING 8211
SWIDTH 570 0
DWIDTH 19 0
BBX 19 2 0 8
BITMAP
FFFFE0
FFFFE0
ENDCHAR
STARTCHAR 2014
ENCODING 8212
SWIDTH 990 0
DWIDTH 33 0
BBX 33 2 0 8
BITMAP
FFFFFFFF80
FFFFFFFF80
ENDCHAR
STARTCHAR 2015
ENCODING 8213
SWIDTH 990 0
DWIDTH 33 0
BBX 33 2 0 8
BITMAP
FFFFFFFF80
FFFFFFFF80
ENDCHAR
STARTCHAR 2017
ENCODING 8215
SWIDTH 540 0
DWIDTH 18 0
BBX 20 6 -1 -8
BITMAP
FFFFF0
FFFFF0
000000
000000
FFFFF0
FFFFF0
ENDCHAR
STARTCHAR 2018
ENCODING 8216
SWIDTH 210 0
DWIDTH 7 0
BBX 3 7 2 17
BITMAP
60
40
C0
C0
E0
E0
E0
ENDCHAR
STARTCHAR 2019
ENCODING 8217
SWIDTH 210 0
DWIDTH 7 0
BBX 3 8 2 16
BITMAP
E0
E0
E0
20
20
60
C0
80
ENDCHAR
STARTCHAR 201A
ENCODING 8218
SWIDTH 210 0
DWIDTH 7 0
BBX 3 7 2 -4
BITMAP
E0
E0
E0
20
20
60
C0
ENDCHAR
STARTCHAR 201B
ENCODING 8219
SWIDTH 210 0
DWIDTH 7 0
BBX 3 8 2 16
BITMAP
E0
E0
E0
C0
C0
C0
60
20
ENDCHAR
STARTCHAR 201C
ENCODING 8220
SWIDTH 330 0
DWIDTH 11 0
BBX 8 8 2 16
BITMAP
21
E3
86
84
84
E7
E7
E7
ENDCHAR
STARTCHAR 201D
ENCODING 8221
SWIDTH 330 0
DWIDTH 11 0
BBX 8 8 2 16
BITMAP
E7
E7
E7
61
61
43
C6
04
ENDCHAR
STARTCHAR 201E
ENCODING 8222
SWIDTH 330 0
DWIDTH 11 0
BBX 8 7 2 -4
BITMAP
E7
E7
E7
63
63
43
86
ENDCHAR
STARTCHAR 2020
ENCODING 8224
SWIDTH 570 0
DWIDTH 19 0
BBX 16 30 1 -6
BITMAP
01C0
01C0
01C0
01C0
01C0
01C0
01C0
FFFF
FFFF
FFFF
01C0
01C0
01C0
01C0
01C0
01C0
01C0
01C0
01C0
01C0
01C0
01C0
01C0
01C0
01C0
01C0
01C0
01C0
01C0
01C0
ENDCHAR
STARTCHAR 2021
ENCODING 8225
SWIDTH 570 0
DWIDTH 19 0
BBX 16 30 1 -6
BITMAP
01C0
01C0
01C0
01C0
01C0
01C0
01C0
FFFF
FFFF
FFFF
01C0
01C0
01C0
01C0
01C0
01C0
01C0
01C0
01C0
01C0
FFFF
FFFF
FFFF
01C0
01C0
01C0
01C0
01C0
01C0
01C0
ENDCHAR
STARTCHAR 2022
ENCODING 8226
SWIDTH 360 0
DWIDTH 12 0
BBX 8 8 2 7
BITMAP
7C
FE
FF
FF
FF
FF
7E
3C
ENDCHAR
STARTCHAR 2026
ENCODING 8230
SWIDTH 990 0
DWIDTH 33 0
BBX 25 3 4 0
BITMAP
E01C0380
E01C0380
E01C0380
ENDCHAR
STARTCHAR 2030
ENCODING 8240
SWIDTH 990 0
DWIDTH 33 0
BBX 33 24 0 0
BITMAP
1E00C00000
3F80C00000
71C1800000
60C3800000
C0C3000000
C0C7000000
60C6000000
71CC000000
3F8C000000
1E18000000
0018000000
0030000000
0030000000
0060000000
00E3C03C00
00C7F07F00
01CC30C300
019C19C180
0318198180
0318198180
061C19C180
060C30E300
0C07F07F00
1C03C03C00
ENDCHAR
STARTCHAR 2032
ENCODING 8242
SWIDTH 180 0
DWIDTH 6 0
BBX 4 8 1 14
BITMAP
30
70
70
60
60
60
C0
C0
ENDCHAR
STARTCHAR 2033
ENCODING 8243
SWIDTH 360 0
DWIDTH 12 0
BBX 8 8 2 14
BITMAP
73
67
67
66
E6
C6
CC
CC
ENDCHAR
STARTCHAR 2039
ENCODING 8249
SWIDTH 330 0
DWIDTH 11 0
BBX 5 10 3 5
BITMAP
08
18
78
E0
C0
C0
F0
78
18
08
ENDCHAR
STARTCHAR 203A
ENCODING 8250
SWIDTH 330 0
DWIDTH 11 0
BBX 5 10 3 5
BITMAP
80
E0
F0
38
18
18
78
F0
C0
80
ENDCHAR
STARTCHAR 203C
ENCODING 8252
SWIDTH 510 0
DWIDTH 17 0
BBX 11 24 4 0
BITMAP
C0E0
C0E0
C0E0
C0E0
C0E0
C0E0
C0E0
C0E0
C0E0
C0E0
C0E0
C0E0
C0E0
C0E0
C0C0
C0C0
C040
C040
0000
0000
0000
C0E0
C0E0
C0E0
ENDCHAR
STARTCHAR 203E
ENCODING 8254
SWIDTH 330 0
DWIDTH 11 0
BBX 20 2 -4 28
BITMAP
FFFFF0
FFFFF0
ENDCHAR
STARTCHAR 2044
ENCODING 8260
SWIDTH 270 0
DWIDTH 9 0
BBX 17 24 -4 0
BITMAP
000180
000300
000600
000600
000C00
000800
001800
003000
003000
006000
00C000
00C000
018000
010000
030000
060000
060000
0C0000
180000
180000
300000
300000
600000
C00000
ENDCHAR
STARTCHAR 2070
ENCODING 8304
SWIDTH 330 0
DWIDTH 11 0
BBX 10 15 0 9
BITMAP
1F00
3F80
71C0
60C0
60C0
60C0
60C0
E0C0
60C0
60C0
60C0
60C0
71C0
3F80
1F00
ENDCHAR
STARTCHAR 2074
ENCODING 8308
SWIDTH 330 0
DWIDTH 11 0
BBX 11 14 0 10
BITMAP
0100
0300
0700
0F00
0F00
1B00
3300
6300
6300
FFE0
FFE0
0300
0300
0300
ENDCHAR
STARTCHAR 2075
ENCODING 8309
SWIDTH 330 0
DWIDTH 11 0
BBX 11 15 0 9
BITMAP
3FC0
3FC0
2000
6000
6000
6F00
7F80
61C0
00C0
00E0
00E0
E0C0
71C0
3F80
0E00
ENDCHAR
STARTCHAR 2076
ENCODING 8310
SWIDTH 330 0
DWIDTH 11 0
BBX 11 15 0 9
BITMAP
0F00
3F80
30C0
60C0
6000
6E00
7F80
F1C0
60C0
60E0
60E0
60C0
71C0
3F80
0E00
ENDCHAR
STARTCHAR 2077
ENCODING 8311
SWIDTH 330 0
DWIDTH 11 0
BBX 10 14 1 10
BITMAP
FFC0
FFC0
0180
0300
0300
0600
0400
0C00
1800
1800
1800
3000
3000
3000
ENDCHAR
STARTCHAR 2078
ENCODING 8312
SWIDTH 330 0
DWIDTH 11 0
BBX 11 15 0 9
BITMAP
1F00
3F80
71C0
60C0
60C0
71C0
3F80
3F80
60C0
E0E0
C0E0
60C0
71C0
3F80
0E00
ENDCHAR
STARTCHAR 2079
ENCODING 8313
SWIDTH 330 0
DWIDTH 11 0
BBX 10 15 0 9
BITMAP
1F00
3F80
61C0
60C0
E0C0
E0C0
60C0
71C0
3FC0
1EC0
00C0
60C0
7180
3F00
1E00
ENDCHAR
STARTCHAR 207F
ENCODING 8319
SWIDTH 360 0
DWIDTH 12 0
BBX 8 10 2 9
BITMAP
BF
E3
C3
C1
C1
C1
C1
C1
C1
C1
ENDCHAR
STARTCHAR 20A3
ENCODING 8355
SWIDTH 570 0
DWIDTH 19 0
BBX 17 24 1 0
BITMAP
FFFF80
FFFF80
FFFF80
E00000
E00000
E00000
E07380
E07780
E07F80
E07C00
FF7800
FF7000
FF7000
E07000
E07000
E07000
E07000
E07000
E07000
E07000
E07000
E07000
E07000
E07000
ENDCHAR
STARTCHAR 20A4
ENCODING 8356
SWIDTH 570 0
DWIDTH 19 0
BBX 16 24 1 0
BITMAP
03F0
0FFC
1FFE
380E
700F
7007
7007
7000
7000
3800
3800
FFE0
FFE0
0E00
FFE0
FFE0
0E00
0E00
1C00
1800
77C1
FFFF
7FFF
007E
ENDCHAR
STARTCHAR 20A7
ENCODING 8359
SWIDTH 1080 0
DWIDTH 36 0
BBX 29 24 4 0
BITMAP
FE000000
FF800000
FFC00000
E1E00000
E0E00000
E0E00000
E0F00000
E0F00000
E0E00000
E0E00000
E3E00000
FFC60000
FF860000
FC0601E0
E00F87F8
E0060618
E0060600
E0060780
E00603F0
E0060038
E0060C18
E0060618
E00707F8
E00383E0
ENDCHAR
STARTCHAR 20AC
ENCODING 8364
SWIDTH 570 0
DWIDTH 19 0
BBX 18 24 0 0
BITMAP
007E00
01FF80
03FFC0
0781C0
0F0080
0E0000
0E0000
1C0000
1C0000
7FFE00
FFFE00
1C0000
1C0000
7FFC00
FFF800
1C0000
1C0000
1E0000
0E0000
0F0000
078180
03FF80
01FF80
007E00
ENDCHAR
STARTCHAR 20AF
ENCODING 8367
SWIDTH 930 0
DWIDTH 31 0
BBX 26 27 2 -6
BITMAP
07F00000
1FFC0000
330E0000
63060000
C3070000
C3070700
C6071FC0
860739C0
060730C0
060760C0
060760C0
0E0760C0
0C0660C0
0C06E0C0
0C0EC0C0
0C0CC1C0
181CC180
1838C180
30F1C300
FFE1FE00
FF01F800
00018000
00018000
00018000
00038000
00030000
00030000
ENDCHAR
STARTCHAR 20DD
ENCODING 8413
SWIDTH 990 0
DWIDTH 33 0
BBX 23 24 5 0
BITMAP
00FE00
03FF80
0F01E0
1C0070
380038
30001C
60000C
600006
C00006
C00006
C00006
C00002
C00002
C00006
C00006
C00006
600006
60000C
30001C
380038
1C0070
0F81E0
03FF80
00FE00
ENDCHAR
STARTCHAR 2105
ENCODING 8453
SWIDTH 900 0
DWIDTH 30 0
BBX 26 25 2 0
BITMAP
1F000000
3F803000
73C06000
E1C06000
C0C0C000
C001C000
C0018000
C0038000
C0030000
C0C60000
E0C60000
71CC0000
7F8C7E00
1F18FF00
0019C380
00318380
00738180
006381C0
00E381C0
00C381C0
01C38180
01818380
0301E780
0300FF00
06007C00
ENDCHAR
STARTCHAR 210F
ENCODING 8463
SWIDTH 570 0
DWIDTH 19 0
BBX 17 24 1 0
BITMAP
01C000
07C000
01C000
01C400
039800
03E000
038000
070000
1F0F00
373F00
466700
0EC700
0E8700
0F0700
1E0E00
1E0E00
1C0E00
3C0C00
381C00
381C00
701980
703B00
703E00
E01800
ENDCHAR
STARTCHAR 2111
ENCODING 8465
SWIDTH 720 0
DWIDTH 24 0
BBX 20 25 2 -2
BITMAP
07E000
1FF000
387800
603C20
603C20
401E60
C00E40
C00FC0
400780
400000
6003C0
300FE0
0E0C20
001C30
001C20
001E00
000E00
F00F00
380F00
1C0700
1E0700
0F0700
078E00
03FC00
01F000
ENDCHAR
STARTCHAR 2112
ENCODING 8466
SWIDTH 840 0
DWIDTH 28 0
BBX 25 26 1 0
BITMAP
00701E00
01C07100
07006080
0600C080
0C01C080
0801C080
08018180
08038100
0C038300
04038600
02038C00
0103B000
00C3C000
003F8000
00038000
00038000
00030000
00070000
00070000
00060000
000E0000
3E0C0100
41980100
80780200
60EE0C00
1F81F000
ENDCHAR
STARTCHAR 2113
ENCODING 8467
SWIDTH 330 0
DWIDTH 11 0
BBX 12 24 -1 0
BITMAP
00E0
01B0
0310
0330
0630
0620
0620
0E60
0C40
0C80
0D80
1D00
1E00
1C00
1800
3800
7800
B800
3800
3000
3100
3200
3E00
1C00
ENDCHAR
STARTCHAR 2116
ENCODING 8470
SWIDTH 1080 0
DWIDTH 36 0
BBX 32 24 2 0
BITMAP
E00701F0
E00707F8
F0070FFC
F0071E0E
F8071C07
DC071807
DC073803
CE073803
CE073003
C7073003
C7073803
C3873803
C3873807
C1C71C07
C0C71E0E
C0E70FFC
C07707F8
C07701F0
C03F0000
C03F0000
C01F0000
C01F3FFF
C00F3FFF
C0073FFF
ENDCHAR
STARTCHAR 2118
ENCODING 8472
SWIDTH 660 0
DWIDTH 22 0
BBX 17 19 2 -5
BITMAP
030000
040F00
083180
104180
308180
330180
340180
380180
38C380
38C300
390600
5D0C00
5CF000
8C0000
8C0000
840000
840000
480000
300000
ENDCHAR
STARTCHAR 211C
ENCODING 8476
SWIDTH 780 0
DWIDTH 26 0
BBX 21 20 2 0
BITMAP
0F8FC0
3FDFE0
61F1F0
40E0F0
40E070
C0E070
C0E0E0
60E1C0
78EF00
3CFF80
0EE380
04E3C0
04E3C0
00E1C0
00E1C0
00E1E0
1CC1E0
3FC0F8
3F80F0
0F00E0
ENDCHAR
STARTCHAR 211E
ENCODING 8478
SWIDTH 750 0
DWIDTH 25 0
BBX 17 22 5 0
BITMAP
FFF800
FFFC00
E07E00
E00F00
E00700
E00700
E00700
E00700
E00700
E00F00
FFFE00
FFFC00
E0E000
E0E380
E07700
E03E00
E03E00
E01C00
E03E00
E03E00
E07700
E0E780
ENDCHAR
STARTCHAR 2120
ENCODING 8480
SWIDTH 600 0
DWIDTH 20 0
BBX 18 9 1 13
BITMAP
7C71C0
C651C0
C253C0
E052C0
3C5AC0
064AC0
824AC0
C64EC0
7E4CC0
ENDCHAR
STARTCHAR 2122
ENCODING 8482
SWIDTH 990 0
DWIDTH 33 0
BBX 29 15 2 9
BITMAP
FFFBC038
FFFBC038
0603C078
0603E078
0603E078
0603E0D8
0603B0D8
0603B098
0603B998
06039998
06039B18
06039F18
06038F18
06038E18
06038618
ENDCHAR
STARTCHAR 2126
ENCODING 8486
SWIDTH 780 0
DWIDTH 26 0
BBX 24 24 1 0
BITMAP
00FE00
03FFC0
07FFE0
1F01F0
1E0078
3C003C
78001C
70001E
70000E
F0000E
E0000E
E0000E
E0000E
F0000E
70000E
70000E
78001C
380038
1C0038
0E0070
0701C0
FFC3FF
FFC3FF
FFC3FF
ENDCHAR
STARTCHAR 2128
ENCODING 8488
SWIDTH 600 0
DWIDTH 20 0
BBX 20 29 0 -6
BITMAP
007E00
01FF00
070380
0001C0
0001C0
0000E0
0000E0
0000E0
01C0C0
01C1C0
018380
018700
007E00
007C00
01FF00
030780
0603C0
0801E0
0000E0
0000E0
000070
000070
780060
C60060
8780E0
8780C0
4781C0
01C380
007E00
ENDCHAR
STARTCHAR 212D
ENCODING 8493
SWIDTH 660 0
DWIDTH 22 0
BBX 20 26 2 -3
BITMAP
07C780
0C2FF0
181BE0
302080
306000
606000
606000
606000
E07000
E07800
E03C00
E01E00
E00E00
E10F00
E30700
E20700
F30700
710600
78CE10
787810
3C0020
1E0060
1F81C0
0FFF80
03FE00
00F800
ENDCHAR
STARTCHAR 212E
ENCODING 8494
SWIDTH 600 0
DWIDTH 20 0
BBX 16 18 2 0
BITMAP
07E0
1FF8
383C
700C
700E
E006
E006
E007
FFFF
FFFF
E000
E000
E000
6006
700C
381C
1FF8
07E0
ENDCHAR
STARTCHAR 212F
ENCODING 8495
SWIDTH 510 0
DWIDTH 17 0
BBX 13 16 2 0
BITMAP
00F0
0338
0E18
1C38
1830
3870
70E0
7380
FC00
E000
E000
E000
E020
F040
7F80
3E00
ENDCHAR
STARTCHAR 2135
ENCODING 8501
SWIDTH 510 0
DWIDTH 17 0
BBX 15 21 1 0
BITMAP
0080
8080
C1FC
E1FE
71FE
30FE
3812
1C10
1E20
2720
2360
63C0
71E0
F0E0
7870
7C30
7C38
3E1C
3E0C
FE04
FC04
ENDCHAR
STARTCHAR 2136
ENCODING 8502
SWIDTH 450 0
DWIDTH 15 0
BBX 14 17 1 1
BITMAP
FFC0
FFF0
7FF8
7FF8
0018
0018
0008
0008
0008
0008
0008
0008
0008
7FFC
7FF8
7FF8
FFF8
ENDCHAR
STARTCHAR 2137
ENCODING 8503
SWIDTH 330 0
DWIDTH 11 0
BBX 8 18 2 0
BITMAP
40
7C
7E
3E
3E
02
02
02
02
03
03
03
03
03
7F
7F
F9
F9
ENDCHAR
STARTCHAR 215B
ENCODING 8539
SWIDTH 840 0
DWIDTH 28 0
BBX 25 24 2 0
BITMAP
18006000
1800C000
F800C000
F8018000
18018000
18030000
18060000
18060000
180C0000
18083C00
1818FE00
1830C300
18308300
18608300
00C0C700
00C07E00
0180FE00
01808300
03018100
06018180
06018100
0C01C300
0800FE00
18007C00
ENDCHAR
STARTCHAR 215C
ENCODING 8540
SWIDTH 840 0
DWIDTH 28 0
BBX 26 24 1 0
BITMAP
1F001800
3F801800
61C03000
60C06000
E0C06000
01C0C000
0F808000
0F818000
00C30000
00C30800
C0C63F00
E0CC6380
61CC6180
7F984180
1E106180
00303F00
00603F00
00606180
00C0C080
0180C0C0
0180C0C0
0300E180
02007F80
06003E00
ENDCHAR
STARTCHAR 215D
ENCODING 8541
SWIDTH 840 0
DWIDTH 28 0
BBX 26 24 1 0
BITMAP
3F801800
7F801800
60003000
60006000
64006000
7F00C000
61808000
00C18000
00C30000
00C30800
C0C63F00
618C6380
7F8C4180
1E184180
00106180
00303F00
00603F00
00606180
00C0C080
0180C0C0
0180C0C0
0300E180
06007F80
06003E00
ENDCHAR
STARTCHAR 215E
ENCODING 8542
SWIDTH 840 0
DWIDTH 28 0
BBX 24 24 2 0
BITMAP
FF80C0
FF80C0
018180
030300
020300
060600
0C0C00
080C00
181800
181810
1030FE
3060C6
306183
30C183
018083
0180EE
03007C
0200C7
060183
0C0181
0C0183
180183
3000FE
30007C
ENDCHAR
STARTCHAR 2190
ENCODING 8592
SWIDTH 990 0
DWIDTH 33 0
BBX 27 11 3 5
BITMAP
02000000
06000000
1C000000
3C000000
FFFFFFE0
FFFFFFE0
3C000000
1C000000
06000000
02000000
02000000
ENDCHAR
STARTCHAR 2191
ENCODING 8593
SWIDTH 510 0
DWIDTH 17 0
BBX 10 28 3 -4
BITMAP
0C00
0C00
1E00
1F00
3F00
7F80
CDC0
0C00
0C00
0C00
0C00
0C00
0C00
0C00
0C00
0C00
0C00
0C00
0C00
0C00
0C00
0C00
0C00
0C00
0C00
0C00
0C00
0C00
ENDCHAR
STARTCHAR 2192
ENCODING 8594
SWIDTH 990 0
DWIDTH 33 0
BBX 27 12 3 4
BITMAP
00000800
00000C00
00000E00
00000700
00000380
FFFFFFE0
FFFFFFE0
00000380
00000700
00000E00
00000C00
00000800
ENDCHAR
STARTCHAR 2193
ENCODING 8595
SWIDTH 510 0
DWIDTH 17 0
BBX 12 27 2 -4
BITMAP
0600
0600
0600
0600
0600
0600
0600
0600
0600
0600
0600
0600
0600
0600
0600
0600
0600
0600
0600
0600
C630
76E0
3FC0
1F80
0F00
0F00
0600
ENDCHAR
STARTCHAR 2194
ENCODING 8596
SWIDTH 990 0
DWIDTH 33 0
BBX 25 11 4 4
BITMAP
00002000
02003000
06003800
0E001C00
3C001E00
FFFFFF80
FFFFFF80
3C001E00
0E001C00
06003800
03003000
ENDCHAR
STARTCHAR 2195
ENCODING 8597
SWIDTH 510 0
DWIDTH 17 0
BBX 11 25 3 -1
BITMAP
0400
0E00
0E00
1F00
3F80
7FC0
ECE0
8C20
0C00
0C00
0C00
0C00
0C00
0C00
0C00
0C00
0C00
0C00
CCE0
7DC0
3F80
1F00
1E00
0E00
0400
ENDCHAR
STARTCHAR 2196
ENCODING 8598
SWIDTH 720 0
DWIDTH 24 0
BBX 24 24 0 -2
BITMAP
600000
F80000
FE0000
FBC000
7CE000
6E2000
370000
338000
11C000
18E000
187000
003800
001C00
000E00
000700
000380
0001C0
0000E0
000070
000038
00001C
00000E
000007
000002
ENDCHAR
STARTCHAR 2197
ENCODING 8599
SWIDTH 720 0
DWIDTH 24 0
BBX 24 23 0 -2
BITMAP
000006
00003F
0000FF
0003DE
000E3E
00007C
0000EC
0001C8
000398
000710
000E30
001C10
003800
007000
00E000
01C000
038000
070000
0E0000
1C0000
300000
600000
C00000
ENDCHAR
STARTCHAR 2198
ENCODING 8600
SWIDTH 720 0
DWIDTH 24 0
BBX 24 24 0 -2
BITMAP
400000
E00000
700000
380000
1C0000
0E0000
070000
038000
01C000
00E000
007000
003800
001C10
000E30
000718
000398
0001C8
0000EC
00047C
000F3E
0003DE
00007F
00001E
000004
ENDCHAR
STARTCHAR 2199
ENCODING 8601
SWIDTH 720 0
DWIDTH 24 0
BBX 24 24 0 -2
BITMAP
000002
000007
00000C
000018
000030
000060
0000C0
000180
000300
000600
000C00
001800
083000
186000
18C000
318000
330000
260000
6C2000
79E000
F78000
FE0000
F80000
400000
ENDCHAR
STARTCHAR 21A8
ENCODING 8616
SWIDTH 510 0
DWIDTH 17 0
BBX 11 29 3 -3
BITMAP
0C00
0E00
1E00
3F00
3F80
7DC0
CC60
0C00
0C00
0C00
0C00
0C00
0C00
0C00
0C00
0C00
0C00
8C60
EDC0
7F80
3F00
1F00
0E00
0C00
0400
0000
0000
0000
7FC0
ENDCHAR
STARTCHAR 21B5
ENCODING 8629
SWIDTH 990 0
DWIDTH 33 0
BBX 24 12 5 5
BITMAP
000003
000003
01C003
07C003
1E0003
780003
FFFFFF
FFFFFF
780000
1F0000
03C000
00C000
ENDCHAR
STARTCHAR 21C4
ENCODING 8644
SWIDTH 990 0
DWIDTH 33 0
BBX 25 20 4 2
BITMAP
00006000
00003000
00003800
00001C00
00000E00
FFFFFF80
FFFFFF80
00000E00
00001C00
02003800
0E003000
1C006000
38000000
FFFFFF80
FFFFFF80
38000000
1C000000
0E000000
06000000
03000000
ENDCHAR
STARTCHAR 21C6
ENCODING 8646
SWIDTH 990 0
DWIDTH 33 0
BBX 25 20 4 2
BITMAP
03000000
06000000
0E000000
1C000000
38000000
FFFFFF80
FFFFFF80
38000000
1C000000
0E003000
06003800
03001C00
00000E00
FFFFFF80
FFFFFF80
00000E00
00001C00
00001800
00003000
00002000
ENDCHAR
STARTCHAR 21D0
ENCODING 8656
SWIDTH 720 0
DWIDTH 24 0
BBX 24 14 0 2
BITMAP
008000
018000
030000
060000
0FFFFF
380000
700000
E00000
300000
180000
0FFFFF
070000
038000
008000
ENDCHAR
STARTCHAR 21D1
ENCODING 8657
SWIDTH 720 0
DWIDTH 24 0
BBX 14 21 5 1
BITMAP
0300
0780
0CC0
0CC0
1860
3870
7878
D86C
1860
1860
1860
1860
1860
1860
1860
1860
1860
1860
1860
1860
1860
ENDCHAR
STARTCHAR 21D2
ENCODING 8658
SWIDTH 720 0
DWIDTH 24 0
BBX 24 14 0 2
BITMAP
000100
000180
0000C0
000060
FFFFF0
00001C
00000E
000007
00000C
000018
FFFFF0
0000E0
0001C0
000100
ENDCHAR
STARTCHAR 21D3
ENCODING 8659
SWIDTH 720 0
DWIDTH 24 0
BBX 14 22 5 0
BITMAP
1860
1860
1860
1860
1860
1860
1860
1860
1860
1860
1860
1860
1860
D86C
7878
7878
3870
1860
0CC0
0780
0300
0200
ENDCHAR
STARTCHAR 21D4
ENCODING 8660
SWIDTH 720 0
DWIDTH 24 0
BBX 24 14 0 2
BITMAP
008100
018180
0300C0
060060
1FFFF8
38001C
600006
E00007
70000E
180018
0FFFF0
060060
0301C0
018180
ENDCHAR
STARTCHAR 21D5
ENCODING 8661
SWIDTH 720 0
DWIDTH 24 0
BBX 16 23 4 -1
BITMAP
0180
03C0
07E0
0E70
3C3C
7C3E
CC33
0C30
0C30
0C30
0C30
0C30
0C30
0C30
0C30
0C30
8C31
6C36
3C3C
1E70
07E0
03C0
0180
ENDCHAR
STARTCHAR 2200
ENCODING 8704
SWIDTH 600 0
DWIDTH 20 0
BBX 18 19 1 0
BITMAP
E001C0
F00380
700380
700780
380700
380700
3FFE00
1FFE00
1FFE00
0E1C00
0E1C00
0F3800
073800
077000
03F000
03F000
03E000
01E000
01C000
ENDCHAR
STARTCHAR 2202
ENCODING 8706
SWIDTH 480 0
DWIDTH 16 0
BBX 14 26 1 0
BITMAP
0400
7F80
30E0
0030
0030
0018
0018
001C
001C
000C
000C
000C
0F8C
3EDC
383C
701C
E01C
E01C
E018
E038
E038
E030
E070
60E0
31C0
0F00
ENDCHAR
STARTCHAR 2203
ENCODING 8707
SWIDTH 420 0
DWIDTH 14 0
BBX 11 19 2 0
BITMAP
FFE0
FFE0
FFE0
00E0
00E0
00E0
00E0
00E0
FFE0
FFE0
FFE0
00E0
00E0
00E0
00E0
00E0
FFE0
FFE0
FFE0
ENDCHAR
STARTCHAR 2205
ENCODING 8709
SWIDTH 990 0
DWIDTH 33 0
BBX 26 24 4 0
BITMAP
003F0080
00FFC1C0
03C0F380
07003F00
0E001E00
1C001E00
18007E00
3800E700
3001C300
30038300
70070300
700E0300
703C0300
70700300
30E00300
31C00300
3B800700
1F000600
1E000E00
3E001C00
77003800
E3C0F000
C1FFC000
807F0000
ENDCHAR
STARTCHAR 2206
ENCODING 8710
SWIDTH 600 0
DWIDTH 20 0
BBX 20 21 0 0
BITMAP
00F000
00F000
00F800
01F800
01D800
039C00
039C00
038E00
070E00
070700
0E0700
0E0700
0E0380
1C0380
1C01C0
3801C0
3801C0
3800E0
7000E0
7FFFF0
FFFFF0
ENDCHAR
STARTCHAR 2207
ENCODING 8711
SWIDTH 750 0
DWIDTH 25 0
BBX 20 21 2 0
BITMAP
FFFFF0
7FFFF0
7000E0
3800E0
3800E0
1801C0
1C01C0
1C0380
0E0380
0E0380
060700
070700
070E00
038E00
038C00
019C00
01DC00
01F800
00F800
00F000
007000
ENDCHAR
STARTCHAR 2208
ENCODING 8712
SWIDTH 990 0
DWIDTH 33 0
BBX 18 16 8 0
BITMAP
0FFFC0
3FFFC0
780000
600000
E00000
C00000
C00000
FFFFC0
FFFFC0
C00000
C00000
E00000
700000
780000
3FFFC0
0FFFC0
ENDCHAR
STARTCHAR 2209
ENCODING 8713
SWIDTH 990 0
DWIDTH 33 0
BBX 18 21 8 -2
BITMAP
000200
000300
000600
0FFFC0
3FFFC0
780800
601800
E03000
C03000
C06000
FFFFC0
FFFFC0
C18000
C18000
E30000
730000
7E0000
3FFFC0
0FFFC0
180000
180000
ENDCHAR
STARTCHAR 220B
ENCODING 8715
SWIDTH 990 0
DWIDTH 33 0
BBX 18 16 8 0
BITMAP
FFF800
FFFE00
000F00
000380
000180
000180
000180
FFFFC0
FFFFC0
000180
000180
000180
000380
000F00
FFFE00
FFF800
ENDCHAR
STARTCHAR 220D
ENCODING 8717
SWIDTH 540 0
DWIDTH 18 0
BBX 14 15 3 0
BITMAP
FFC0
FFE0
0038
0018
000C
000C
FFFC
FFFC
000C
000C
000C
0018
0070
FFE0
FFC0
ENDCHAR
STARTCHAR 220F
ENCODING 8719
SWIDTH 990 0
DWIDTH 33 0
BBX 25 32 4 -8
BITMAP
FFFFFF80
FFFFFF80
FFFFFF80
1E001C00
1E001C00
1E001C00
1E001C00
1E001C00
1E001C00
1E001C00
1E001C00
1E001C00
1E001C00
1E001C00
1E001C00
1E001C00
1E001C00
1E001C00
1E001C00
1E001C00
1E001C00
1E001C00
1E001C00
1E001C00
1E001C00
1E001C00
1E001C00
1E001C00
1E001C00
7F80FF00
7F80FF00
7F80FF00
ENDCHAR
STARTCHAR 2211
ENCODING 8721
SWIDTH 990 0
DWIDTH 33 0
BBX 16 29 8 -4
BITMAP
FFFF
FFFF
E007
E007
7007
7003
3803
1C00
1C00
0E00
0E00
0700
0700
0380
0380
0380
0700
0700
0E00
1C00
1C00
3800
3803
7003
7003
E003
E003
FFFF
FFFF
ENDCHAR
STARTCHAR 2212
ENCODING 8722
SWIDTH 570 0
DWIDTH 19 0
BBX 17 2 1 7
BITMAP
FFFF80
FFFF80
ENDCHAR
STARTCHAR 2213
ENCODING 8723
SWIDTH 990 0
DWIDTH 33 0
BBX 15 21 9 0
BITMAP
FFFE
FFFE
0000
0000
0000
0380
0380
0380
0380
0380
0380
0380
FFFE
FFFE
0380
0380
0380
0380
0380
0380
0380
ENDCHAR
STARTCHAR 2215
ENCODING 8725
SWIDTH 270 0
DWIDTH 9 0
BBX 17 24 -4 0
BITMAP
000180
000300
000600
000600
000C00
000800
001800
003000
003000
006000
00C000
00C000
018000
010000
030000
060000
060000
0C0000
180000
180000
300000
300000
600000
C00000
ENDCHAR
STARTCHAR 2217
ENCODING 8727
SWIDTH 990 0
DWIDTH 33 0
BBX 9 10 12 3
BITMAP
1C00
0C00
4D80
EB80
3E00
3E00
EB80
4D80
0C00
1C00
ENDCHAR
STARTCHAR 2219
ENCODING 8729
SWIDTH 270 0
DWIDTH 9 0
BBX 3 3 4 8
BITMAP
E0
E0
E0
ENDCHAR
STARTCHAR 221A
ENCODING 8730
SWIDTH 450 0
DWIDTH 15 0
BBX 16 31 -1 -1
BITMAP
0001
0001
0001
0001
0001
0003
0002
0002
0002
0002
0002
0006
0006
1804
7C04
CC04
0E04
060C
070C
0308
0388
0188
01C8
00D8
00D8
0070
0070
0030
0030
0010
0010
ENDCHAR
STARTCHAR 221D
ENCODING 8733
SWIDTH 990 0
DWIDTH 33 0
BBX 16 9 7 4
BITMAP
3C07
7F0F
C39C
C1F0
C0E0
C1F0
C3BC
7F0F
3C07
ENDCHAR
STARTCHAR 221E
ENCODING 8734
SWIDTH 720 0
DWIDTH 24 0
BBX 22 10 1 4
BITMAP
1C00C0
7F03F0
638E18
C0DC0C
C0780C
C0700C
C0FC0C
E1CE18
7F07F8
3E01E0
ENDCHAR
STARTCHAR 221F
ENCODING 8735
SWIDTH 990 0
DWIDTH 33 0
BBX 29 29 2 0
BITMAP
C0000000
C0000000
C0000000
C0000000
C0000000
C0000000
C0000000
C0000000
C0000000
C0000000
C0000000
C0000000
C0000000
C0000000
C0000000
C0000000
C0000000
C0000000
C0000000
C0000000
C0000000
C0000000
C0000000
C0000000
C0000000
C0000000
C0000000
FFFFFFF8
FFFFFFF8
ENDCHAR
STARTCHAR 2220
ENCODING 8736
SWIDTH 990 0
DWIDTH 33 0
BBX 18 14 8 0
BITMAP
000400
000C00
001800
003000
006000
00C000
018000
030000
060000
0C0000
180000
300000
600000
FFFFC0
ENDCHAR
STARTCHAR 2223
ENCODING 8739
SWIDTH 720 0
DWIDTH 24 0
BBX 2 33 11 -8
BITMAP
C0
C0
C0
C0
C0
C0
C0
C0
C0
C0
C0
C0
C0
C0
C0
C0
C0
C0
C0
C0
C0
C0
C0
C0
C0
C0
C0
C0
C0
C0
C0
C0
C0
ENDCHAR
STARTCHAR 2225
ENCODING 8741
SWIDTH 720 0
DWIDTH 24 0
BBX 8 38 8 -8
BITMAP
C3
C3
C3
C3
C3
C3
C3
C3
C3
C3
C3
C3
C3
C3
C3
C3
C3
C3
C3
C3
C3
C3
C3
C3
C3
C3
C3
C3
C3
C3
C3
C3
C3
C3
C3
C3
C3
C3
ENDCHAR
STARTCHAR 2227
ENCODING 8743
SWIDTH 990 0
DWIDTH 33 0
BBX 17 17 8 0
BITMAP
01C000
01C000
03E000
03E000
037000
073000
063800
0E3800
0C1C00
1C1C00
1C0C00
380E00
380600
300700
700700
600380
E00380
ENDCHAR
STARTCHAR 2228
ENCODING 8744
SWIDTH 990 0
DWIDTH 33 0
BBX 17 17 8 0
BITMAP
E00380
600380
700700
300700
380600
180E00
1C0C00
1C1C00
0C1800
0E3800
063800
073000
037000
03E000
03E000
01C000
01C000
ENDCHAR
STARTCHAR 2229
ENCODING 8745
SWIDTH 720 0
DWIDTH 24 0
BBX 16 20 4 0
BITMAP
07E0
1FF8
3C3C
700E
6006
E007
E007
C003
C003
C003
C003
C003
C003
C003
C003
C003
C003
C003
C003
C003
ENDCHAR
STARTCHAR 222A
ENCODING 8746
SWIDTH 720 0
DWIDTH 24 0
BBX 16 20 4 0
BITMAP
C003
C003
C003
C003
C003
C003
C003
C003
C003
C003
C003
C003
C003
E007
E007
6006
700E
3C3C
1FF8
07E0
ENDCHAR
STARTCHAR 222B
ENCODING 8747
SWIDTH 270 0
DWIDTH 9 0
BBX 9 35 1 -4
BITMAP
0200
0F00
0F80
0B00
1800
1800
1800
1800
1800
1800
1800
1800
1800
1800
1800
1800
1800
1800
1800
1800
1800
1800
1800
1800
1800
1800
1800
1800
1800
1800
1800
D800
F000
F000
4000
ENDCHAR
STARTCHAR 222E
ENCODING 8750
SWIDTH 990 0
DWIDTH 33 0
BBX 14 41 9 -9
BITMAP
00F8
01B8
013C
0338
0200
0200
0300
0700
0700
0700
0700
0700
0700
0780
0FE0
1FB0
2798
678C
4784
C784
C384
C3C4
43C4
63CC
23D8
3BF0
0FE0
03C0
01C0
01C0
01C0
0180
0180
0180
0180
0180
0180
3900
7900
7A00
3C00
ENDCHAR
STARTCHAR 2234
ENCODING 8756
SWIDTH 990 0
DWIDTH 33 0
BBX 21 21 6 0
BITMAP
007000
007800
00F800
007000
000000
000000
000000
000000
000000
000000
000000
000000
000000
000000
000000
000000
000000
700070
F80078
F00078
700070
ENDCHAR
STARTCHAR 2235
ENCODING 8757
SWIDTH 990 0
DWIDTH 33 0
BBX 21 21 6 0
BITMAP
700070
F80078
F80078
700070
000000
000000
000000
000000
000000
000000
000000
000000
000000
000000
000000
000000
000000
007000
00F800
00F800
007000
ENDCHAR
STARTCHAR 2237
ENCODING 8759
SWIDTH 990 0
DWIDTH 33 0
BBX 21 21 6 0
BITMAP
700070
F80078
F80078
700070
000000
000000
000000
000000
000000
000000
000000
000000
000000
000000
000000
000000
000000
700078
F80078
F80078
700070
ENDCHAR
STARTCHAR 2245
ENCODING 8773
SWIDTH 990 0
DWIDTH 33 0
BBX 16 11 9 4
BITMAP
3F06
7FFE
C0F8
0000
0000
FFFF
FFFF
0000
0000
FFFF
FFFF
ENDCHAR
STARTCHAR 2248
ENCODING 8776
SWIDTH 540 0
DWIDTH 18 0
BBX 16 10 1 2
BITMAP
0800
3F83
7FFE
61FE
C07C
0800
3F03
7FFE
61FE
C07C
ENDCHAR
STARTCHAR 2260
ENCODING 8800
SWIDTH 540 0
DWIDTH 18 0
BBX 16 17 1 -1
BITMAP
0018
0030
0030
0060
FFFF
FFFF
01C0
0180
0380
0300
FFFF
FFFF
0C00
0C00
1800
3800
1000
ENDCHAR
STARTCHAR 2261
ENCODING 8801
SWIDTH 570 0
DWIDTH 19 0
BBX 16 13 2 1
BITMAP
FFFF
FFFF
0000
0000
0000
FFFF
FFFF
0000
0000
0000
0000
FFFF
FFFF
ENDCHAR
STARTCHAR 2262
ENCODING 8802
SWIDTH 990 0
DWIDTH 33 0
BBX 15 19 9 0
BITMAP
0010
0018
0030
FFFE
FFFE
0060
00C0
01C0
0180
FFFE
FFFE
0600
0600
0C00
FFFE
FFFE
3000
3000
2000
ENDCHAR
STARTCHAR 2264
ENCODING 8804
SWIDTH 540 0
DWIDTH 18 0
BBX 16 21 1 1
BITMAP
0007
001F
007E
03F8
0FC0
3F00
F800
E000
FC00
3F00
07E0
01F8
007E
000F
0003
0000
0000
0000
0000
FFFF
FFFF
ENDCHAR
STARTCHAR 2265
ENCODING 8805
SWIDTH 540 0
DWIDTH 18 0
BBX 16 21 1 1
BITMAP
E000
F800
7E00
0FC0
03F0
00FC
001F
0007
003F
00FC
03F0
1F80
7E00
F800
C000
0000
0000
0000
0000
FFFF
FFFF
ENDCHAR
STARTCHAR 226A
ENCODING 8810
SWIDTH 990 0
DWIDTH 33 0
BBX 21 20 6 -1
BITMAP
000018
000078
0001F0
0007C0
003F00
00FC38
03E0F8
0F83F0
7E0F80
F87E00
F87E00
7E0F80
0F83F0
03E0F8
00FC38
003F00
0007C0
0001F8
000078
000018
ENDCHAR
STARTCHAR 226B
ENCODING 8811
SWIDTH 990 0
DWIDTH 33 0
BBX 21 20 6 -1
BITMAP
C00000
F00000
7C0000
1F0000
07E000
E1F800
F83E00
3E0F80
0F83F0
03F0F8
03F0F8
0FC3F0
3E0F80
F83E00
E1F800
07E000
1F0000
7C0000
F00000
C00000
ENDCHAR
STARTCHAR 2282
ENCODING 8834
SWIDTH 990 0
DWIDTH 33 0
BBX 18 16 8 0
BITMAP
0FFFC0
3FFFC0
780000
600000
E00000
C00000
C00000
C00000
C00000
C00000
C00000
E00000
600000
780000
3FFFC0
0FFFC0
ENDCHAR
STARTCHAR 2283
ENCODING 8835
SWIDTH 990 0
DWIDTH 33 0
BBX 18 16 8 0
BITMAP
FFF800
FFFE00
000F00
000380
000180
000180
000180
0001C0
0001C0
000180
000180
000180
000380
000F00
FFFE00
FFF800
ENDCHAR
STARTCHAR 2284
ENCODING 8836
SWIDTH 990 0
DWIDTH 33 0
BBX 18 20 8 -2
BITMAP
000180
000300
0FFFC0
3FFFC0
780C00
600C00
E01800
C01000
C03000
C06000
C06000
C0C000
C08000
E18000
730000
7B0000
3FFFC0
0FFFC0
0C0000
080000
ENDCHAR
STARTCHAR 2285
ENCODING 8837
SWIDTH 990 0
DWIDTH 33 0
BBX 18 20 8 -2
BITMAP
600000
600000
FFF800
FFFE00
180F00
0C0380
0C0180
060180
0601C0
0301C0
0181C0
018180
00C180
00C180
006380
003F00
FFFE00
FFF800
001800
000800
ENDCHAR
STARTCHAR 2286
ENCODING 8838
SWIDTH 990 0
DWIDTH 33 0
BBX 18 20 8 0
BITMAP
0FFFC0
1FFFC0
380000
700000
E00000
C00000
C00000
C00000
C00000
C00000
C00000
E00000
E00000
700000
380000
3FFFC0
0FFFC0
000000
FFFFC0
FFFFC0
ENDCHAR
STARTCHAR 2287
ENCODING 8839
SWIDTH 990 0
DWIDTH 33 0
BBX 18 20 8 0
BITMAP
FFF800
FFFE00
000F00
000300
000380
000180
000180
0001C0
0001C0
0001C0
000180
000180
000180
000300
000F00
FFFE00
FFF800
000000
FFFFC0
FFFFC0
ENDCHAR
STARTCHAR 2295
ENCODING 8853
SWIDTH 990 0
DWIDTH 33 0
BBX 24 24 5 0
BITMAP
007E00
03FFC0
0F19E0
1C1870
381838
30181C
60180C
601806
C01806
C01806
C01803
FFFFFF
FFFFFF
C01803
C01806
C01806
601806
60180C
30181C
381818
1C1870
0F19E0
03FF80
00FE00
ENDCHAR
STARTCHAR 2296
ENCODING 8854
SWIDTH 990 0
DWIDTH 33 0
BBX 24 24 5 -1
BITMAP
00FE00
03FF80
0F01E0
1C0070
380038
30001C
60000C
600006
C00006
C00006
C00003
FFFFFF
FFFFFF
C00003
C00006
C00006
E00006
60000C
30001C
380038
1C0070
0F81E0
03FF80
00FE00
ENDCHAR
STARTCHAR 2297
ENCODING 8855
SWIDTH 990 0
DWIDTH 33 0
BBX 24 24 5 0
BITMAP
007E00
03FF80
0781E0
1C0070
3C0038
3E007C
6700CC
638186
C1C306
C0E606
C07C03
C03803
C03C03
C06E03
C0C706
C18386
6301C6
6600CC
3C007C
380038
1C0070
0F81E0
03FF80
00FE00
ENDCHAR
STARTCHAR 2298
ENCODING 8856
SWIDTH 990 0
DWIDTH 33 0
BBX 24 24 5 0
BITMAP
00FE00
03FF80
0F01E0
1C0070
380038
30007C
6000EC
6001C6
C00386
C00706
C00E06
C01C03
C03803
C07006
C0E006
C1C006
E38006
67000C
3E001C
3C0038
1C0070
0F01E0
03FF80
00FE00
ENDCHAR
STARTCHAR 2299
ENCODING 8857
SWIDTH 990 0
DWIDTH 33 0
BBX 24 24 5 -1
BITMAP
00FE00
03FF80
0F01E0
1C0070
380038
30001C
60000C
600006
C00006
C00006
C03803
C03C03
C03C03
C03803
C00006
C00006
E00006
60000C
30001C
380038
1C0070
0F81E0
03FF80
00FE00
ENDCHAR
STARTCHAR 22A2
ENCODING 8866
SWIDTH 990 0
DWIDTH 33 0
BBX 21 18 6 0
BITMAP
C00000
C00000
C00000
C00000
C00000
C00000
C00000
C00000
FFFFF8
FFFFF8
C00000
C00000
C00000
C00000
C00000
C00000
C00000
C00000
ENDCHAR
STARTCHAR 22A3
ENCODING 8867
SWIDTH 990 0
DWIDTH 33 0
BBX 21 18 6 0
BITMAP
000018
000018
000018
000018
000018
000018
000018
000018
FFFFF8
FFFFF8
000018
000018
000018
000018
000018
000018
000018
000018
ENDCHAR
STARTCHAR 22A4
ENCODING 8868
SWIDTH 990 0
DWIDTH 33 0
BBX 19 21 7 0
BITMAP
FFFFE0
FFFFE0
00E000
00E000
00E000
00E000
00E000
00E000
00E000
00E000
00E000
00E000
00E000
00E000
00E000
00E000
00E000
00E000
00E000
00E000
00E000
ENDCHAR
STARTCHAR 22A5
ENCODING 8869
SWIDTH 990 0
DWIDTH 33 0
BBX 20 20 7 0
BITMAP
006000
006000
006000
006000
006000
006000
006000
006000
006000
006000
006000
006000
006000
006000
006000
006000
006000
006000
FFFFF0
FFFFF0
ENDCHAR
STARTCHAR 22BB
ENCODING 8891
SWIDTH 990 0
DWIDTH 33 0
BBX 19 24 7 -5
BITMAP
6000E0
6000C0
7001C0
300180
380380
180300
1C0300
1C0700
0C0600
0E0E00
060C00
071C00
031800
031800
03B800
01B000
01F000
00E000
00E000
000000
000000
000000
FFFFE0
FFFFE0
ENDCHAR
STARTCHAR 2302
ENCODING 8962
SWIDTH 600 0
DWIDTH 20 0
BBX 18 24 1 0
BITMAP
008000
00C000
01E000
033000
071800
061C00
0C0C00
180600
300300
700380
6001C0
C000C0
C000C0
C000C0
C000C0
C000C0
C000C0
C000C0
C000C0
C000C0
C000C0
C000C0
FFFFC0
FFFFC0
ENDCHAR
STARTCHAR 2310
ENCODING 8976
SWIDTH 570 0
DWIDTH 19 0
BBX 17 9 1 3
BITMAP
FFFF80
FFFF80
E00000
E00000
E00000
E00000
E00000
E00000
E00000
ENDCHAR
STARTCHAR 2320
ENCODING 8992
SWIDTH 600 0
DWIDTH 20 0
BBX 6 38 9 -7
BITMAP
10
78
7C
58
C0
C0
C0
C0
C0
C0
C0
C0
C0
C0
C0
C0
C0
C0
C0
C0
C0
C0
C0
C0
C0
C0
C0
C0
C0
C0
C0
C0
C0
C0
C0
C0
C0
C0
ENDCHAR
STARTCHAR 2321
ENCODING 8993
SWIDTH 600 0
DWIDTH 20 0
BBX 5 38 6 -7
BITMAP
18
18
18
18
18
18
18
18
18
18
18
18
18
18
18
18
18
18
18
18
18
18
18
18
18
18
18
18
18
18
18
18
18
18
08
F0
F0
E0
ENDCHAR
STARTCHAR 2329
ENCODING 9001
SWIDTH 330 0
DWIDTH 11 0
BBX 7 24 2 -4
BITMAP
02
06
04
0C
0C
18
18
30
30
70
60
E0
E0
60
70
30
30
18
18
0C
0C
04
06
02
ENDCHAR
STARTCHAR 232A
ENCODING 9002
SWIDTH 330 0
DWIDTH 11 0
BBX 7 24 2 -4
BITMAP
80
C0
40
60
60
30
30
18
18
1C
0C
0E
0E
0C
1C
18
18
30
30
60
60
40
C0
80
ENDCHAR
STARTCHAR 2500
ENCODING 9472
SWIDTH 990 0
DWIDTH 33 0
BBX 33 2 0 7
BITMAP
FFFFFFFF80
FFFFFFFF80
ENDCHAR
STARTCHAR 2502
ENCODING 9474
SWIDTH 990 0
DWIDTH 33 0
BBX 2 33 16 -8
BITMAP
C0
C0
C0
C0
C0
C0
C0
C0
C0
C0
C0
C0
C0
C0
C0
C0
C0
C0
C0
C0
C0
C0
C0
C0
C0
C0
C0
C0
C0
C0
C0
C0
C0
ENDCHAR
STARTCHAR 250C
ENCODING 9484
SWIDTH 990 0
DWIDTH 33 0
BBX 17 18 16 -9
BITMAP
FFFF80
FFFF80
C00000
C00000
C00000
C00000
C00000
C00000
C00000
C00000
C00000
C00000
C00000
C00000
C00000
C00000
C00000
C00000
ENDCHAR
STARTCHAR 2510
ENCODING 9488
SWIDTH 990 0
DWIDTH 33 0
BBX 18 18 0 -9
BITMAP
FFFFC0
FFFFC0
0000C0
0000C0
0000C0
0000C0
0000C0
0000C0
0000C0
0000C0
0000C0
0000C0
0000C0
0000C0
0000C0
0000C0
0000C0
0000C0
ENDCHAR
STARTCHAR 2514
ENCODING 9492
SWIDTH 990 0
DWIDTH 33 0
BBX 17 18 16 7
BITMAP
C00000
C00000
C00000
C00000
C00000
C00000
C00000
C00000
C00000
C00000
C00000
C00000
C00000
C00000
C00000
C00000
FFFF80
FFFF80
ENDCHAR
STARTCHAR 2518
ENCODING 9496
SWIDTH 990 0
DWIDTH 33 0
BBX 18 18 0 7
BITMAP
0000C0
0000C0
0000C0
0000C0
0000C0
0000C0
0000C0
0000C0
0000C0
0000C0
0000C0
0000C0
0000C0
0000C0
0000C0
0000C0
FFFFC0
FFFFC0
ENDCHAR
STARTCHAR 251C
ENCODING 9500
SWIDTH 990 0
DWIDTH 33 0
BBX 17 34 16 -9
BITMAP
C00000
C00000
C00000
C00000
C00000
C00000
C00000
C00000
C00000
C00000
C00000
C00000
C00000
C00000
C00000
C00000
FFFF80
FFFF80
C00000
C00000
C00000
C00000
C00000
C00000
C00000
C00000
C00000
C00000
C00000
C00000
C00000
C00000
C00000
C00000
ENDCHAR
STARTCHAR 2524
ENCODING 9508
SWIDTH 990 0
DWIDTH 33 0
BBX 18 34 0 -9
BITMAP
0000C0
0000C0
0000C0
0000C0
0000C0
0000C0
0000C0
0000C0
0000C0
0000C0
0000C0
0000C0
0000C0
0000C0
0000C0
0000C0
FFFFC0
FFFFC0
0000C0
0000C0
0000C0
0000C0
0000C0
0000C0
0000C0
0000C0
0000C0
0000C0
0000C0
0000C0
0000C0
0000C0
0000C0
0000C0
ENDCHAR
STARTCHAR 252C
ENCODING 9516
SWIDTH 990 0
DWIDTH 33 0
BBX 33 18 0 -9
BITMAP
FFFFFFFF80
FFFFFFFF80
0000C00000
0000C00000
0000C00000
0000C00000
0000C00000
0000C00000
0000C00000
0000C00000
0000C00000
0000C00000
0000C00000
0000C00000
0000C00000
0000C00000
0000C00000
0000C00000
ENDCHAR
STARTCHAR 2534
ENCODING 9524
SWIDTH 990 0
DWIDTH 33 0
BBX 33 18 0 7
BITMAP
0000C00000
0000C00000
0000C00000
0000C00000
0000C00000
0000C00000
0000C00000
0000C00000
0000C00000
0000C00000
0000C00000
0000C00000
0000C00000
0000C00000
0000C00000
0000C00000
FFFFFFFF80
FFFFFFFF80
ENDCHAR
STARTCHAR 253C
ENCODING 9532
SWIDTH 990 0
DWIDTH 33 0
BBX 33 34 0 -9
BITMAP
0000C00000
0000C00000
0000C00000
0000C00000
0000C00000
0000C00000
0000C00000
0000C00000
0000C00000
0000C00000
0000C00000
0000C00000
0000C00000
0000C00000
0000C00000
0000C00000
FFFFFFFF80
FFFFFFFF80
0000C00000
0000C00000
0000C00000
0000C00000
0000C00000
0000C00000
0000C00000
0000C00000
0000C00000
0000C00000
0000C00000
0000C00000
0000C00000
0000C00000
0000C00000
0000C00000
ENDCHAR
STARTCHAR 2550
ENCODING 9552
SWIDTH 990 0
DWIDTH 33 0
BBX 33 7 0 5
BITMAP
FFFFFFFF80
FFFFFFFF80
0000000000
0000000000
0000000000
FFFFFFFF80
FFFFFFFF80
ENDCHAR
STARTCHAR 2551
ENCODING 9553
SWIDTH 990 0
DWIDTH 33 0
BBX 7 33 13 -8
BITMAP
E6
E6
E6
E6
E6
E6
E6
E6
E6
E6
E6
E6
E6
E6
E6
E6
E6
E6
E6
E6
E6
E6
E6
E6
E6
E6
E6
E6
E6
E6
E6
E6
E6
ENDCHAR
STARTCHAR 2552
ENCODING 9554
SWIDTH 990 0
DWIDTH 33 0
BBX 17 20 16 -8
BITMAP
FFFF80
FFFF80
C00000
C00000
C00000
FFFF80
FFFF80
C00000
C00000
C00000
C00000
C00000
C00000
C00000
C00000
C00000
C00000
C00000
C00000
C00000
ENDCHAR
STARTCHAR 2553
ENCODING 9555
SWIDTH 990 0
DWIDTH 33 0
BBX 20 18 13 -9
BITMAP
FFFFF0
FFFFF0
E60000
E60000
E60000
E60000
E60000
E60000
E60000
E60000
E60000
E60000
E60000
E60000
E60000
E60000
E60000
E60000
ENDCHAR
STARTCHAR 2554
ENCODING 9556
SWIDTH 990 0
DWIDTH 33 0
BBX 20 20 13 -8
BITMAP
FFFFF0
FFFFF0
E00000
E00000
E00000
E7FFF0
E7FFF0
E60000
E60000
E60000
E60000
E60000
E60000
E60000
E60000
E60000
E60000
E60000
E60000
E60000
ENDCHAR
STARTCHAR 2555
ENCODING 9557
SWIDTH 990 0
DWIDTH 33 0
BBX 18 20 0 -8
BITMAP
FFFFC0
FFFFC0
0000C0
0000C0
0000C0
FFFFC0
FFFFC0
0000C0
0000C0
0000C0
0000C0
0000C0
0000C0
0000C0
0000C0
0000C0
0000C0
0000C0
0000C0
0000C0
ENDCHAR
STARTCHAR 2556
ENCODING 9558
SWIDTH 990 0
DWIDTH 33 0
BBX 20 18 0 -9
BITMAP
FFFFF0
FFFFF0
000730
000730
000730
000730
000730
000730
000730
000730
000730
000730
000730
000730
000730
000730
000730
000730
ENDCHAR
STARTCHAR 2557
ENCODING 9559
SWIDTH 990 0
DWIDTH 33 0
BBX 20 20 0 -8
BITMAP
FFFFF0
FFFFF0
000030
000030
000030
FFFF30
FFFF30
000730
000730
000730
000730
000730
000730
000730
000730
000730
000730
000730
000730
000730
ENDCHAR
STARTCHAR 2558
ENCODING 9560
SWIDTH 990 0
DWIDTH 33 0
BBX 17 20 16 5
BITMAP
C00000
C00000
C00000
C00000
C00000
C00000
C00000
C00000
C00000
C00000
C00000
C00000
C00000
FFFF80
FFFF80
C00000
C00000
C00000
FFFF80
FFFF80
ENDCHAR
STARTCHAR 2559
ENCODING 9561
SWIDTH 990 0
DWIDTH 33 0
BBX 20 18 13 7
BITMAP
E60000
E60000
E60000
E60000
E60000
E60000
E60000
E60000
E60000
E60000
E60000
E60000
E60000
E60000
E60000
E60000
FFFFF0
FFFFF0
ENDCHAR
STARTCHAR 255A
ENCODING 9562
SWIDTH 990 0
DWIDTH 33 0
BBX 20 20 13 5
BITMAP
E60000
E60000
E60000
E60000
E60000
E60000
E60000
E60000
E60000
E60000
E60000
E60000
E60000
E7FFF0
E7FFF0
E00000
E00000
E00000
FFFFF0
FFFFF0
ENDCHAR
STARTCHAR 255B
ENCODING 9563
SWIDTH 990 0
DWIDTH 33 0
BBX 18 20 0 5
BITMAP
0000C0
0000C0
0000C0
0000C0
0000C0
0000C0
0000C0
0000C0
0000C0
0000C0
0000C0
0000C0
0000C0
FFFFC0
FFFFC0
0000C0
0000C0
0000C0
FFFFC0
FFFFC0
ENDCHAR
STARTCHAR 255C
ENCODING 9564
SWIDTH 990 0
DWIDTH 33 0
BBX 20 18 0 7
BITMAP
000730
000730
000730
000730
000730
000730
000730
000730
000730
000730
000730
000730
000730
000730
000730
000730
FFFFF0
FFFFF0
ENDCHAR
STARTCHAR 255D
ENCODING 9565
SWIDTH 990 0
DWIDTH 33 0
BBX 20 20 0 5
BITMAP
000730
000730
000730
000730
000730
000730
000730
000730
000730
000730
000730
000730
000730
FFFF30
FFFF30
000030
000030
000030
FFFFF0
FFFFF0
ENDCHAR
STARTCHAR 255E
ENCODING 9566
SWIDTH 990 0
DWIDTH 33 0
BBX 17 33 16 -8
BITMAP
C00000
C00000
C00000
C00000
C00000
C00000
C00000
C00000
C00000
C00000
C00000
C00000
C00000
FFFF80
FFFF80
C00000
C00000
C00000
FFFF80
FFFF80
C00000
C00000
C00000
C00000
C00000
C00000
C00000
C00000
C00000
C00000
C00000
C00000
C00000
ENDCHAR
STARTCHAR 255F
ENCODING 9567
SWIDTH 990 0
DWIDTH 33 0
BBX 20 34 13 -9
BITMAP
E60000
E60000
E60000
E60000
E60000
E60000
E60000
E60000
E60000
E60000
E60000
E60000
E60000
E60000
E60000
E60000
E7FFF0
E7FFF0
E60000
E60000
E60000
E60000
E60000
E60000
E60000
E60000
E60000
E60000
E60000
E60000
E60000
E60000
E60000
E60000
ENDCHAR
STARTCHAR 2560
ENCODING 9568
SWIDTH 990 0
DWIDTH 33 0
BBX 20 33 13 -8
BITMAP
E60000
E60000
E60000
E60000
E60000
E60000
E60000
E60000
E60000
E60000
E60000
E60000
E60000
E7FFF0
E7FFF0
E00000
E00000
E00000
E7FFF0
E7FFF0
E60000
E60000
E60000
E60000
E60000
E60000
E60000
E60000
E60000
E60000
E60000
E60000
E60000
ENDCHAR
STARTCHAR 2561
ENCODING 9569
SWIDTH 990 0
DWIDTH 33 0
BBX 18 33 0 -8
BITMAP
0000C0
0000C0
0000C0
0000C0
0000C0
0000C0
0000C0
0000C0
0000C0
0000C0
0000C0
0000C0
0000C0
FFFFC0
FFFFC0
0000C0
0000C0
0000C0
FFFFC0
FFFFC0
0000C0
0000C0
0000C0
0000C0
0000C0
0000C0
0000C0
0000C0
0000C0
0000C0
0000C0
0000C0
0000C0
ENDCHAR
STARTCHAR 2562
ENCODING 9570
SWIDTH 990 0
DWIDTH 33 0
BBX 20 34 0 -9
BITMAP
000730
000730
000730
000730
000730
000730
000730
000730
000730
000730
000730
000730
000730
000730
000730
000730
FFFF30
FFFF30
000730
000730
000730
000730
000730
000730
000730
000730
000730
000730
000730
000730
000730
000730
000730
000730
ENDCHAR
STARTCHAR 2563
ENCODING 9571
SWIDTH 990 0
DWIDTH 33 0
BBX 20 33 0 -8
BITMAP
000730
000730
000730
000730
000730
000730
000730
000730
000730
000730
000730
000730
000730
FFFF30
FFFF30
000030
000030
000030
FFFF30
FFFF30
000730
000730
000730
000730
000730
000730
000730
000730
000730
000730
000730
000730
000730
ENDCHAR
STARTCHAR 2564
ENCODING 9572
SWIDTH 990 0
DWIDTH 33 0
BBX 33 20 0 -8
BITMAP
FFFFFFFF80
FFFFFFFF80
0000000000
0000000000
0000000000
FFFFFFFF80
FFFFFFFF80
0000C00000
0000C00000
0000C00000
0000C00000
0000C00000
0000C00000
0000C00000
0000C00000
0000C00000
0000C00000
0000C00000
0000C00000
0000C00000
ENDCHAR
STARTCHAR 2565
ENCODING 9573
SWIDTH 990 0
DWIDTH 33 0
BBX 33 18 0 -9
BITMAP
FFFFFFFF80
FFFFFFFF80
0007300000
0007300000
0007300000
0007300000
0007300000
0007300000
0007300000
0007300000
0007300000
0007300000
0007300000
0007300000
0007300000
0007300000
0007300000
0007300000
ENDCHAR
STARTCHAR 2566
ENCODING 9574
SWIDTH 990 0
DWIDTH 33 0
BBX 33 20 0 -8
BITMAP
FFFFFFFF80
FFFFFFFF80
0000000000
0000000000
0000000000
FFFF3FFF80
FFFF3FFF80
0007300000
0007300000
0007300000
0007300000
0007300000
0007300000
0007300000
0007300000
0007300000
0007300000
0007300000
0007300000
0007300000
ENDCHAR
STARTCHAR 2567
ENCODING 9575
SWIDTH 990 0
DWIDTH 33 0
BBX 33 20 0 5
BITMAP
0000C00000
0000C00000
0000C00000
0000C00000
0000C00000
0000C00000
0000C00000
0000C00000
0000C00000
0000C00000
0000C00000
0000C00000
0000C00000
FFFFFFFF80
FFFFFFFF80
0000000000
0000000000
0000000000
FFFFFFFF80
FFFFFFFF80
ENDCHAR
STARTCHAR 2568
ENCODING 9576
SWIDTH 990 0
DWIDTH 33 0
BBX 33 18 0 7
BITMAP
0007300000
0007300000
0007300000
0007300000
0007300000
0007300000
0007300000
0007300000
0007300000
0007300000
0007300000
0007300000
0007300000
0007300000
0007300000
0007300000
FFFFFFFF80
FFFFFFFF80
ENDCHAR
STARTCHAR 2569
ENCODING 9577
SWIDTH 990 0
DWIDTH 33 0
BBX 33 20 0 5
BITMAP
0007300000
0007300000
0007300000
0007300000
0007300000
0007300000
0007300000
0007300000
0007300000
0007300000
0007300000
0007300000
0007300000
FFFF3FFF80
FFFF3FFF80
0000000000
0000000000
0000000000
FFFFFFFF80
FFFFFFFF80
ENDCHAR
STARTCHAR 256A
ENCODING 9578
SWIDTH 990 0
DWIDTH 33 0
BBX 33 33 0 -8
BITMAP
0000C00000
0000C00000
0000C00000
0000C00000
0000C00000
0000C00000
0000C00000
0000C00000
0000C00000
0000C00000
0000C00000
0000C00000
0000C00000
FFFFFFFF80
FFFFFFFF80
0000C00000
0000C00000
0000C00000
FFFFFFFF80
FFFFFFFF80
0000C00000
0000C00000
0000C00000
0000C00000
0000C00000
0000C00000
0000C00000
0000C00000
0000C00000
0000C00000
0000C00000
0000C00000
0000C00000
ENDCHAR
STARTCHAR 256B
ENCODING 9579
SWIDTH 990 0
DWIDTH 33 0
BBX 33 34 0 -9
BITMAP
0007300000
0007300000
0007300000
0007300000
0007300000
0007300000
0007300000
0007300000
0007300000
0007300000
0007300000
0007300000
0007300000
0007300000
0007300000
0007300000
FFFFFFFF80
FFFFFFFF80
0007300000
0007300000
0007300000
0007300000
0007300000
0007300000
0007300000
0007300000
0007300000
0007300000
0007300000
0007300000
0007300000
0007300000
0007300000
0007300000
ENDCHAR
STARTCHAR 256C
ENCODING 9580
SWIDTH 990 0
DWIDTH 33 0
BBX 33 33 0 -8
BITMAP
0007300000
0007300000
0007300000
0007300000
0007300000
0007300000
0007300000
0007300000
0007300000
0007300000
0007300000
0007300000
0007300000
FFFF3FFF80
FFFF3FFF80
0000000000
0000000000
0000000000
FFFF3FFF80
FFFF3FFF80
0007300000
0007300000
0007300000
0007300000
0007300000
0007300000
0007300000
0007300000
0007300000
0007300000
0007300000
0007300000
0007300000
ENDCHAR
STARTCHAR 256D
ENCODING 9581
SWIDTH 990 0
DWIDTH 33 0
BBX 17 18 16 -9
BITMAP
003F80
01FF80
07E000
0F0000
1C0000
380000
700000
600000
E00000
C00000
C00000
C00000
C00000
C00000
C00000
C00000
C00000
C00000
ENDCHAR
STARTCHAR 256E
ENCODING 9582
SWIDTH 990 0
DWIDTH 33 0
BBX 18 18 0 -9
BITMAP
FE0000
FFE000
03F000
003800
001C00
000E00
000700
000300
000380
000180
000180
000180
0001C0
0001C0
0001C0
0001C0
0000C0
0000C0
ENDCHAR
STARTCHAR 256F
ENCODING 9583
SWIDTH 990 0
DWIDTH 33 0
BBX 18 18 0 7
BITMAP
0000C0
0000C0
0001C0
0001C0
0001C0
0001C0
000180
000180
000180
000380
000300
000700
000E00
001C00
007800
03F000
FFC000
FE0000
ENDCHAR
STARTCHAR 2570
ENCODING 9584
SWIDTH 990 0
DWIDTH 33 0
BBX 17 18 16 7
BITMAP
C00000
C00000
C00000
C00000
C00000
C00000
C00000
C00000
E00000
E00000
600000
700000
380000
1C0000
0F0000
07E000
01FF80
003F80
ENDCHAR
STARTCHAR 2580
ENCODING 9600
SWIDTH 990 0
DWIDTH 33 0
BBX 33 17 0 8
BITMAP
FFFFFFFF80
FFFFFFFF80
FFFFFFFF80
FFFFFFFF80
FFFFFFFF80
FFFFFFFF80
FFFFFFFF80
FFFFFFFF80
FFFFFFFF80
FFFFFFFF80
FFFFFFFF80
FFFFFFFF80
FFFFFFFF80
FFFFFFFF80
FFFFFFFF80
FFFFFFFF80
FFFFFFFF80
ENDCHAR
STARTCHAR 2584
ENCODING 9604
SWIDTH 990 0
DWIDTH 33 0
BBX 33 16 0 -8
BITMAP
FFFFFFFF80
FFFFFFFF80
FFFFFFFF80
FFFFFFFF80
FFFFFFFF80
FFFFFFFF80
FFFFFFFF80
FFFFFFFF80
FFFFFFFF80
FFFFFFFF80
FFFFFFFF80
FFFFFFFF80
FFFFFFFF80
FFFFFFFF80
FFFFFFFF80
FFFFFFFF80
ENDCHAR
STARTCHAR 2588
ENCODING 9608
SWIDTH 990 0
DWIDTH 33 0
BBX 33 33 0 -8
BITMAP
FFFFFFFF80
FFFFFFFF80
FFFFFFFF80
FFFFFFFF80
FFFFFFFF80
FFFFFFFF80
FFFFFFFF80
FFFFFFFF80
FFFFFFFF80
FFFFFFFF80
FFFFFFFF80
FFFFFFFF80
FFFFFFFF80
FFFFFFFF80
FFFFFFFF80
FFFFFFFF80
FFFFFFFF80
FFFFFFFF80
FFFFFFFF80
FFFFFFFF80
FFFFFFFF80
FFFFFFFF80
FFFFFFFF80
FFFFFFFF80
FFFFFFFF80
FFFFFFFF80
FFFFFFFF80
FFFFFFFF80
FFFFFFFF80
FFFFFFFF80
FFFFFFFF80
FFFFFFFF80
FFFFFFFF80
ENDCHAR
STARTCHAR 258C
ENCODING 9612
SWIDTH 990 0
DWIDTH 33 0
BBX 17 33 0 -8
BITMAP
FFFF80
FFFF80
FFFF80
FFFF80
FFFF80
FFFF80
FFFF80
FFFF80
FFFF80
FFFF80
FFFF80
FFFF80
FFFF80
FFFF80
FFFF80
FFFF80
FFFF80
FFFF80
FFFF80
FFFF80
FFFF80
FFFF80
FFFF80
FFFF80
FFFF80
FFFF80
FFFF80
FFFF80
FFFF80
FFFF80
FFFF80
FFFF80
FFFF80
ENDCHAR
STARTCHAR 2590
ENCODING 9616
SWIDTH 990 0
DWIDTH 33 0
BBX 16 33 17 -8
BITMAP
FFFF
FFFF
FFFF
FFFF
FFFF
FFFF
FFFF
FFFF
FFFF
FFFF
FFFF
FFFF
FFFF
FFFF
FFFF
FFFF
FFFF
FFFF
FFFF
FFFF
FFFF
FFFF
FFFF
FFFF
FFFF
FFFF
FFFF
FFFF
FFFF
FFFF
FFFF
FFFF
FFFF
ENDCHAR
STARTCHAR 2591
ENCODING 9617
SWIDTH 990 0
DWIDTH 33 0
BBX 28 28 1 -3
BITMAP
FC1F83F0
FC1F83F0
FC1F83F0
FC1F83F0
FC1F83F0
FC1F83F0
00000000
00000000
00000000
00000000
00000000
FC1F83F0
FC1F83F0
FC1F83F0
FC1F83F0
FC1F83F0
FC1F83F0
00000000
00000000
00000000
00000000
00000000
FC1F83F0
FC1F83F0
FC1F83F0
FC1F83F0
FC1F83F0
FC1F83F0
ENDCHAR
STARTCHAR 2592
ENCODING 9618
SWIDTH 990 0
DWIDTH 33 0
BBX 33 33 0 -8
BITMAP
F81F83F000
F81F83F000
F81F83F000
F81F83F000
F81F83F000
0820841000
07E07C0F80
07E07C0F80
07E07C0F80
07E07C0F80
07E07C0F80
F81F83F000
F81F83F000
F81F83F000
F81F83F000
F81F83F000
07E07C0F80
07E07C0F80
07E07C0F80
07E07C0F80
07E07C0F80
07E07C0F80
F81F83F000
F81F83F000
F81F83F000
F81F83F000
F81F83F000
F81F83F000
07E07C0F80
07E07C0F80
07E07C0F80
07E07C0F80
07E07C0F80
ENDCHAR
STARTCHAR 2593
ENCODING 9619
SWIDTH 990 0
DWIDTH 33 0
BBX 33 33 0 -8
BITMAP
FFFFFFFF80
FFFFFFFF80
FFFFFFFF80
FFFFFFFF80
FFFFFFFF80
FFFFFFFF80
F81F83F000
F81F83F000
F81F83F000
F81F83F000
F81F83F000
FFFFFFFF80
FFFFFFFF80
FFFFFFFF80
FFFFFFFF80
FFFFFFFF80
FFFFFFFF80
F81F83F000
F81F83F000
F81F83F000
F81F83F000
F81F83F000
FFFFFFFF80
FFFFFFFF80
FFFFFFFF80
FFFFFFFF80
FFFFFFFF80
FFFFFFFF80
F81F83F000
F81F83F000
F81F83F000
F81F83F000
F81F83F000
ENDCHAR
STARTCHAR 25A0
ENCODING 9632
SWIDTH 600 0
DWIDTH 20 0
BBX 24 24 -2 0
BITMAP
FFFFFF
FFFFFF
FFFFFF
FFFFFF
FFFFFF
FFFFFF
FFFFFF
FFFFFF
FFFFFF
FFFFFF
FFFFFF
FFFFFF
FFFFFF
FFFFFF
FFFFFF
FFFFFF
FFFFFF
FFFFFF
FFFFFF
FFFFFF
FFFFFF
FFFFFF
FFFFFF
FFFFFF
ENDCHAR
STARTCHAR 25A1
ENCODING 9633
SWIDTH 600 0
DWIDTH 20 0
BBX 18 17 1 0
BITMAP
FFFFC0
FFFFC0
C000C0
C000C0
C000C0
C000C0
C000C0
C000C0
C000C0
C000C0
C000C0
C000C0
C000C0
C000C0
C000C0
FFFFC0
FFFFC0
ENDCHAR
STARTCHAR 25AA
ENCODING 9642
SWIDTH 360 0
DWIDTH 12 0
BBX 8 9 2 4
BITMAP
FF
FF
FF
FF
FF
FF
FF
FF
FF
ENDCHAR
STARTCHAR 25AB
ENCODING 9643
SWIDTH 360 0
DWIDTH 12 0
BBX 8 9 2 4
BITMAP
FF
FF
83
83
83
83
83
FF
FF
ENDCHAR
STARTCHAR 25AC
ENCODING 9644
SWIDTH 990 0
DWIDTH 33 0
BBX 24 12 5 0
BITMAP
FFFFFF
FFFFFF
FFFFFF
FFFFFF
FFFFFF
FFFFFF
FFFFFF
FFFFFF
FFFFFF
FFFFFF
FFFFFF
FFFFFF
ENDCHAR
STARTCHAR 25B2
ENCODING 9650
SWIDTH 990 0
DWIDTH 33 0
BBX 19 19 7 2
BITMAP
004000
004000
00E000
00E000
01F000
01F000
03F800
03F800
07FC00
0FFE00
0FFE00
1FFF00
1FFF00
3FFF80
3FFF80
7FFFC0
7FFFC0
FFFFE0
FFFFE0
ENDCHAR
STARTCHAR 25B5
ENCODING 9653
SWIDTH 720 0
DWIDTH 24 0
BBX 16 15 4 2
BITMAP
0180
0180
03C0
03C0
07E0
0660
0E70
0C30
1C38
1818
381C
300C
700E
7FFE
FFFF
ENDCHAR
STARTCHAR 25B9
ENCODING 9657
SWIDTH 720 0
DWIDTH 24 0
BBX 15 16 4 1
BITMAP
8000
E000
F800
DE00
C780
C1E0
C078
C01E
C01E
C078
C1E0
CF80
FE00
F800
E000
8000
ENDCHAR
STARTCHAR 25BA
ENCODING 9658
SWIDTH 990 0
DWIDTH 33 0
BBX 18 13 8 5
BITMAP
800000
F00000
FE0000
FFC000
FFF000
FFFE00
FFFFC0
FFFF00
FFF800
FFE000
FF0000
F80000
C00000
ENDCHAR
STARTCHAR 25BC
ENCODING 9660
SWIDTH 990 0
DWIDTH 33 0
BBX 19 19 7 1
BITMAP
FFFFE0
FFFFE0
7FFFC0
7FFFC0
3FFF80
3FFF80
1FFF00
1FFE00
0FFE00
07FC00
07FC00
03F800
03F800
01F000
01F000
00E000
00E000
004000
004000
ENDCHAR
STARTCHAR 25BF
ENCODING 9663
SWIDTH 720 0
DWIDTH 24 0
BBX 16 15 4 1
BITMAP
FFFF
7FFE
700E
300C
381C
1818
1C38
0C30
0E70
0660
06E0
03C0
03C0
0180
0180
ENDCHAR
STARTCHAR 25C3
ENCODING 9667
SWIDTH 720 0
DWIDTH 24 0
BBX 15 16 5 1
BITMAP
0002
000E
003E
00F6
03C6
0F06
3C06
F006
F006
3C06
0F06
03E6
00FE
003E
000E
0002
ENDCHAR
STARTCHAR 25C4
ENCODING 9668
SWIDTH 990 0
DWIDTH 33 0
BBX 18 13 7 5
BITMAP
000040
0003C0
001FC0
00FFC0
03FFC0
1FFFC0
FFFFC0
3FFFC0
07FFC0
01FFC0
003FC0
0007C0
0000C0
ENDCHAR
STARTCHAR 25C6
ENCODING 9670
SWIDTH 990 0
DWIDTH 33 0
BBX 17 19 8 1
BITMAP
008000
00C000
01E000
03F000
07F800
0FF800
1FFC00
3FFE00
7FFF00
FFFF80
FFFF80
7FFF00
3FFE00
1FFC00
0FFC00
07F800
03F000
01E000
00C000
ENDCHAR
STARTCHAR 25C7
ENCODING 9671
SWIDTH 990 0
DWIDTH 33 0
BBX 21 23 6 0
BITMAP
002000
007000
00D800
008C00
010600
020300
040100
0C0080
180040
300020
600010
C00018
600010
300020
180040
080080
040180
020300
010600
018C00
00D800
007000
002000
ENDCHAR
STARTCHAR 25CA
ENCODING 9674
SWIDTH 480 0
DWIDTH 16 0
BBX 15 25 0 0
BITMAP
0180
0380
03C0
06C0
0E60
0C60
1C30
1830
3018
3018
600C
600C
C006
6006
600C
300C
3018
1818
1830
0C30
0C60
06E0
06C0
0380
0380
ENDCHAR
STARTCHAR 25CB
ENCODING 9675
SWIDTH 600 0
DWIDTH 20 0
BBX 18 19 1 3
BITMAP
00C000
07FC00
1C0E00
380300
600180
600180
C000C0
C000C0
800040
800040
800040
C00040
C000C0
4000C0
600180
300300
1C0600
0FFC00
03F000
ENDCHAR
STARTCHAR 25CF
ENCODING 9679
SWIDTH 600 0
DWIDTH 20 0
BBX 18 17 1 0
BITMAP
03F800
0FFC00
1FFE00
3FFF00
7FFF80
7FFF80
7FFFC0
FFFFC0
FFFFC0
7FFFC0
7FFF80
7FFF80
7FFF80
3FFF00
1FFE00
0FFC00
03F000
ENDCHAR
STARTCHAR 25D8
ENCODING 9688
SWIDTH 600 0
DWIDTH 20 0
BBX 20 21 0 0
BITMAP
FFFFF0
FFFFF0
FFFFF0
FFFFF0
FFFFF0
FFFFF0
FF0FF0
FE07F0
FC03F0
FC03F0
FC03F0
FC03F0
FC03F0
FE07F0
FF0FF0
FFFFF0
FFFFF0
FFFFF0
FFFFF0
FFFFF0
FFFFF0
ENDCHAR
STARTCHAR 25D9
ENCODING 9689
SWIDTH 600 0
DWIDTH 20 0
BBX 24 24 -2 0
BITMAP
FFFFFF
FFFFFF
FFFFFF
FF00FF
FC7E3F
F8FF9F
F3FFCF
F3FFEF
E7FFE7
E7FFE7
E7FFF7
EFFFF7
EFFFF7
E7FFF7
E7FFE7
F7FFE7
F3FFCF
F9FF9F
FCFF3F
FE007F
FF81FF
FFFFFF
FFFFFF
FFFFFF
ENDCHAR
STARTCHAR 25E6
ENCODING 9702
SWIDTH 510 0
DWIDTH 17 0
BBX 13 12 2 3
BITMAP
0F80
3FC0
70E0
6030
C030
C018
C018
C030
E030
7060
3FC0
0F80
ENDCHAR
STARTCHAR 263A
ENCODING 9786
SWIDTH 1020 0
DWIDTH 34 0
BBX 24 24 5 0
BITMAP
007F00
03FFC0
0700F0
1C0038
18001C
30000C
600006
61C182
C1C383
C1C383
C00003
C00001
C80011
C40023
C60023
C700E3
63FFC2
61FF86
307E0C
180018
0C0038
0700E0
03FFC0
007E00
ENDCHAR
STARTCHAR 263B
ENCODING 9787
SWIDTH 1050 0
DWIDTH 35 0
BBX 25 24 5 0
BITMAP
007F0000
01FFE000
07FFF000
0FFFF800
1FFFFC00
3FFFFE00
3FFFFE00
7F3E3F00
7E1C3F00
7F3E3F80
FFFFFF80
FFFFFF80
FBFFFF80
7BFFEF80
7DFFCF00
7C7F1F00
7E003F00
3F007E00
3F80FE00
1FFFFC00
0FFFF800
07FFF000
01FFC000
007F0000
ENDCHAR
STARTCHAR 263C
ENCODING 9788
SWIDTH 930 0
DWIDTH 31 0
BBX 25 25 3 0
BITMAP
00180000
00180000
00180000
18180800
1C7F1C00
0FFFF800
07C1E000
0700F000
0E007000
0E003800
0C003800
FC003F80
FC001F80
0C003800
0E003800
0E007000
07007000
0781E000
07FFF000
0DFFB800
183E1C00
10180800
00180000
00180000
00180000
ENDCHAR
STARTCHAR 2640
ENCODING 9792
SWIDTH 750 0
DWIDTH 25 0
BBX 13 23 6 1
BITMAP
0F80
1FC0
3060
6030
6010
C018
C018
6010
6030
7060
3FE0
0F80
0200
0200
0200
0200
FFF8
0200
0200
0200
0200
0200
0200
ENDCHAR
STARTCHAR 2642
ENCODING 9794
SWIDTH 750 0
DWIDTH 25 0
BBX 19 19 3 5
BITMAP
001FE0
000FC0
0003C0
0003C0
0006C0
000CC0
001840
0FB040
1FE000
307000
603000
401800
C01800
C01800
401000
603000
306000
1FE000
0F8000
ENDCHAR
STARTCHAR 2660
ENCODING 9824
SWIDTH 540 0
DWIDTH 18 0
BBX 20 24 0 1
BITMAP
002000
006000
007000
00F000
01F800
03FC00
07FE00
0FFF00
1FFF80
3FFFC0
7FFFE0
7FFFF0
FFFFF0
FFFFF0
FFFFF0
FFDFF0
7FCFE0
3F27C0
002000
006000
00F000
00F800
03FE00
3FFFC0
ENDCHAR
STARTCHAR 2663
ENCODING 9827
SWIDTH 660 0
DWIDTH 22 0
BBX 24 24 -1 0
BITMAP
003C00
00FF00
01FF80
01FF80
01FF80
03FF80
01FF80
01FF80
3EFF7C
7FFFFE
FFFFFF
FFFFFF
FFFFFF
FFFFFF
FFEFFF
FFF7FF
7FD3FE
3F99FC
0C1870
001C00
003C00
007E00
01FF80
0FFFF0
ENDCHAR
STARTCHAR 2665
ENCODING 9829
SWIDTH 600 0
DWIDTH 20 0
BBX 22 24 -1 -1
BITMAP
1E03E0
3F87F0
7FCFF8
FFDFF8
FFFFFC
FFFFFC
FFFFFC
FFFFF8
7FFFF8
7FFFF0
3FFFF0
1FFFE0
1FFFE0
0FFFC0
07FF80
03FF00
03FE00
01FE00
00FC00
00F800
007800
007000
003000
002000
ENDCHAR
STARTCHAR 2666
ENCODING 9830
SWIDTH 510 0
DWIDTH 17 0
BBX 18 25 0 -1
BITMAP
008000
00C000
01E000
01E000
03F000
07F800
07F800
0FFC00
1FFE00
3FFF00
3FFF00
7FFF80
FFFFC0
FFFFC0
7FFF80
3FFF00
1FFE00
1FFE00
0FFC00
07F800
07F000
03F000
01E000
01C000
00C000
ENDCHAR
STARTCHAR 266A
ENCODING 9834
SWIDTH 510 0
DWIDTH 17 0
BBX 13 24 2 0
BITMAP
0200
0200
0300
0380
0380
03C0
03E0
02F0
0270
0230
0218
0218
0218
0218
0218
0218
0210
0230
7E20
FE00
FE00
FC00
F800
6000
ENDCHAR
STARTCHAR 266B
ENCODING 9835
SWIDTH 750 0
DWIDTH 25 0
BBX 18 22 3 -1
BITMAP
03F000
03FFC0
03FFC0
020FC0
020040
020040
020040
020040
020040
020040
020040
020040
020040
020040
1A0040
7E0040
FE07C0
FC0FC0
FC1FC0
F01FC0
001F80
000E00
ENDCHAR
STARTCHAR 301A
ENCODING 12314
SWIDTH 720 0
DWIDTH 24 0
BBX 10 32 7 -5
BITMAP
FFC0
FFC0
C400
C400
C400
C400
C400
C400
C400
C400
C400
C400
C400
C400
C400
C400
C400
C400
C400
C400
C400
C400
C400
C400
C400
C400
C400
C400
C400
C400
FFC0
FFC0
ENDCHAR
STARTCHAR 301B
ENCODING 12315
SWIDTH 720 0
DWIDTH 24 0
BBX 10 32 7 -5
BITMAP
FFC0
FFC0
08C0
08C0
08C0
08C0
08C0
08C0
08C0
08C0
08C0
08C0
08C0
08C0
08C0
08C0
08C0
08C0
08C0
08C0
08C0
08C0
08C0
08C0
08C0
08C0
08C0
08C0
08C0
08C0
FFC0
FFC0
ENDCHAR
STARTCHAR EFBF
ENCODING 61375
SWIDTH 720 0
DWIDTH 24 0
BBX 29 28 -4 0
BITMAP
00000010
00000038
00000070
00000070
000000E0
000001C0
000003C0
00000380
00000700
00000E00
00001E00
0C001C00
3E003800
EE007000
8600F000
0700E000
0701C000
07038000
03038000
03870000
038E0000
019E0000
01DC0000
01F80000
00F00000
00F00000
00E00000
00400000
ENDCHAR
STARTCHAR EFC0
ENCODING 61376
SWIDTH 720 0
DWIDTH 24 0
BBX 16 36 0 -7
BITMAP
00E7
00E7
00E7
00E7
00E7
00E7
00E7
00E7
00E7
00E7
00E7
00E7
00E7
00E7
00E7
00E7
00E7
00E7
00E7
00E7
00E7
00E7
00E7
00E7
00E7
00E7
00E7
00E7
00E7
00E7
00E7
00E7
00E7
FFFF
FFFF
FFFF
ENDCHAR
STARTCHAR EFC1
ENCODING 61377
SWIDTH 720 0
DWIDTH 24 0
BBX 16 36 0 -6
BITMAP
FFFF
FFFF
FFFF
00E7
00E7
00E7
00E7
00E7
00E7
00E7
00E7
00E7
00E7
00E7
00E7
00E7
00E7
00E7
00E7
00E7
00E7
00E7
00E7
00E7
00E7
00E7
00E7
00E7
00E7
00E7
00E7
00E7
00E7
00E7
00E7
00E7
ENDCHAR
STARTCHAR EFC2
ENCODING 61378
SWIDTH 720 0
DWIDTH 24 0
BBX 24 33 0 -8
BITMAP
FFFFFF
FFFFFF
70000E
70000E
70000E
70000E
70000E
70000E
70000E
70000E
70000E
70000E
70000E
70000E
70000E
70000E
70000E
70000E
70000E
70000E
70000E
70000E
70000E
70000E
70000E
70000E
70000E
70000E
70000E
70000E
70000E
70000E
70000E
ENDCHAR
STARTCHAR EFC3
ENCODING 61379
SWIDTH 720 0
DWIDTH 24 0
BBX 24 33 0 -8
BITMAP
70000E
70000E
70000E
70000E
70000E
70000E
70000E
70000E
70000E
70000E
70000E
70000E
70000E
70000E
70000E
70000E
70000E
70000E
70000E
70000E
70000E
70000E
70000E
70000E
70000E
70000E
70000E
70000E
70000E
70000E
70000E
FFFFFF
FFFFFF
ENDCHAR
STARTCHAR EFC4
ENCODING 61380
SWIDTH 720 0
DWIDTH 24 0
BBX 16 36 8 -7
BITMAP
E700
E700
E700
E700
E700
E700
E700
E700
E700
E700
E700
E700
E700
E700
E700
E700
E700
E700
E700
E700
E700
E700
E700
E700
E700
E700
E700
E700
E700
E700
E700
E700
E700
FFFF
FFFF
FFFF
ENDCHAR
STARTCHAR EFC5
ENCODING 61381
SWIDTH 720 0
DWIDTH 24 0
BBX 16 36 8 -6
BITMAP
FFFF
FFFF
FFFF
E700
E700
E700
E700
E700
E700
E700
E700
E700
E700
E700
E700
E700
E700
E700
E700
E700
E700
E700
E700
E700
E700
E700
E700
E700
E700
E700
E700
E700
E700
E700
E700
E700
ENDCHAR
STARTCHAR EFC6
ENCODING 61382
SWIDTH 720 0
DWIDTH 24 0
BBX 22 33 1 -8
BITMAP
00FE00
07FF80
0F87C0
1C00E0
380070
300038
700038
600018
600018
60001C
60001C
60001C
E0001C
E0001C
E0001C
E0001C
E0001C
E0001C
E0001C
E0001C
E0001C
E0001C
E0001C
E0001C
E0001C
E0001C
E0001C
E0001C
E0001C
E0001C
E0001C
E0001C
E0001C
ENDCHAR
STARTCHAR EFC7
ENCODING 61383
SWIDTH 720 0
DWIDTH 24 0
BBX 22 33 1 -8
BITMAP
E0001C
E0001C
E0001C
E0001C
E0001C
E0001C
E0001C
E0001C
E0001C
E0001C
E0001C
E0001C
E0001C
E0001C
E0001C
E0001C
E0001C
E0001C
E0001C
E0001C
E0001C
E0001C
E0001C
60001C
600018
600018
600018
700038
380030
3C0070
1F03E0
07FFC0
03FF00
ENDCHAR
STARTCHAR EFC8
ENCODING 61384
SWIDTH 720 0
DWIDTH 24 0
BBX 22 33 1 -8
BITMAP
E0001C
E0001C
E0001C
E0001C
E0001C
E0001C
E0001C
E0001C
E0001C
E0001C
E0001C
E0001C
E0001C
E0001C
E0001C
E0001C
E0001C
E0001C
E0001C
E0001C
E0001C
E0001C
E0001C
E0001C
E0001C
E0001C
E0001C
E0001C
E0001C
E0001C
E0001C
E0001C
E0001C
ENDCHAR
STARTCHAR EFC9
ENCODING 61385
SWIDTH 720 0
DWIDTH 24 0
BBX 8 35 8 -6
BITMAP
E7
E7
E7
E7
E7
E7
E7
E7
E7
E7
E7
E7
E7
E7
E7
E7
E7
E7
E7
E7
E7
E7
E7
E7
E7
E7
E7
E7
E7
E7
E7
E7
E7
E7
E7
ENDCHAR
STARTCHAR EFCA
ENCODING 61386
SWIDTH 720 0
DWIDTH 24 0
BBX 16 20 4 -3
BITMAP
0080
0180
01C0
03C0
03E0
0660
0E70
0C30
1C38
1818
381C
300C
700E
7FFE
FFFF
0000
0000
0000
FFFF
FFFF
ENDCHAR
STARTCHAR EFCB
ENCODING 61387
SWIDTH 720 0
DWIDTH 24 0
BBX 24 7 0 7
BITMAP
FFFFFF
FFFFFF
000000
000000
000000
FFFFFF
FFFFFF
ENDCHAR
STARTCHAR EFCC
ENCODING 61388
SWIDTH 720 0
DWIDTH 24 0
BBX 15 35 10 -6
BITMAP
0004
000E
001C
001C
0038
0070
00F0
00E0
01C0
0380
0780
0700
0E00
1C00
1C00
3800
7000
F000
7000
3800
1C00
1C00
0E00
0700
0780
0380
01C0
00E0
00F0
0070
0038
001C
001E
000E
0004
ENDCHAR
STARTCHAR EFCD
ENCODING 61389
SWIDTH 720 0
DWIDTH 24 0
BBX 26 35 -1 -6
BITMAP
60000000
E0000000
70000000
38000000
38000000
1C000000
0E000000
0F000000
07000000
03800000
01C00000
01E00000
00E00000
00700000
00780000
00380000
001C0000
000E0000
000F0000
00070000
00038000
0001C000
0001C000
0000E000
00007000
00007800
00003800
00001C00
00000E00
00000E00
00000700
00000380
000003C0
000001C0
00000080
ENDCHAR
STARTCHAR EFCE
ENCODING 61390
SWIDTH 720 0
DWIDTH 24 0
BBX 22 13 0 -7
BITMAP
000008
00001C
00001C
00001C
00003C
000038
000078
0000F8
0001F8
000FF8
FFFFF8
FFFFF0
FFFFE0
ENDCHAR
STARTCHAR EFCF
ENCODING 61391
SWIDTH 720 0
DWIDTH 24 0
BBX 15 35 -1 -6
BITMAP
4000
E000
7000
7800
3800
1C00
0E00
0E00
0700
0380
03C0
01C0
00E0
0070
0070
0038
001C
001E
001C
0038
0070
0070
00E0
01C0
03C0
0380
0700
0E00
1E00
1C00
3800
7000
7000
E000
4000
ENDCHAR
STARTCHAR EFD0
ENCODING 61392
SWIDTH 720 0
DWIDTH 24 0
BBX 21 13 0 17
BITMAP
FFFF80
FFFFE0
FFFFF0
001FF0
0003F0
0001F0
0000F0
000078
000078
000038
000038
000018
000010
ENDCHAR
STARTCHAR EFD1
ENCODING 61393
SWIDTH 720 0
DWIDTH 24 0
BBX 26 35 -1 -6
BITMAP
00000080
000001C0
00000380
00000380
00000700
00000E00
00001E00
00001C00
00003800
00007000
00007000
0000E000
0001C000
0003C000
00038000
00070000
000E0000
001E0000
001C0000
00380000
00700000
00700000
00E00000
01C00000
03C00000
03800000
07000000
0E000000
1E000000
1C000000
38000000
70000000
70000000
E0000000
40000000
ENDCHAR
STARTCHAR EFD2
ENCODING 61394
SWIDTH 720 0
DWIDTH 24 0
BBX 26 36 -1 -7
BITMAP
00000080
000001C0
000003C0
00000380
00000700
00000E00
00000E00
00001C00
00003800
00007000
00007000
0000E000
0001C000
0003C000
00038000
00070000
000E0000
000E0000
001C0000
00380000
00700000
00700000
00E00000
01C00000
01C00000
03800000
07000000
0E000000
0E000000
1C000000
38000000
70000000
70000000
FFFFFF80
7FFFFF80
3FFFFF80
ENDCHAR
STARTCHAR EFD3
ENCODING 61395
SWIDTH 720 0
DWIDTH 24 0
BBX 26 36 -1 -6
BITMAP
7FFFFF80
7FFFFF80
FFFFFF80
70000000
70000000
38000000
1C000000
0E000000
0E000000
07000000
03800000
03C00000
01C00000
00E00000
00700000
00700000
00380000
001C0000
000E0000
000E0000
00070000
00038000
00038000
0001C000
0000E000
00007000
00007000
00003800
00001C00
00001E00
00000E00
00000700
00000380
00000380
000001C0
00000080
ENDCHAR
STARTCHAR EFD4
ENCODING 61396
SWIDTH 720 0
DWIDTH 24 0
BBX 16 33 4 -8
BITMAP
03C0
03C0
03C0
03C0
03C0
03C0
03C0
03C0
03C0
07E0
1FF8
33CC
63C6
43C2
43C3
C3C1
C3C1
C3C1
43C3
43C2
23C6
33CC
1FF8
07E0
03C0
03C0
03C0
03C0
03C0
03C0
03C0
03C0
03C0
ENDCHAR
STARTCHAR EFD5
ENCODING 61397
SWIDTH 570 0
DWIDTH 19 0
BBX 17 25 1 -9
BITMAP
001F80
01FF80
030700
060000
060000
0E0000
0C0000
0C0000
1C0000
1C0000
1DF000
1FF000
180000
380000
380000
380000
300000
700000
700000
700000
700000
E00000
E00000
E00000
E00000
ENDCHAR
STARTCHAR EFD6
ENCODING 61398
SWIDTH 990 0
DWIDTH 33 0
BBX 25 13 3 10
BITMAP
FFCF0F80
FFCF0F80
0C0F0F80
0C0D8F80
0C0D9B80
0C0D9B80
0C0D9B80
0C0CDB80
0C0CF380
0C0CF380
0C0C7380
0C0C6380
0C0C6380
ENDCHAR
STARTCHAR EFD7
ENCODING 61399
SWIDTH 990 0
DWIDTH 33 0
BBX 25 25 4 -1
BITMAP
007F0000
01C1E000
06003000
0C001800
18000400
30000200
601F0300
407F8100
40F3C180
C1C0C080
81800080
81800080
81800080
81800080
81800080
C1C0C080
C0F1C180
407F8100
601F0300
30000200
10000600
0C000C00
06003000
01C1E000
007F0000
ENDCHAR
STARTCHAR EFD8
ENCODING 61400
SWIDTH 990 0
DWIDTH 33 0
BBX 25 25 4 -1
BITMAP
007F0000
01C1E000
06003000
0C001800
18000400
30000200
60FF0300
40FF8100
40E3C180
C0E0C080
80E0C080
80E3C080
80FF8080
80FF0080
80E30080
C0E30080
C0E38180
40E18100
60E1C300
30000200
18000600
0C000C00
06003000
01C1E000
007F0000
ENDCHAR
STARTCHAR EFD9
ENCODING 61401
SWIDTH 990 0
DWIDTH 33 0
BBX 31 13 1 9
BITMAP
FFF3F03E
E630F058
C610F058
8618B8D8
8608B898
0600B898
06009D98
06009D18
06008F18
06008E18
07008E18
0F018638
3FC3E4FE
ENDCHAR
STARTCHAR EFDA
ENCODING 61402
SWIDTH 990 0
DWIDTH 33 0
BBX 25 25 4 -1
BITMAP
007F0000
01C1E000
07003000
0C001800
18000C00
30000600
201F8300
60618100
40E08180
C0C08080
81C00080
81C00080
81C00080
81C00080
81C08080
C0E08080
C0710180
403E0100
60000300
30000200
18000600
0C000C00
06003000
01C1E000
007F0000
ENDCHAR
STARTCHAR EFDB
ENCODING 61403
SWIDTH 990 0
DWIDTH 33 0
BBX 25 25 4 -1
BITMAP
007F0000
01C1E000
06003000
0C001800
18000400
30000200
21FF8300
4071C100
4071C180
C071C080
8071C080
80738080
807E0080
80730080
80738080
C0739080
C0719180
41F9E100
61F8E300
30000200
10000600
0C000C00
06003000
01C1E000
007F0000
ENDCHAR
STARTCHAR EFDC
ENCODING 61404
SWIDTH 720 0
DWIDTH 24 0
BBX 10 36 3 -7
BITMAP
00C0
00C0
00C0
00C0
00C0
00C0
00C0
00C0
00C0
00C0
00C0
00C0
00C0
00C0
00C0
00C0
00C0
00C0
00C0
00C0
00C0
00C0
00C0
00C0
20C0
F0C0
30C0
38C0
1CC0
0CC0
0EC0
07C0
03C0
03C0
01C0
00C0
ENDCHAR
STARTCHAR EFDD
ENCODING 61405
SWIDTH 720 0
DWIDTH 24 0
BBX 4 37 10 -8
BITMAP
F0
F0
F0
F0
F0
F0
F0
F0
F0
F0
F0
F0
F0
F0
F0
F0
F0
F0
F0
F0
F0
F0
F0
F0
F0
F0
F0
F0
F0
F0
F0
F0
F0
F0
F0
F0
F0
ENDCHAR
STARTCHAR EFDE
ENCODING 61406
SWIDTH 720 0
DWIDTH 24 0
BBX 9 33 5 -8
BITMAP
0780
0780
0780
0780
0780
0780
0780
0780
0780
0780
0780
0780
0780
0780
0780
0780
0780
0780
0780
0780
0780
0780
0780
0780
0780
0780
0780
0700
0700
0F00
0E00
3C00
F000
ENDCHAR
STARTCHAR EFDF
ENCODING 61407
SWIDTH 720 0
DWIDTH 24 0
BBX 9 33 11 -8
BITMAP
E000
E000
E000
E000
E000
E000
E000
E000
E000
E000
E000
E000
F000
7000
3800
0E00
0180
0780
1C00
3800
7000
F000
E000
E000
E000
E000
E000
E000
E000
E000
E000
E000
E000
ENDCHAR
STARTCHAR EFE0
ENCODING 61408
SWIDTH 720 0
DWIDTH 24 0
BBX 9 33 5 -8
BITMAP
E000
3800
1E00
0E00
0700
0700
0780
0780
0780
0780
0780
0780
0780
0780
0780
0780
0780
0780
0780
0780
0780
0780
0780
0780
0780
0780
0780
0780
0780
0780
0780
0780
0780
ENDCHAR
STARTCHAR EFE1
ENCODING 61409
SWIDTH 720 0
DWIDTH 24 0
BBX 9 33 10 -8
BITMAP
F000
F000
F000
F000
F000
F000
F000
F000
F000
F000
F000
F000
F000
F000
F000
F000
F000
F000
F000
F000
F000
F000
F000
F000
7000
7000
7000
7000
7800
3800
3C00
0E00
0380
ENDCHAR
STARTCHAR EFE2
ENCODING 61410
SWIDTH 720 0
DWIDTH 24 0
BBX 9 33 5 -8
BITMAP
0780
0780
0780
0780
0780
0780
0780
0780
0780
0780
0780
0700
0700
0E00
1C00
7000
8000
F000
1C00
0E00
0700
0700
0780
0780
0780
0780
0780
0780
0780
0780
0780
0780
0780
ENDCHAR
STARTCHAR EFE3
ENCODING 61411
SWIDTH 720 0
DWIDTH 24 0
BBX 9 33 11 -8
BITMAP
0780
1E00
3800
7000
7000
E000
E000
E000
E000
E000
E000
E000
E000
E000
E000
E000
E000
E000
E000
E000
E000
E000
E000
E000
E000
E000
E000
E000
E000
E000
E000
E000
E000
ENDCHAR
STARTCHAR EFE4
ENCODING 61412
SWIDTH 720 0
DWIDTH 24 0
BBX 13 36 0 -7
BITMAP
0018
0018
0018
0018
0018
0018
0018
0018
0018
0018
0018
0018
0018
0018
0018
0018
0018
0018
0018
0018
0018
0018
0018
0018
0018
0018
0018
0018
0018
0018
0018
0018
0018
FFF8
FFF8
FFF8
ENDCHAR
STARTCHAR EFE5
ENCODING 61413
SWIDTH 720 0
DWIDTH 24 0
BBX 13 36 0 -6
BITMAP
FFF8
FFF8
FFF8
0018
0018
0018
0018
0018
0018
0018
0018
0018
0018
0018
0018
0018
0018
0018
0018
0018
0018
0018
0018
0018
0018
0018
0018
0018
0018
0018
0018
0018
0018
0018
0018
0018
ENDCHAR
STARTCHAR EFE6
ENCODING 61414
SWIDTH 720 0
DWIDTH 24 0
BBX 13 36 11 -7
BITMAP
C000
C000
C000
C000
C000
C000
C000
C000
C000
C000
C000
C000
C000
C000
C000
C000
C000
C000
C000
C000
C000
C000
C000
C000
C000
C000
C000
C000
C000
C000
C000
C000
C000
FFF8
FFF8
FFF8
ENDCHAR
STARTCHAR EFE7
ENCODING 61415
SWIDTH 720 0
DWIDTH 24 0
BBX 13 36 11 -6
BITMAP
FFF8
FFF8
FFF8
C000
C000
C000
C000
C000
C000
C000
C000
C000
C000
C000
C000
C000
C000
C000
C000
C000
C000
C000
C000
C000
C000
C000
C000
C000
C000
C000
C000
C000
C000
C000
C000
C000
ENDCHAR
STARTCHAR EFE8
ENCODING 61416
SWIDTH 720 0
DWIDTH 24 0
BBX 24 2 0 9
BITMAP
FFFFFF
FFFFFF
ENDCHAR
STARTCHAR EFE9
ENCODING 61417
SWIDTH 720 0
DWIDTH 24 0
BBX 24 5 0 27
BITMAP
0000C0
000070
FFFFFE
FFFFFF
FFFFFF
ENDCHAR
STARTCHAR EFEA
ENCODING 61418
SWIDTH 720 0
DWIDTH 24 0
BBX 24 3 0 27
BITMAP
FFFFFF
FFFFFF
FFFFFF
ENDCHAR
STARTCHAR EFEB
ENCODING 61419
SWIDTH 720 0
DWIDTH 24 0
BBX 24 3 0 -7
BITMAP
FFFFFF
FFFFFF
FFFFFF
ENDCHAR
STARTCHAR EFEC
ENCODING 61420
SWIDTH 540 0
DWIDTH 18 0
BBX 15 17 2 0
BITMAP
07F0
1FFC
3FFC
381E
380E
3800
1E00
1FC0
7F80
F000
E000
E018
E01C
E03C
FFF8
7FF0
1FC0
ENDCHAR
STARTCHAR EFFA
ENCODING 61434
SWIDTH 990 0
DWIDTH 33 0
BBX 23 24 5 0
BITMAP
003C00
01FF80
07FFE0
0FFFF0
1FFFF8
3FFFFC
7FFFFC
7FFFFE
FFFFFE
FFFFFE
FFFFFE
FFFFFE
FFFFFE
FFFFFE
FFFFFE
FFFFFE
7FFFFE
7FFFFC
3FFFFC
3FFFF8
1FFFF0
0FFFE0
03FF80
00FE00
ENDCHAR
STARTCHAR EFFB
ENCODING 61435
SWIDTH 990 0
DWIDTH 33 0
BBX 23 24 5 0
BITMAP
FFFFFE
FFFFFE
FFFFFE
FFFFFE
FFFFFE
FFFFFE
FFFFFE
FFFFFE
FFFFFE
FFFFFE
FFFFFE
FFFFFE
FFFFFE
FFFFFE
FFFFFE
FFFFFE
FFFFFE
FFFFFE
FFFFFE
FFFFFE
FFFFFE
FFFFFE
FFFFFE
FFFFFE
ENDCHAR
STARTCHAR EFFC
ENCODING 61436
SWIDTH 990 0
DWIDTH 33 0
BBX 23 24 5 0
BITMAP
FFFFFE
800002
800002
800002
800002
800002
800002
800002
800002
800002
800002
800002
800002
800002
800002
800002
800002
800002
800002
800002
800002
800002
800002
FFFFFE
ENDCHAR
STARTCHAR EFFD
ENCODING 61437
SWIDTH 990 0
DWIDTH 33 0
BBX 24 24 5 0
BITMAP
007E00
03C7C0
0600E0
180030
100018
20000C
600004
400006
C00002
800002
800003
800003
800003
800003
C00002
C00002
400006
600004
20000C
300018
180030
0E0060
03C3C0
00FE00
ENDCHAR
STARTCHAR EFFE
ENCODING 61438
SWIDTH 780 0
DWIDTH 26 0
BBX 22 23 2 0
BITMAP
003F80
01FFE0
03B0F0
0F6078
1CE07C
18E03C
38E03C
70F03C
70F03C
E0F038
E0F870
E0F8E0
E07F80
E07C00
E07C00
E03C00
E03C00
E03C00
703C00
703800
383800
1FF000
07C000
ENDCHAR
STARTCHAR EFFF
ENCODING 61439
SWIDTH 510 0
DWIDTH 17 0
BBX 15 15 1 9
BITMAP
07C0
1870
2018
4C6C
CCE4
8CA6
8EA2
8AA2
8AA2
8BA2
8B24
4004
6008
3830
0FE0
ENDCHAR
STARTCHAR FB00
ENCODING 64256
SWIDTH 570 0
DWIDTH 19 0
BBX 17 24 1 0
BITMAP
0F0780
1F0F80
3C1E00
381C00
381C00
381C00
FF7F80
FF7F80
381C00
381C00
381C00
381C00
381C00
381C00
381C00
381C00
381C00
381C00
381C00
381C00
381C00
381C00
381C00
381C00
ENDCHAR
STARTCHAR FB01
ENCODING 64257
SWIDTH 510 0
DWIDTH 17 0
BBX 15 24 0 0
BITMAP
070E
1F0E
1E0E
1C0E
1800
1800
FF0E
FF0E
180E
180E
180E
180E
180E
180E
180E
180E
180E
180E
180E
180E
180E
180E
180E
180E
ENDCHAR
STARTCHAR FB02
ENCODING 64258
SWIDTH 510 0
DWIDTH 17 0
BBX 13 24 1 0
BITMAP
0F18
1F18
3C18
3818
3818
3818
FF18
FF18
3818
3818
3818
3818
3818
3818
3818
3818
3818
3818
3818
3818
3818
3818
3818
3818
ENDCHAR
STARTCHAR FB03
ENCODING 64259
SWIDTH 780 0
DWIDTH 26 0
BBX 23 24 1 0
BITMAP
0F078E
1F0F8E
3C1F0E
381C0E
381C00
381C00
FF7F8E
FF7F8E
381C0E
381C0E
381C0E
381C0E
381C0E
381C0E
381C0E
381C0E
381C0E
381C0E
381C0E
381C0E
381C0E
381C0E
381C0E
381C0E
ENDCHAR
STARTCHAR FB04
ENCODING 64260
SWIDTH 780 0
DWIDTH 26 0
BBX 23 24 1 0
BITMAP
0F078E
1F0F8E
3C1F0E
381C0E
381C0E
381C0E
FF7F8E
FF7F8E
381C0E
381C0E
381C0E
381C0E
381C0E
381C0E
381C0E
381C0E
381C0E
381C0E
381C0E
381C0E
381C0E
381C0E
381C0E
381C0E
ENDCHAR
ENDFONT
